<?xml version="1.0" encoding="utf-8"?>
<!-- Generator: Adobe Illustrator 19.0.0, SVG Export Plug-In . SVG Version: 6.00 Build 0)  -->
<svg version="1.1" id="Layer_1" xmlns="http://www.w3.org/2000/svg" xmlns:xlink="http://www.w3.org/1999/xlink" x="0px" y="0px"
	 viewBox="0 0 409.6 409.6" style="enable-background:new 0 0 409.6 409.6;" xml:space="preserve">
<style type="text/css">
	.st0{fill:#FFFFFF;}
</style>
<g>
	<path class="st0" d="M349.6,60C310.9,21.3,259.5,0,204.8,0S98.7,21.3,60,60C21.3,98.7,0,150.1,0,204.8s21.3,106.1,60,144.8
		c38.7,38.7,90.1,60,144.8,60s106.1-21.3,144.8-60c38.7-38.7,60-90.1,60-144.8S388.3,98.7,349.6,60 M204.8,393.3
		c-103.9,0-188.5-84.6-188.5-188.5c0-103.9,84.6-188.5,188.5-188.5c103.9,0,188.5,84.6,188.5,188.5
		C393.3,308.7,308.7,393.3,204.8,393.3"/>
	<path class="st0" d="M204.8,38.8c-91.5,0-166,74.5-166,166c0,91.5,74.5,166,166,166c91.5,0,166-74.5,166-166
		C370.8,113.3,296.3,38.8,204.8,38.8 M204.8,354.5c-82.5,0-149.7-67.1-149.7-149.7c0-82.5,67.1-149.7,149.7-149.7
		c82.5,0,149.7,67.1,149.7,149.7C354.5,287.3,287.3,354.5,204.8,354.5"/>
	<path class="st0" d="M121.5,110l-1.8-1.8c-3.2-3.2-8.4-3.2-11.5,0c-3.2,3.2-3.2,8.4,0,11.5l1.8,1.8c1.6,1.6,3.7,2.4,5.8,2.4
		c2.1,0,4.2-0.8,5.8-2.4C124.7,118.3,124.7,113.2,121.5,110"/>
	<path class="st0" d="M78.9,196.6h-2.6c-4.5,0-8.2,3.7-8.2,8.2c0,4.5,3.7,8.2,8.2,8.2h2.6c4.5,0,8.2-3.7,8.2-8.2
		C87,200.3,83.4,196.6,78.9,196.6"/>
	<path class="st0" d="M121.5,288.1c-3.2-3.2-8.4-3.2-11.5,0l-1.8,1.8c-3.2,3.2-3.2,8.4,0,11.5c1.6,1.6,3.7,2.4,5.8,2.4
		c2.1,0,4.2-0.8,5.8-2.4l1.8-1.8C124.7,296.4,124.7,291.3,121.5,288.1"/>
	<path class="st0" d="M204.8,322.6c-4.5,0-8.2,3.7-8.2,8.2v2.6c0,4.5,3.7,8.2,8.2,8.2c4.5,0,8.2-3.7,8.2-8.2v-2.6
		C213,326.2,209.3,322.6,204.8,322.6"/>
	<path class="st0" d="M301.4,289.9l-1.8-1.8c-3.2-3.2-8.4-3.2-11.5,0c-3.2,3.2-3.2,8.4,0,11.5l1.8,1.8c1.6,1.6,3.7,2.4,5.8,2.4
		c2.1,0,4.2-0.8,5.8-2.4C304.6,298.3,304.6,293.1,301.4,289.9"/>
	<path class="st0" d="M333.3,196.6h-2.6c-4.5,0-8.2,3.7-8.2,8.2c0,4.5,3.7,8.2,8.2,8.2h2.6c4.5,0,8.2-3.7,8.2-8.2
		C341.5,200.3,337.8,196.6,333.3,196.6"/>
	<path class="st0" d="M301.4,108.2c-3.2-3.2-8.4-3.2-11.5,0l-1.8,1.8c-3.2,3.2-3.2,8.4,0,11.5c1.6,1.6,3.7,2.4,5.8,2.4
		c2.1,0,4.2-0.8,5.8-2.4l1.8-1.8C304.6,116.5,304.6,111.4,301.4,108.2"/>
	<path class="st0" d="M204.8,68.1c-4.5,0-8.2,3.7-8.2,8.2V80c0,4.5,3.7,8.2,8.2,8.2c4.5,0,8.2-3.7,8.2-8.2v-3.7
		C213,71.8,209.3,68.1,204.8,68.1"/>
	<path class="st0" d="M277.2,196.6h-46.6c-2.7-8.4-9.3-15.1-17.7-17.7v-72c0-4.5-3.7-8.2-8.2-8.2c-4.5,0-8.2,3.7-8.2,8.2v72
		c-11,3.5-19,13.8-19,25.9c0,15,12.2,27.1,27.1,27.1c12.1,0,22.4-8,25.9-19h46.6c4.5,0,8.2-3.7,8.2-8.2
		C285.4,200.3,281.8,196.6,277.2,196.6 M204.8,215.6c-6,0-10.8-4.9-10.8-10.8c0-6,4.9-10.8,10.8-10.8c6,0,10.8,4.9,10.8,10.8
		C215.6,210.8,210.8,215.6,204.8,215.6"/>
</g>
</svg>
