<?xml version="1.0" encoding="utf-8"?>
<!-- Generator: Adobe Illustrator 19.0.0, SVG Export Plug-In . SVG Version: 6.00 Build 0)  -->
<svg version="1.1" id="Layer_1" xmlns="http://www.w3.org/2000/svg" xmlns:xlink="http://www.w3.org/1999/xlink" x="0px" y="0px"
	 viewBox="0 0 403.9 410.9" style="enable-background:new 0 0 403.9 410.9;" xml:space="preserve">
<style type="text/css">
	.st0{fill:#FFFFFF;}
</style>
<g>
	<path class="st0" d="M362.3,353.4h-86.1c21.9-8.8,38.7-21.2,51.5-36.3c52.2-7.9,75.6-51.1,75.6-90.8c0-28.2-15.7-51.7-36-55.9
		c0-0.2,0-0.4,0-0.6c0-3.5-1.4-7.1-4.2-9.9c-2.8-2.8-6.4-4.2-9.9-4.2H28.3c-3.5,0-7.1,1.4-9.9,4.2c-2.8,2.8-4.2,6.4-4.2,9.9
		c0.5,75.9,13.8,152.7,91,183.6H18.4c-9.9,0-18.4,7.8-18.4,18.4c0,8.5,5.6,14.8,15.5,16.9l89.7,6.4c2.1,0,4.2,1.4,4.9,3.5
		c3.5,7.1,10.6,11.3,18.4,11.3h117.2c7.8,0,14.8-4.2,17.7-11.3c0.7-2.1,2.8-3.5,4.9-3.5l96-6.4h0.7c9.9-2.1,15.5-8.5,15.5-16.9
		C380.6,361.9,372.9,353.4,362.3,353.4 M367.2,185.3c12,4.2,21.2,21.2,21.2,41c0,27.5-12.7,60.7-47.9,72.7c0.6-1,1.2-2,1.7-3
		C361.8,262,365.9,221,367.2,185.3 M28.3,169.8h324.9c-0.7,95.3-21.2,183.6-162.4,183.6C49.4,353.4,29,265.1,28.3,169.8
		 M363.7,374.6l-94.6,6.4c-7.1,0.7-13.4,4.9-16.9,11.3c-1.4,2.1-3.5,3.5-5.7,3.5H128.5c-2.1,0-4.2-1.4-5.7-3.5
		c-3.5-6.4-9.9-10.6-16.9-11.3l-88.3-6.4c-3.5-0.7-3.5-2.1-3.5-2.8c0-2.1,2.1-4.2,4.2-4.2H363c2.1,0,4.2,2.1,4.2,4.2
		C367.2,372.5,367.2,373.9,363.7,374.6"/>
	<path class="st0" d="M185.7,58.9c-10.6,10.6-16.2,21.2-16.2,32.5c0,11.3,5.6,22.6,16.2,33.9c1.4,1.4,2.8,2.1,4.9,2.1
		c2.1,0,3.5-0.7,4.9-2.1c2.8-2.8,2.8-7.1,0-9.9c-7.8-8.5-12-16.2-12-24c0-7.8,4.2-15.5,12-22.6c10.6-9.9,16.2-21.2,16.2-32.5
		c0-11.3-4.9-23.3-16.2-33.9c-2.8-2.8-7.1-2.8-9.9,0c-2.8,2.8-2.8,7.1,0,9.9c7.8,8.5,12,16.2,12,24
		C197.7,44.1,193.5,51.9,185.7,58.9"/>
	<path class="st0" d="M247.2,91.4c0,11.3,5.7,22.6,16.2,33.9c1.4,1.4,2.8,2.1,4.9,2.1c1.4,0,3.5-0.7,4.2-2.1c2.8-2.8,2.8-7.1,0-9.9
		c-7.8-8.5-12-16.2-12-24c0-7.8,4.2-15.5,12-22.6c11.3-9.9,16.9-21.2,16.9-32.5c0-12-4.9-23.3-16.2-33.9c-2.8-2.8-7.1-2.8-9.9,0
		c-2.8,2.8-2.8,7.1,0,9.9c7.8,8.5,12,16.2,12,24c0,7.8-4.2,14.8-12,22.6C252.8,69.5,247.2,80.1,247.2,91.4"/>
	<path class="st0" d="M98.9,91.4c0,11.3,5.6,22.6,16.2,33.9c1.4,1.4,2.8,2.1,4.9,2.1c1.4,0,3.5-0.7,4.2-2.1c2.8-2.8,2.8-7.1,0-9.9
		c-7.8-8.5-12-16.2-12-24c0-7.8,4.2-15.5,12-22.6c11.3-9.9,16.9-21.2,16.9-32.5c0-12-4.9-23.3-16.2-33.9c-2.8-2.8-7.1-2.8-9.9,0
		c-2.8,2.8-2.8,7.1,0,9.9c7.8,8.5,12,16.2,12,24c0,7.8-4.2,14.8-12,22.6C104.5,69.5,98.9,80.1,98.9,91.4"/>
	<path class="st0" d="M149.7,318.1c-50.1-8.5-75.6-36.7-86.2-93.2c-0.7-3.5-4.9-6.4-8.5-5.6c-3.5,0.7-6.4,4.9-5.7,8.5
		c11.3,62.9,41.7,94.6,97.5,104.5h1.4c3.5,0,6.4-2.1,7.1-5.7C156.1,322.4,153.2,318.8,149.7,318.1"/>
</g>
</svg>
