<?xml version="1.0" encoding="utf-8"?>
<!-- Generator: Adobe Illustrator 19.0.0, SVG Export Plug-In . SVG Version: 6.00 Build 0)  -->
<svg version="1.1" id="Layer_1" xmlns="http://www.w3.org/2000/svg" xmlns:xlink="http://www.w3.org/1999/xlink" x="0px" y="0px"
	 viewBox="0 0 396.8 396.8" style="enable-background:new 0 0 396.8 396.8;" xml:space="preserve">
<style type="text/css">
	.st0{fill:#333333;}
	.st1{fill:#F9BA48;}
</style>
<g>
	<path class="st0" d="M320,249.6c10.6,0,19.2,8.6,19.2,19.2H352c0-17.6-14.4-32-32-32h-12.8v-15.2c22.2-6.8,38.4-27.6,38.4-52
		c0-1.7-0.1-3.5-0.3-5.2c-0.1-0.7-0.2-1.4-0.3-2c-0.1-1-0.3-2-0.5-3c-0.2-0.9-0.4-1.8-0.6-2.7c-0.2-0.7-0.3-1.4-0.5-2.1
		c-0.3-1.1-0.7-2.1-1-3.2c-0.1-0.3-0.2-0.5-0.3-0.8c10.3-10.2,16.2-24.1,16.2-38.7c0-24.3-16.2-45.6-39.2-52.2
		C314,25.9,284.3,0,249.6,0c-2.1,0-4.3,0.1-6.4,0.3c-0.8,0.1-1.5,0.2-2.3,0.3c-1.3,0.2-2.7,0.4-4,0.6c-0.9,0.2-1.8,0.3-2.6,0.5
		c-1.2,0.3-2.4,0.6-3.6,0.9c-0.8,0.2-1.7,0.4-2.5,0.7c-1.8,0.6-3.6,1.2-5.3,1.9c-0.9,0.4-1.8,0.8-2.7,1.2c-1,0.5-2,0.9-3,1.4
		c-0.9,0.4-1.7,0.9-2.6,1.4c-1,0.6-2,1.2-2.9,1.8c-0.8,0.5-1.5,1-2.3,1.5c-0.2,0.1-0.4,0.3-0.6,0.4C200,4.7,188.3,0,176,0
		c-12.7,0-24.8,5-33.8,14c-3.6-0.8-7.3-1.2-11-1.2c-27.5,0-50.2,20.3-53.8,47c-22.8,6.8-39,28-39,52.2c0,11.3,3.6,22.4,10.1,31.6
		c-2.5,6.3-3.7,12.9-3.7,19.6c0,26.7,19.4,48.9,44.8,53.5v20.1H76.8c-17.6,0-32,14.4-32,32h12.8c0-10.6,8.6-19.2,19.2-19.2h25.6
		v-32.2c1.3-0.1,2.6-0.2,3.9-0.4c0.4-0.1,0.9-0.1,1.3-0.2c2.4-0.4,4.7-0.9,7-1.5c8.8,5.7,18.9,8.7,29.4,8.7
		c11.7,0,22.9-3.7,32.2-10.5c4.2,6.1,9.7,11.2,15.8,15v40.3h12.8v-34.5c5.1,1.6,10.5,2.5,16,2.5c16.8,0,32.2-7.6,42.5-20.5
		c8.4,5.1,17.9,7.7,27.9,7.7c1.1,0,2.1-0.1,3.2-0.2v25.8H320z M265.6,202.4l-2.6-2c-8.6-7.8-13.6-19-13.6-30.7h-12.8
		c0,14.7,6.1,28.7,16.5,38.9c-7.9,9.8-19.6,15.5-32.3,15.5c-15.9,0-30.2-8.9-37.3-23.2l-3.9-8l-6.3,6.3
		c-7.8,7.8-18.3,12.1-29.3,12.1c-5.1,0-10-1-14.6-2.8c14.6-9.8,24.2-26.4,24.2-45.2c0-20.3-11.1-38.7-29.1-48.2l-6,11.3
		c13.7,7.2,22.2,21.3,22.2,36.8c0,18-11.5,33.3-27.4,39.1c-2.3,0.8-4.5,1.4-6.8,1.8c-0.2,0-0.3,0-0.5,0.1c-2.3,0.4-4.6,0.6-6.9,0.6
		c-22.9,0-41.6-18.7-41.6-41.6c0-6.2,1.4-12.1,4-17.8l1.8-3.7l-2.6-3.1c-6.2-7.5-9.6-16.9-9.6-26.6c0-19.8,14-36.9,33.4-40.8l4.9-1
		l0.2-5c1-22.2,19.3-39.6,41.5-39.6c3.8,0,7.6,0.5,11.4,1.6l4,1.1l2.7-3.1c6.7-7.9,16.5-12.4,26.8-12.4c8.6,0,16.7,3.1,23.1,8.7
		c-12.3,12.7-19.9,29.9-19.9,48.9H192c0-17.6,8-33.4,20.5-44c0.8-0.7,1.7-1.3,2.6-2c0.6-0.4,1.1-0.8,1.7-1.2
		c0.9-0.6,1.8-1.2,2.6-1.7c0.6-0.4,1.2-0.8,1.8-1.1c0.9-0.5,1.9-1,2.8-1.5c0.6-0.3,1.3-0.6,1.9-0.9c1-0.4,1.9-0.8,2.9-1.2
		c0.7-0.3,1.4-0.5,2-0.7c1-0.3,1.9-0.7,2.9-0.9c0.8-0.2,1.5-0.4,2.3-0.6c0.9-0.2,1.8-0.4,2.8-0.6c1-0.2,2-0.3,3-0.5
		c0.8-0.1,1.5-0.2,2.3-0.3c1.8-0.2,3.6-0.3,5.5-0.3c29.6,0,54.8,23.1,57.3,52.7l0.4,4.8l4.7,0.9c19.4,3.8,33.5,21,33.5,40.8
		c0,9.9-3.5,19.2-9.7,26.6c-9.8-14.1-26.2-23.4-44.7-23.4V128c16.6,0,30.9,9.8,37.6,23.9c0.6,1.3,1.2,2.7,1.7,4
		c0,0.1,0.1,0.2,0.1,0.3c0.4,1.3,0.8,2.5,1.1,3.8c0,0.2,0.1,0.4,0.2,0.7c0.3,1.2,0.4,2.4,0.6,3.6c0,0.3,0.1,0.6,0.1,0.9
		c0.2,1.5,0.2,3,0.2,4.5c0,22.9-18.7,41.6-41.6,41.6C281.9,211.2,273,208.1,265.6,202.4L265.6,202.4z M265.6,202.4"/>
	<path class="st1" d="M51.2,262.4C23,262.4,0,285.4,0,313.6c0,15.6,7.1,30.2,19.2,39.9v43.3h64v-43.3c12.1-9.7,19.2-24.4,19.2-39.9
		C102.4,285.4,79.4,262.4,51.2,262.4L51.2,262.4z M51.2,326.4c-7.1,0-12.8-5.7-12.8-12.8c0-7.1,5.7-12.8,12.8-12.8
		c7.1,0,12.8,5.7,12.8,12.8C64,320.7,58.3,326.4,51.2,326.4L51.2,326.4z M51.2,326.4"/>
	<path class="st1" d="M198.4,262.4c-28.2,0-51.2,23-51.2,51.2c0,15.6,7.1,30.2,19.2,39.9v43.3h64v-43.3
		c12.1-9.7,19.2-24.4,19.2-39.9C249.6,285.4,226.6,262.4,198.4,262.4L198.4,262.4z M198.4,326.4c-7.1,0-12.8-5.7-12.8-12.8
		c0-7.1,5.7-12.8,12.8-12.8c7.1,0,12.8,5.7,12.8,12.8C211.2,320.7,205.5,326.4,198.4,326.4L198.4,326.4z M198.4,326.4"/>
	<path class="st1" d="M345.6,262.4c-28.2,0-51.2,23-51.2,51.2c0,15.6,7.1,30.2,19.2,39.9v43.3h64v-43.3
		c12.1-9.7,19.2-24.4,19.2-39.9C396.8,285.4,373.8,262.4,345.6,262.4L345.6,262.4z M345.6,326.4c-7.1,0-12.8-5.7-12.8-12.8
		c0-7.1,5.7-12.8,12.8-12.8c7.1,0,12.8,5.7,12.8,12.8C358.4,320.7,352.7,326.4,345.6,326.4L345.6,326.4z M345.6,326.4"/>
	<rect x="12.8" y="384" class="st0" width="76.8" height="12.8"/>
	<path class="st0" d="M57.6,331.6c7.4-2.6,12.8-9.7,12.8-18c0-10.6-8.6-19.2-19.2-19.2c-10.6,0-19.2,8.6-19.2,19.2
		c0,8.3,5.4,15.4,12.8,18v26.8h-32v12.8h76.8v-12.8h-32V331.6z M51.2,307.2c3.5,0,6.4,2.9,6.4,6.4c0,3.5-2.9,6.4-6.4,6.4
		c-3.5,0-6.4-2.9-6.4-6.4C44.8,310.1,47.7,307.2,51.2,307.2L51.2,307.2z M51.2,307.2"/>
	<rect x="160" y="384" class="st0" width="76.8" height="12.8"/>
	<path class="st0" d="M204.8,331.6c7.4-2.6,12.8-9.7,12.8-18c0-10.6-8.6-19.2-19.2-19.2s-19.2,8.6-19.2,19.2c0,8.3,5.4,15.4,12.8,18
		v26.8h-32v12.8h76.8v-12.8h-32V331.6z M198.4,307.2c3.5,0,6.4,2.9,6.4,6.4c0,3.5-2.9,6.4-6.4,6.4c-3.5,0-6.4-2.9-6.4-6.4
		C192,310.1,194.9,307.2,198.4,307.2L198.4,307.2z M198.4,307.2"/>
	<path class="st0" d="M352,358.4v-26.8c7.4-2.6,12.8-9.7,12.8-18c0-10.6-8.6-19.2-19.2-19.2c-10.6,0-19.2,8.6-19.2,19.2
		c0,8.3,5.4,15.4,12.8,18v26.8h-32v12.8H384v-12.8H352z M345.6,307.2c3.5,0,6.4,2.9,6.4,6.4c0,3.5-2.9,6.4-6.4,6.4
		c-3.5,0-6.4-2.9-6.4-6.4C339.2,310.1,342.1,307.2,345.6,307.2L345.6,307.2z M345.6,307.2"/>
	<rect x="307.2" y="384" class="st0" width="76.8" height="12.8"/>
</g>
</svg>
