<?xml version="1.0" encoding="utf-8"?>
<!-- Generator: Adobe Illustrator 19.0.0, SVG Export Plug-In . SVG Version: 6.00 Build 0)  -->
<svg version="1.1" id="Layer_1" xmlns="http://www.w3.org/2000/svg" xmlns:xlink="http://www.w3.org/1999/xlink" x="0px" y="0px"
	 viewBox="0 0 399.7 396.8" style="enable-background:new 0 0 399.7 396.8;" xml:space="preserve">
<style type="text/css">
	.st0{fill:#F9BA48;}
	.st1{fill:#333333;}
</style>
<g>
	<rect x="143.7" y="249.6" class="st0" width="121.6" height="147.2"/>
	<rect x="2.9" y="313.6" class="st0" width="121.6" height="83.2"/>
	<rect x="284.5" y="185.6" class="st0" width="115.2" height="211.2"/>
	<path class="st1" d="M312.6,105c-6-23.8-28.7-39-53.1-35.3l-46.4,7.1L178,86.1l-0.8-1.7l28.6-28.6c5.9-5.9,6.9-15.3,2.2-22.3
		c-3-4.4-7.7-7.3-13-7.8c-5.3-0.5-10.5,1.3-14.3,5.1l-30.8,30.8c-7.4-1.3-15.1-0.3-21.8,3.1c-8.4,4.2-14.6,11.4-17.6,20.3
		c-2.1,6.3-2.3,12.9-0.8,19.1l-17,4.5L34.5,89.1L0,106.3l57.7,86.6l41.2-10.6V238l48.5-8.1l50-72.8l99.2-25.4
		C308.4,128.7,315.5,116.7,312.6,105L312.6,105z M122.7,89c1.9-5.6,5.8-10.2,11.1-12.9c5-2.5,10.8-3,16.3-1.4l3.7,1.1l36-36
		c1.4-1.4,3.1-1.5,4-1.4c0.9,0.1,2.5,0.5,3.6,2.2c1.3,1.9,1,4.6-0.6,6.2l-35.1,35.1l3.8,7.5l-43.2,11.4
		C121.2,96.9,121.4,92.9,122.7,89L122.7,89z M293.5,119.3l-85,21.8l10.9-15.8l-10.5-7.3L140,218.1l-28.3,4.7v-75.6H98.9v21.9
		l-35.6,9.1l-44.7-67l16.8-8.4l56.9,19l123.1-32.4l46-7.1c17.7-2.7,34.3,8.3,38.7,25.7C301.4,113,298.4,118,293.5,119.3L293.5,119.3
		z M293.5,119.3"/>
	<path class="st1" d="M118.1,64c17.6,0,32-14.4,32-32c0-17.6-14.4-32-32-32c-17.6,0-32,14.4-32,32C86.1,49.6,100.5,64,118.1,64
		L118.1,64z M118.1,12.8c10.6,0,19.2,8.6,19.2,19.2c0,10.6-8.6,19.2-19.2,19.2c-10.6,0-19.2-8.6-19.2-19.2
		C98.9,21.4,107.6,12.8,118.1,12.8L118.1,12.8z M118.1,12.8"/>
</g>
</svg>
