<?xml version="1.0" encoding="iso-8859-1"?>
<!-- Generator: Adobe Illustrator 19.0.0, SVG Export Plug-In . SVG Version: 6.00 Build 0)  -->
<svg version="1.1" id="Layer_1" xmlns="http://www.w3.org/2000/svg" xmlns:xlink="http://www.w3.org/1999/xlink" x="0px" y="0px"
	 viewBox="-49 235.084 512.001 323.834" style="enable-background:new -49 235.084 512.001 323.834;" xml:space="preserve">
<path style="fill:#DD441A;" d="M407.891,407.116h-40.079c-4.151,0-7.515,3.364-7.515,7.515c0,4.151,3.364,7.515,7.515,7.515h40.079
	c4.151,0,7.515-3.364,7.515-7.515C415.406,410.479,412.042,407.116,407.891,407.116z"/>
<path style="fill:#DD441A;" d="M218.957,422.145h116.791c4.151,0,7.515-3.364,7.515-7.515c0-4.151-3.364-7.515-7.515-7.515H218.957
	c-4.151,0-7.515,3.364-7.515,7.515C211.442,418.782,214.807,422.145,218.957,422.145z"/>
<path style="fill:#DD441A;" d="M407.891,447.195H218.957c-4.151,0-7.515,3.364-7.515,7.515s3.364,7.515,7.515,7.515h188.934
	c4.151,0,7.515-3.364,7.515-7.515S412.042,447.195,407.891,447.195z"/>
<path style="fill:#DD441A;" d="M407.891,487.274H283.084c-4.151,0-7.515,3.364-7.515,7.515c0,4.151,3.364,7.515,7.515,7.515h124.806
	c4.151,0,7.515-3.364,7.515-7.515C415.406,490.638,412.042,487.274,407.891,487.274z"/>
<path style="fill:#DD441A;" d="M218.957,487.274c-4.151,0-7.515,3.364-7.515,7.515c0,4.151,3.364,7.515,7.515,7.515h32.064
	c4.151,0,7.515-3.364,7.515-7.515c0-4.151-3.364-7.515-7.515-7.515H218.957z"/>
<path style="fill:#DD441A;" d="M99.383,317.777c2.048,2.048,5.18,2.738,7.902,1.74c32.809-12.038,41.776-18.443,43.742-20.12
	c0.165-0.141,0.325-0.289,0.477-0.443c9.047-9.179,8.993-24.063-0.122-33.178c-4.447-4.447-10.361-6.896-16.65-6.896
	c-6.226,0-12.096,2.405-16.528,6.774c-0.154,0.151-0.303,0.312-0.443,0.477c-1.676,1.967-8.083,10.934-20.12,43.743
	C96.634,312.624,97.313,315.707,99.383,317.777z M129.046,276.086c3.32-2.984,8.554-2.835,11.708,0.319
	c3.199,3.199,3.314,8.364,0.328,11.7c-1.154,0.837-6.685,4.503-23.289,11.263C124.6,282.644,128.265,277.159,129.046,276.086z"/>
<path style="fill:#DD441A;" d="M35.67,309.874c-12.041-32.819-18.446-41.779-20.122-43.744c-0.14-0.164-0.288-0.323-0.442-0.475
	c-9.178-9.046-24.063-8.992-33.178,0.121c-4.447,4.447-6.896,10.361-6.896,16.65c0,6.226,2.406,12.096,6.773,16.527
	c0.151,0.154,0.311,0.302,0.474,0.441c1.965,1.677,10.926,8.081,43.746,20.122C31.923,321.679,37.83,315.759,35.67,309.874z
	 M-7.761,288.115c-3.169-3.526-2.771-9.154,0.858-12.202c3.195-2.684,8.048-2.621,11.161,0.166
	c0.836,1.152,4.502,6.682,11.262,23.288C-1.211,292.556-6.692,288.891-7.761,288.115z"/>
<path style="fill:#DD441A;" d="M-1.421,442.126c6.226,0,12.096-2.405,16.528-6.774c0.154-0.151,0.303-0.312,0.443-0.477
	c1.676-1.967,8.083-10.934,20.12-43.743c2.16-5.89-3.754-11.801-9.643-9.643c-32.809,12.038-41.776,18.443-43.742,20.12
	c-0.165,0.141-0.325,0.289-0.477,0.443c-9.047,9.179-8.993,24.063,0.122,33.178C-13.623,439.676-7.71,442.126-1.421,442.126z
	 M-7.77,412.903c1.154-0.837,6.685-4.503,23.289-11.263C8.71,418.364,5.045,423.849,4.266,424.922
	c-3.32,2.984-8.554,2.835-11.708-0.319C-10.642,421.403-10.756,416.24-7.77,412.903z"/>
<path style="fill:#DD441A;" d="M97.641,391.133c12.041,32.819,18.446,41.779,20.122,43.744c0.14,0.164,0.288,0.323,0.442,0.475
	c4.568,4.502,10.547,6.749,16.526,6.749c6.036,0,12.073-2.293,16.652-6.871c4.447-4.447,6.896-10.361,6.896-16.65
	c0-6.226-2.406-12.096-6.773-16.527c-0.151-0.154-0.311-0.302-0.474-0.441c-1.965-1.677-10.926-8.081-43.746-20.122
	C101.396,379.332,95.479,385.242,97.641,391.133z M141.073,412.893c2.985,3.321,2.837,8.554-0.319,11.709
	c-3.198,3.198-8.363,3.315-11.7,0.327c-0.836-1.152-4.502-6.682-11.262-23.288C134.522,408.45,140.004,412.116,141.073,412.893z"/>
<path style="fill:#DD441A;" d="M455.986,327.458h-1.002v-65.129c0-8.564-6.466-15.03-15.03-15.03H166.52
	c-0.078,0-0.153,0.009-0.231,0.012c-17.952-15.925-45.143-16.044-63.099-0.012H90.261v-1.002c0-4.151-3.424-7.014-7.574-7.014
	H50.623c-4.15,0-7.456,2.863-7.456,7.014v1.002H30.123c-8.709-8.016-19.799-12.215-31.544-12.215
	c-12.713,0-24.665,4.825-33.654,13.814c-18.557,18.558-18.527,48.69,0.03,67.246c1.54,1.54,3.064,3.07,6.07,4.695v6.618h-0.56
	c-4.15,0-7.456,2.863-7.456,7.014v32.064c0,4.151,3.306,8.016,7.456,8.016h0.56v5.616c-3.006,1.624-4.53,3.216-6.07,4.757
	C-44.034,393.915-49,406.103-49,418.817c0,12.713,4.943,24.872,13.933,33.89h0.026c1.899,1.002,4.063,3.12,6.067,4.63v77.533
	c0,8.564,6.908,16.032,15.472,16.032h56.671l0,0c0,4.151,3.306,8.016,7.456,8.016h32.064c4.15,0,7.574-3.865,7.574-8.016l0,0
	h349.693c8.564,0,15.03-7.468,15.03-16.032v-44.583c0-4.151-3.364-7.515-7.515-7.515s-7.515,3.364-7.515,7.515v44.583
	c0,0.276,0.276,1.002,0,1.002H90.262V435.464c4.008,7.36,7.403,13.327,10.846,16.769c8.989,8.991,20.926,13.941,33.64,13.941
	c12.713,0,24.657-4.95,33.647-13.94c18.557-18.558,18.553-48.501-0.004-67.059c-3.443-3.443-9.415-7.619-16.774-10.625h288.34
	v87.847c0,4.151,3.364,7.515,7.515,7.515s7.515-3.364,7.515-7.515V374.55h1.002c4.151,0,7.014-3.865,7.014-8.016v-32.064
	C463,330.321,460.137,327.458,455.986,327.458z M-24.447,259.401c6.151-6.151,14.328-9.539,23.027-9.539s16.876,3.388,23.027,9.539
	c8.996,8.996,23.864,49.208,33.602,79.655c-30.446-9.738-70.659-24.607-79.655-33.603
	C-37.143,292.757-37.143,272.097-24.447,259.401z M-21.961,359.521v-17.034h39.327c8.616,3.006,17.081,6.083,24.445,8.517
	c-7.392,2.443-25.015,8.517-25.255,8.517H-21.961z M43.168,535.871h-56.671c-0.277,0-0.442-0.727-0.442-1.002v-70.412
	c4.008,1.121,8.317,1.694,12.554,1.694c12.188,0,24.39-4.639,33.67-13.919c3.443-3.443,6.882-9.411,10.89-16.769V535.871z
	 M21.606,441.606c-12.697,12.698-33.357,12.696-46.053,0c-6.15-6.15-9.538-14.328-9.538-23.026c0-8.699,3.387-16.876,9.538-23.026
	c8.997-8.997,49.209-23.864,79.656-33.603C45.473,392.395,30.607,432.606,21.606,441.606z M75.231,543.887H58.198V399.794
	c3.006-8.616,6.083-17.082,8.517-24.445c2.434,7.365,5.511,15.83,8.517,24.447V543.887z M66.685,325.659
	c-2.434-7.365-5.482-15.83-8.488-24.446v-46.9h16.975c0,0,0.029,46.82,0.051,47.054C72.031,310.016,69.128,318.267,66.685,325.659z
	 M111.705,259.401c6.349-6.349,14.688-9.523,23.027-9.523c8.34,0,16.679,3.174,23.027,9.523c6.15,6.15,9.538,14.328,9.538,23.026
	c0,8.699-3.387,16.876-9.538,23.026c-8.997,8.997-49.209,23.864-79.656,33.603C87.838,308.612,102.705,268.402,111.705,259.401z
	 M157.758,395.554c12.696,12.696,12.696,33.356,0,46.052c-6.151,6.151-14.328,9.539-23.027,9.539s-16.876-3.388-23.027-9.539
	c-8.996-8.996-23.864-49.208-33.602-79.655C108.549,371.689,148.762,386.558,157.758,395.554z M447.97,359.521H116.755
	c-0.24,0-17.863-6.074-25.255-8.517c7.38-2.439,24.78-8.517,24.921-8.517h86.505c4.15,0,7.515-3.364,7.515-7.515
	s-3.364-7.515-7.515-7.515h-51.31c7.36-4.008,13.328-7.683,16.77-11.126c8.989-8.99,13.94-20.815,13.94-33.529
	c0-7.251-1.616-14.463-4.668-20.475h262.297c0.276,0,0-0.276,0,0v65.129H234.655c-4.151,0-7.515,3.364-7.515,7.515
	c0,4.151,3.364,7.515,7.515,7.515H447.97V359.521z"/>
</svg>
