<?xml version="1.0" encoding="utf-8"?>
<!-- Generator: Adobe Illustrator 19.0.0, SVG Export Plug-In . SVG Version: 6.00 Build 0)  -->
<svg version="1.1" id="Layer_1" xmlns="http://www.w3.org/2000/svg" xmlns:xlink="http://www.w3.org/1999/xlink" x="0px" y="0px"
	 viewBox="0 0 48 48" style="enable-background:new 0 0 48 48;" xml:space="preserve">
<style type="text/css">
	.st0{fill:#DD441A;}
</style>
<path class="st0" d="M47.2,12.8c0.5,0,0.8-0.3,0.8-0.8V0.8C48,0.3,47.7,0,47.2,0H29.6c-0.5,0-0.8,0.3-0.8,0.8v4.8h-9.6V0.8
	c0-0.5-0.3-0.8-0.8-0.8H0.8C0.3,0,0,0.3,0,0.8V12c0,0.5,0.3,0.8,0.8,0.8H8v4H0.8c-0.5,0-0.8,0.3-0.8,0.8v11.2c0,0.5,0.3,0.8,0.8,0.8
	h14.4V28H1.6v-9.6h16.8v-1.6H9.6v-4h8.8c0.5,0,0.8-0.3,0.8-0.8V7.2h9.6V12c0,0.5,0.3,0.8,0.8,0.8h8v4h-8v1.6h16.8V28H32.8v1.6h14.4
	c0.5,0,0.8-0.3,0.8-0.8V17.6c0-0.5-0.3-0.8-0.8-0.8h-8v-4H47.2z M17.6,11.2h-16V1.6h16V11.2z M30.4,1.6h16v9.6h-16V1.6z M30.4,1.6"
	/>
<path class="st0" d="M28,31.2h-8c-3.1,0-5.6,2.5-5.6,5.6V48H16V36.8c0-2.2,1.8-4,4-4h1l2.2,5.9c0.1,0.2,0.4,0.5,0.7,0.5
	s0.6-0.2,0.9-0.5l2.2-5.9H28c2.2,0,4,1.8,4,4V48h1.6V36.8C33.6,33.7,31.1,31.2,28,31.2L28,31.2z M24.1,36.2l-1.3-3.4h2.6L24.1,36.2z
	 M24.1,36.2"/>
<rect x="23.2" y="40.8" class="st0" width="1.6" height="1.6"/>
<rect x="23.2" y="44" class="st0" width="1.6" height="1.6"/>
<path class="st0" d="M23.2,30.4h1.6c2.2,0,4-1.8,4-4V24c0-2.2-1.8-4-4-4h-1.6c-2.2,0-4,1.8-4,4v2.4C19.2,28.6,21,30.4,23.2,30.4
	L23.2,30.4z M20.8,24c0-1.4,1-2.4,2.4-2.4h1.6c1.4,0,2.4,1,2.4,2.4v2.4c0,1.4-1,2.4-2.4,2.4h-1.6c-1.4,0-2.4-1-2.4-2.4V24z M20.8,24
	"/>
<rect x="18.4" y="39.2" class="st0" width="1.6" height="8.8"/>
<rect x="28" y="39.2" class="st0" width="1.6" height="8.8"/>
<rect x="4" y="4" class="st0" width="8" height="1.6"/>
<rect x="4" y="7.2" class="st0" width="11.2" height="1.6"/>
<rect x="32.8" y="20.8" class="st0" width="8" height="1.6"/>
<rect x="32.8" y="24" class="st0" width="11.2" height="1.6"/>
<rect x="32.8" y="4" class="st0" width="1.6" height="1.6"/>
<rect x="36" y="4" class="st0" width="1.6" height="1.6"/>
<rect x="39.2" y="4" class="st0" width="1.6" height="1.6"/>
<rect x="42.4" y="4" class="st0" width="1.6" height="1.6"/>
<rect x="32.8" y="7.2" class="st0" width="1.6" height="1.6"/>
<rect x="36" y="7.2" class="st0" width="1.6" height="1.6"/>
<rect x="39.2" y="7.2" class="st0" width="1.6" height="1.6"/>
<rect x="42.4" y="7.2" class="st0" width="1.6" height="1.6"/>
<rect x="4" y="20.8" class="st0" width="1.6" height="1.6"/>
<rect x="7.2" y="20.8" class="st0" width="1.6" height="1.6"/>
<rect x="10.4" y="20.8" class="st0" width="1.6" height="1.6"/>
<rect x="13.6" y="20.8" class="st0" width="1.6" height="1.6"/>
<rect x="4" y="24" class="st0" width="1.6" height="1.6"/>
<rect x="7.2" y="24" class="st0" width="1.6" height="1.6"/>
<rect x="10.4" y="24" class="st0" width="1.6" height="1.6"/>
<rect x="13.6" y="24" class="st0" width="1.6" height="1.6"/>
</svg>
