<?xml version="1.0" encoding="utf-8"?>
<!-- Generator: Adobe Illustrator 19.0.0, SVG Export Plug-In . SVG Version: 6.00 Build 0)  -->
<svg version="1.1" id="Capa_1" xmlns="http://www.w3.org/2000/svg" xmlns:xlink="http://www.w3.org/1999/xlink" x="0px" y="0px"
	 viewBox="-49 243.4 512 307.2" style="enable-background:new -49 243.4 512 307.2;" xml:space="preserve">
<style type="text/css">
	.st0{fill:#FFFFFF;}
</style>
<g>
	<g>
		<path class="st0" d="M247.8,485.3c-1.6-2-3.8-2.9-6.7-2.9H87.5V379.9h51.2c4.6,0,8.6-1.7,12-5.1c3.4-3.4,5.1-7.4,5.1-12
			c0-4.3-1.3-7.9-4-10.9L66.5,249.5c-3.4-3.9-7.7-5.9-13.1-5.9c-5.3,0-9.7,2-13.1,5.9L-45,351.9c-2.7,3-4,6.7-4,10.9
			c0,4.6,1.7,8.6,5.1,12c3.4,3.4,7.4,5.1,12,5.1h51.2v110.9v42.7v2.9v3.5c0,0.5,0.1,1.6,0.3,3.1c0.2,1.5,0.4,2.5,0.8,3.1
			c0.4,0.5,0.8,1.2,1.5,2.1c0.6,0.9,1.4,1.5,2.4,1.9c1,0.4,2.2,0.5,3.6,0.5h256c2.3,0,4.3-0.8,6-2.5c1.7-1.7,2.5-3.7,2.5-6
			c0-1.8-0.6-3.6-1.9-5.6L247.8,485.3z"/>
		<path class="st0" d="M457.9,419.1c-3.4-3.4-7.4-5.1-12-5.1h-51.2V303.1v-42.7v-2.9v-3.5c0-0.5-0.1-1.6-0.3-3.1
			c-0.2-1.5-0.4-2.5-0.8-3.1c-0.4-0.5-0.8-1.2-1.5-2.1c-0.6-0.9-1.4-1.5-2.4-1.9c-1-0.4-2.2-0.5-3.6-0.5h-256c-2.3,0-4.3,0.8-6,2.5
			c-1.7,1.7-2.5,3.7-2.5,6c0,2,0.6,3.7,1.9,5.3l42.7,51.2c1.6,2.1,3.8,3.2,6.7,3.2h153.6v102.4h-51.2c-4.6,0-8.6,1.7-12,5.1
			c-3.4,3.4-5.1,7.4-5.1,12c0,4.3,1.3,7.9,4,10.9l85.3,102.4c3.6,4.1,7.9,6.1,13.1,6.1c5.2,0,9.5-2,13.1-6.1L459,442.1
			c2.7-3,4-6.7,4-10.9C463,426.5,461.3,422.5,457.9,419.1z"/>
	</g>
</g>
</svg>
