<?xml version="1.0" encoding="utf-8"?>
<!-- Generator: Adobe Illustrator 19.0.0, SVG Export Plug-In . SVG Version: 6.00 Build 0)  -->
<svg version="1.1" id="Layer_1" xmlns="http://www.w3.org/2000/svg" xmlns:xlink="http://www.w3.org/1999/xlink" x="0px" y="0px"
	 viewBox="0 0 409.9 343" style="enable-background:new 0 0 409.9 343;" xml:space="preserve">
<style type="text/css">
	.st0{fill:#FFFFFF;}
</style>
<g>
	<path class="st0" d="M256,78.8c-17.8-2.4-37-1.6-55.8,2.5c-4.6,1-7.5,5.5-6.5,10.1c0.9,4,4.4,6.7,8.3,6.7c0.6,0,1.2-0.1,1.8-0.2
		c16.8-3.6,34-4.4,49.8-2.3c4.7,0.6,9-2.6,9.6-7.3C264,83.7,260.7,79.4,256,78.8"/>
	<path class="st0" d="M318.2,123c-4.1,2.3-5.6,7.5-3.4,11.6c0.7,1.2,1.3,2.5,1.9,3.7c1.5,3.1,4.5,4.8,7.7,4.8c1.2,0,2.5-0.3,3.7-0.8
		c4.2-2,6-7.1,4-11.4c-0.7-1.5-1.5-3-2.3-4.5C327.5,122.2,322.3,120.7,318.2,123"/>
</g>
<g>
	<path class="st0" d="M330.9,151.3c-4.7,0.6-7.9,5-7.3,9.6c2.8,20.5-2.6,40.9-15.4,57.3c-2.9,3.7-2.2,9.1,1.5,12
		c1.6,1.2,3.4,1.8,5.2,1.8c2.5,0,5.1-1.1,6.8-3.3c15.6-20.1,22.3-45,18.8-70.1C339.8,153.9,335.5,150.6,330.9,151.3"/>
	<path class="st0" d="M384.1,145.7c-3.7,0-7.2,0.8-10.3,2.2c-4.6-27.2-17.5-50.5-37.9-68.3c-20.1-17.5-46.4-29.1-76.7-33.8
		c1.2-3.5,1.8-7.2,1.8-11c0-18.8-15.3-34.1-34.1-34.1c-18.8,0-34.1,15.3-34.1,34.1c0,3.9,0.7,7.7,1.9,11.3
		c-14.3,2.3-28.1,6-41.2,11.2l-43.2-37.4c-2.4-2.1-5.8-2.7-8.7-1.5c-3,1.2-5,3.9-5.3,7.1l-5.7,56.8c-24.7,14-40.4,34.2-47.9,61.8
		c-4.3,15.7-7,16.7-15.7,17.4c-13.4,1.1-20,6.9-23,11.5c-4.5,6.7-5.1,15.4-1.7,25.7l9.9,30.8c4.7,14.5,13.3,17.5,19.7,17.5h9.5
		c22.1,28.7,42.5,35.5,69.2,42.2c-0.9,11-2.4,24-3.8,35.7H84.8c-4.7,0-8.5,3.8-8.5,8.5c0,4.7,3.8,8.5,8.5,8.5h90.9
		c4.7,0,8.5-3.8,8.5-8.5c0-4.7-3.8-8.5-8.5-8.5h-3.3l5.3-18c20.5,3.2,41.6,1.7,67.8-4.7c0.1,0.9,0.2,1.8,0.3,2.8
		c1,8.7,2.2,18.6,2,28.2c-0.1,2.3,0.8,4.5,2.4,6.2c1.6,1.6,3.8,2.6,6.1,2.6h79.1c4.7,0,8.5-3.8,8.5-8.5s-3.8-8.5-8.5-8.5h-18.7
		c7.7-31,22-62.2,32.2-75.4c17.5-22.6,26.8-49.7,26.8-78.2c0-4.7,3.8-8.5,8.4-8.5c4.6,0,8.4,3.8,8.4,8.5c0,2.3-0.9,4.5-2.5,6.1
		c-3.3,3.3-3.3,8.8,0,12.1c1.7,1.7,3.8,2.5,6,2.5c2.2,0,4.4-0.8,6.1-2.5c4.8-4.8,7.4-11.3,7.4-18.1
		C409.6,157.2,398.2,145.7,384.1,145.7 M226.9,17.7c9.4,0,17.1,7.7,17.1,17.1c0,9.4-7.7,17.1-17.1,17.1c-9.4,0-17.1-7.7-17.1-17.1
		C209.9,25.4,217.5,17.7,226.9,17.7 M335.4,239.1c-13.6,17.6-28.9,54.2-36.3,85.9h-34.4c-0.3-7.7-1.2-15.1-2-21.9
		c-0.5-4.4-1-8.5-1.3-12.2c-0.2-2.5-1.5-4.9-3.6-6.3c-2.1-1.5-4.7-1.9-7.2-1.2c-31.6,8.7-54.7,10.4-77.3,5.6
		c-4.4-0.9-8.7,1.7-10,5.9l-8.9,30.2h-30.9c1.7-14.1,3.5-29.8,4.1-41.8c0.2-4.1-2.5-7.8-6.5-8.8c-29.8-7.3-47.7-11.6-69-40.9
		c-1.6-2.2-4.2-3.5-6.9-3.5H31.8c-1.2,0-2.6-3.1-3.5-5.7l-9.9-30.8c-1.6-5-1.7-8.9-0.3-11c1.4-2.1,5.1-3.6,10.3-4
		c19.5-1.6,25.9-11.8,30.8-29.9c8.7-32.2,28.9-45.9,43.3-53.4c2.6-1.3,4.3-3.9,4.6-6.7l4.5-45l34.8,30.1c2.5,2.1,5.9,2.7,8.9,1.4
		c15.5-6.6,33-11.2,50.7-13.3c5.8,4.5,13,7.2,20.9,7.2c8,0,15.3-2.8,21.2-7.4c54.1,5.9,110.6,37.6,110.6,109.8
		C358.7,196,350.6,219.4,335.4,239.1"/>
</g>
<g>
	<path class="st0" d="M102,137.1c-4.7,0-8.5,3.8-8.5,8.5c0,4.7,3.8,8.5,8.5,8.5c4.7,0,8.5-3.8,8.5-8.5
		C110.5,141,106.7,137.1,102,137.1"/>
	<path class="st0" d="M228.3,324.9h-8c-4.7,0-8.5,3.8-8.5,8.5s3.8,8.5,8.5,8.5h8c4.7,0,8.5-3.8,8.5-8.5
		C236.8,328.8,233,324.9,228.3,324.9"/>
</g>
</svg>
