<?xml version="1.0" encoding="utf-8"?>
<!-- Generator: Adobe Illustrator 19.0.0, SVG Export Plug-In . SVG Version: 6.00 Build 0)  -->
<svg version="1.1" id="Layer_1" xmlns="http://www.w3.org/2000/svg" xmlns:xlink="http://www.w3.org/1999/xlink" x="0px" y="0px"
	 viewBox="0 0 409.9 410.9" style="enable-background:new 0 0 409.9 410.9;" xml:space="preserve">
<style type="text/css">
	.st0{fill:#FFFFFF;}
</style>
<g>
	<path class="st0" d="M70.8,179.6c-3.2-3.5-8.6-3.8-12.1-0.6c-3.5,3.1-3.8,8.5-0.6,12.1c1.1,1.2,2.3,2.5,3.5,3.6
		c1.7,1.7,3.9,2.5,6,2.5c2.2,0,4.4-0.8,6-2.5c3.3-3.3,3.3-8.7,0-12.1C72.7,181.7,71.7,180.6,70.8,179.6"/>
	<path class="st0" d="M61.6,61.9c-13.7,13.8-22.8,31.1-26.1,50.2c-3.3,18.7-0.9,37.6,6.9,54.8c1.4,3.2,4.5,5,7.8,5
		c1.2,0,2.4-0.2,3.5-0.8c4.3-1.9,6.2-7,4.3-11.3C44.9,131,51.2,96.5,73.6,74c3.3-3.3,3.3-8.7,0-12.1C70.3,58.6,64.9,58.6,61.6,61.9"
		/>
	<path class="st0" d="M213.5,89.7c-1.9-4.3-7-6.2-11.3-4.3c-4.3,1.9-6.2,7-4.3,11.3c13.1,28.9,6.7,63.5-15.7,85.9
		c-3.3,3.3-3.3,8.7,0,12.1c1.7,1.7,3.9,2.5,6,2.5c2.2,0,4.4-0.8,6-2.5c13.8-13.8,22.8-31.1,26.1-50.2
		C223.7,125.8,221.3,106.9,213.5,89.7"/>
</g>
<g>
	<path class="st0" d="M185.1,77c1.7,1.9,4,2.8,6.3,2.8c2,0,4.1-0.7,5.7-2.2c3.5-3.2,3.8-8.5,0.6-12.1c-1.1-1.3-2.3-2.5-3.5-3.6
		c-3.3-3.3-8.7-3.3-12.1,0c-3.3,3.3-3.3,8.7,0,12.1C183.2,75,184.2,76,185.1,77"/>
	<path class="st0" d="M404.6,356.7L297,249.1c0,0,0,0,0,0c0,0,0,0,0,0L274,226.1c-3.2-3.2-7.5-5-12.1-5c-1.5,0-3,0.2-4.4,0.6
		l-22.8-22.8c32.9-49.7,27.4-117.4-16.3-161.1c-24.2-24.2-56.3-37.5-90.5-37.5c-34.2,0-66.3,13.3-90.5,37.5
		c-49.9,49.9-49.9,131.1,0,181c24.2,24.2,56.3,37.5,90.5,37.5c25.5,0,49.8-7.4,70.6-21.2l22.8,22.8c-0.4,1.4-0.6,2.9-0.6,4.4
		c0,4.6,1.8,8.9,5,12.1l22.9,22.9c0,0,0,0,0,0c0,0,0,0,0,0l107.6,107.6c3.2,3.2,7.5,5,12.1,5c4.6,0,8.9-1.8,12.1-5l24.1-24.1
		c3.2-3.2,5-7.5,5-12.1C409.5,364.2,407.8,359.9,404.6,356.7 M206.3,206.8c-20.9,20.9-48.8,32.4-78.4,32.4
		c-29.6,0-57.5-11.5-78.4-32.5C6.2,163.5,6.2,93.1,49.5,49.9c21-21,48.8-32.5,78.4-32.5c29.6,0,57.5,11.5,78.4,32.5
		c43.2,43.2,43.3,113.5,0.1,156.8L206.3,206.8z M212.4,224.9l5.9-5.9c0,0,0.1-0.1,0.1-0.1c0,0,0.1-0.1,0.1-0.1l5.9-5.9l19.4,19.4
		l-12.1,12.1L212.4,224.9z M237.8,262.3l24.1-24.1l16.9,16.9l-24.1,24.1L237.8,262.3z M368.4,392.9L368.4,392.9L368.4,392.9
		L266.8,291.3l24.1-24.1l101.6,101.6L368.4,392.9z"/>
</g>
</svg>
