<?xml version="1.0" encoding="utf-8"?>
<!-- Generator: Adobe Illustrator 19.0.0, SVG Export Plug-In . SVG Version: 6.00 Build 0)  -->
<svg version="1.1" id="Layer_1" xmlns="http://www.w3.org/2000/svg" xmlns:xlink="http://www.w3.org/1999/xlink" x="0px" y="0px"
	 viewBox="-298 392.3 13.3 9.7" style="enable-background:new -298 392.3 13.3 9.7;" xml:space="preserve">
<style type="text/css">
	.st0{fill:#FFFFFF;}
	.st1{fill:none;stroke:#DC4626;stroke-miterlimit:10;}
</style>
<path class="st0" d="M-285.2,397.6h-12.3c-0.3,0-0.5-0.2-0.5-0.5s0.2-0.5,0.5-0.5h12.3c0.3,0,0.5,0.2,0.5,0.5
	S-284.9,397.6-285.2,397.6z"/>
<path id="XMLID_5_" class="st1" d="M-289.3,401"/>
<path class="st0" d="M-285.2,397.6c-0.1,0-0.3,0-0.3-0.1l-4.4-4.3c-0.2-0.2-0.2-0.5,0-0.7c0.2-0.2,0.5-0.2,0.7,0l4.4,4.3
	c0.2,0.2,0.2,0.5,0,0.7C-284.9,397.5-285.1,397.6-285.2,397.6z"/>
<path class="st0" d="M-289.5,402c-0.1,0-0.3,0-0.3-0.1c-0.2-0.2-0.2-0.5,0-0.7l4.3-4.4c0.2-0.2,0.5-0.2,0.7,0c0.2,0.2,0.2,0.5,0,0.7
	l-4.3,4.4C-289.2,401.9-289.4,402-289.5,402z"/>
</svg>
