<?xml version="1.0" encoding="utf-8"?>
<!-- Generator: Adobe Illustrator 19.0.0, SVG Export Plug-In . SVG Version: 6.00 Build 0)  -->
<svg version="1.1" id="Layer_1" xmlns="http://www.w3.org/2000/svg" xmlns:xlink="http://www.w3.org/1999/xlink" x="0px" y="0px"
	 viewBox="-295 386.2 20.8 20.8" style="enable-background:new -295 386.2 20.8 20.8;" xml:space="preserve">
<style type="text/css">
	.st0{fill:#1F4485;}
</style>
<g>
	<g>
		<path class="st0" d="M-275.3,386.2h-18.6c-0.6,0-1.1,0.5-1.1,1.1v18.5c0,0.6,0.5,1.1,1.1,1.1h10v-8.1h-2.7v-3h2.7v-2.3
			c0-2.7,1.6-4.1,4-4.1c1.1,0,2.1,0.1,2.4,0.1v2.8h-1.7c-1.3,0-1.6,0.6-1.6,1.5v2h3.1l-0.4,3.1h-2.7v8.1h5.3c0.6,0,1.1-0.5,1.1-1.1
			v-18.6C-274.2,386.7-274.7,386.2-275.3,386.2L-275.3,386.2z"/>
	</g>
</g>
</svg>
