<?xml version="1.0" encoding="utf-8"?>
<!-- Generator: Adobe Illustrator 19.0.0, SVG Export Plug-In . SVG Version: 6.00 Build 0)  -->
<svg version="1.1" id="Layer_1" xmlns="http://www.w3.org/2000/svg" xmlns:xlink="http://www.w3.org/1999/xlink" x="0px" y="0px"
	 viewBox="0 0 236.2 236.8" style="enable-background:new 0 0 236.2 236.8;" xml:space="preserve">
<style type="text/css">
	.st0{fill:#DC4626;}
</style>
<g>
	<path class="st0" d="M228.6,133.9V51l7.6-15.2V0.6h-45.7v35.2l7.6,15.2v82.9h-7.6v83.8c0,10.5,8.5,19,19,19h7.6
		c10.5,0,19-8.5,19-19v-83.8H228.6z M217.1,229.2h-7.6c-6.3,0-11.4-5.1-11.4-11.4v-76.2h30.5v76.2
		C228.6,224,223.4,229.2,217.1,229.2L217.1,229.2z M228.6,34L221,49.2v84.7h-15.2V49.2L198.1,34V8.2h30.5V34z M228.6,34"/>
	<rect x="209.5" y="149.2" class="st0" width="7.6" height="7.6"/>
	<rect x="209.5" y="164.5" class="st0" width="7.6" height="7.6"/>
	<rect x="209.5" y="179.6" class="st0" width="7.6" height="7.6"/>
	<path class="st0" d="M160,84.4c0-25.4-11.7-48.7-32-64l-6.1-4.6v8.6L80,0L38.1,24.4v-8.6L32,20.4C11.7,35.7,0,59,0,84.4
		c0,32,18.9,59.6,46.1,72.4h-0.4v80h7.6v-77.1c8.4,3,17.3,4.7,26.7,4.7c9.4,0,18.3-1.7,26.7-4.7v77.1h7.6v-80h-0.4
		C141.1,144,160,116.4,160,84.4L160,84.4z M38.1,33.3L80,8.8l41.9,24.4V86L80,110.5L38.1,86V33.3z M38.1,94.9L80,119.3l41.9-24.4
		v6.4L80,125.7l-41.9-24.4V94.9z M80,156.8c-39.9,0-72.4-32.5-72.4-72.4c0-20.3,8.2-39.1,22.9-52.8v74L80,134.5l49.5-28.9v-74
		c14.6,13.7,22.9,32.5,22.9,52.8C152.4,124.3,119.9,156.8,80,156.8L80,156.8z M80,156.8"/>
	<path class="st0" d="M83.8,88.2V61.6h26.7v-7.6H83.8V27.3h-7.6v26.7H49.5v7.6h26.7v26.7H83.8z M83.8,88.2"/>
	<path class="st0" d="M124,168.7l3.5,6.8c25.1-13.1,43.9-36.2,51.4-63.3l-7.3-2C164.6,135.2,147.2,156.5,124,168.7L124,168.7z
		 M124,168.7"/>
	<path class="st0" d="M124,191.5l3.5,6.8c7.7-4,15.6-9.3,23.5-15.7l-4.8-5.9C138.7,182.7,131.2,187.7,124,191.5L124,191.5z
		 M124,191.5"/>
	<rect x="61" y="172" class="st0" width="7.6" height="7.6"/>
	<rect x="61" y="187.3" class="st0" width="7.6" height="7.6"/>
	<path class="st0" d="M143.2,1.4l-4.6,6.1c16.5,12.4,27.6,28.3,32.9,47.5l7.3-2.1C173.1,32.1,161.1,14.8,143.2,1.4L143.2,1.4z
		 M143.2,1.4"/>
</g>
</svg>
