<?xml version="1.0" encoding="utf-8"?>
<!-- Generator: Adobe Illustrator 19.0.0, SVG Export Plug-In . SVG Version: 6.00 Build 0)  -->
<svg version="1.1" id="Layer_1" xmlns="http://www.w3.org/2000/svg" xmlns:xlink="http://www.w3.org/1999/xlink" x="0px" y="0px"
	 viewBox="0 0 409.6 384.3" style="enable-background:new 0 0 409.6 384.3;" xml:space="preserve">
<style type="text/css">
	.st0{fill:#DC4626;}
</style>
<path class="st0" d="M134.2,54.5c0.1-2.8,0.3-11.4,6.9-13.9c6.5-2.4,12.7,3.8,13.9,5.1c2,2.2,1.9,5.6-0.3,7.6
	c-2.2,2-5.6,1.9-7.6-0.2c-0.5-0.5-1.2-1.1-1.8-1.6c-0.1,0.7-0.3,1.8-0.3,3.3c-0.4,13,9.7,16.9,9.8,17c1.9,0.7,3.3,2.5,3.5,4.6
	c3,35.4,30.9,46.9,43.9,46.9c13,0,40.9-11.5,43.9-46.9c0.2-2.1,1.5-3.9,3.5-4.6c1-0.4,10.2-4.4,9.8-17c0-1.5-0.2-2.6-0.3-3.3
	c-0.6,0.4-1.3,1-1.8,1.6c-2.1,2.2-5.5,2.2-7.6,0.2c-2.2-2-2.3-5.4-0.2-7.6c1.2-1.3,7.5-7.5,13.9-5.1c6.5,2.5,6.8,11.1,6.9,13.9
	c0.4,15.3-8.7,22.8-13.7,25.8c-4.6,37-34.1,53.8-54.3,53.8c-20.2,0-49.7-16.7-54.3-53.8C142.8,77.3,133.7,69.8,134.2,54.5
	L134.2,54.5z M202.1,154.6c0,0,11.4-2.5,11.4-12.7h-22.9C190.7,152.1,202.1,154.6,202.1,154.6L202.1,154.6z M201.8,255.1l22.4-18.2
	c-2.3-11.7-13-81.2-13.8-82.3c-4.4,3-8.3,3.4-8.3,3.4s-3.8-0.4-8.3-3.4c-0.8,1.1-11.5,70.7-13.8,82.3L201.8,255.1z M239.7,53.7
	c1.1,0,2.1,0.4,2.9,1.2c0.8,0.8,1.2,1.8,1.2,2.9c-0.1,3.7-0.7,16.3-6.2,20.8c-3.5,2.9-9,4.6-14.3,4.6c-5.1,0-9.3-1.6-12-4.5
	c-2.9-3.2-4.8-9.8-5.9-14.7h-6.4c-1.1,4.9-3,11.5-5.9,14.7c-2.7,2.9-6.9,4.5-12,4.5c-5.3,0-10.8-1.8-14.3-4.6
	c-5.5-4.5-6.1-17-6.2-20.8c0-1.1,0.4-2.1,1.2-2.9c0.8-0.8,1.8-1.2,2.9-1.2H196c1.2,0,2.3,0.5,3.1,1.4c0.2,0.2,0.3,0.5,0.4,0.8h5.2
	c0.1-0.3,0.2-0.6,0.4-0.8c0.8-0.9,1.9-1.4,3.1-1.4H239.7z M191.1,61.8h-22.3c0.5,4.7,1.6,9.4,3,10.5c3.7,3,12.8,3.6,15.3,0.9
	C188.6,71.6,190.1,66.4,191.1,61.8L191.1,61.8z M235.4,61.8h-22.3c1,4.7,2.6,9.8,4.1,11.4c2.5,2.7,11.5,2.1,15.3-0.9
	C233.8,71.2,234.9,66.5,235.4,61.8L235.4,61.8z M245.3,34.8c-0.2,3,2,5.5,5,5.8c0.1,0,0.3,0,0.4,0c2.8,0,5.2-2.2,5.4-5
	c1.3-17.3-10.2-25-10.7-25.3c-2.5-1.6-5.7-0.9-7.4,1.5c-1.6,2.4-1,5.8,1.4,7.4C239.7,19.5,246.1,24.1,245.3,34.8L245.3,34.8z
	 M157.2,42.9c3,0,5.4-2.4,5.4-5.4c0-25.4,20.5-26.6,22.7-26.7h46.1c3,0,5.4-2.4,5.4-5.4c0-3-2.4-5.4-5.4-5.4h-46.2
	c-11.6,0.2-33.4,8.2-33.4,37.5C151.8,40.4,154.2,42.9,157.2,42.9L157.2,42.9z M55.5,243.3c4.6,37,34.1,53.8,54.3,53.8
	s49.7-16.7,54.3-53.8c5-3,14.1-10.5,13.7-25.8c-0.1-2.8-0.3-11.4-6.9-13.9c-6.4-2.4-12.7,3.8-13.9,5.1c-2,2.2-1.9,5.6,0.2,7.6
	c2.1,2,5.6,1.9,7.6-0.2c0.5-0.5,1.2-1.1,1.8-1.6c0.1,0.7,0.3,1.8,0.3,3.3c0.4,12.5-8.8,16.6-9.8,17c-1.9,0.7-3.3,2.5-3.5,4.6
	c-3,35.4-30.9,46.9-43.9,46.9c-13,0-40.9-11.5-43.9-46.9c-0.2-2.1-1.5-3.9-3.5-4.6c-0.1,0-10.2-4-9.8-17c0-1.5,0.2-2.6,0.3-3.3
	c0.6,0.4,1.3,1,1.8,1.5c2,2.2,5.5,2.3,7.6,0.3c2.2-2,2.3-5.4,0.3-7.6c-1.2-1.3-7.4-7.5-13.9-5.1c-6.5,2.5-6.8,11.1-6.9,13.9
	C41.4,232.9,50.5,240.4,55.5,243.3L55.5,243.3z M98.2,305c0,10.2,11.3,12.7,11.3,12.7s11.3-2.5,11.3-12.7H98.2z M92.6,302.7
	c-1.3-2.7-4.5-3.9-7.2-2.6l-11.7,5.5l-1.1-19.4c-0.2-3-2.7-5.2-5.7-5.1c-3,0.2-5.2,2.7-5.1,5.7l0.2,4.2C48.4,296.2,0,318.8,0,378.9
	c0,3,2.4,5.4,5.4,5.4c3,0,5.4-2.4,5.4-5.4c0-50.2,37.1-70.5,52-76.7l0.7,11.9c0.1,1.8,1.1,3.4,2.6,4.3c0.8,0.5,1.8,0.8,2.8,0.8
	c0.8,0,1.6-0.2,2.3-0.5l18.9-8.9C92.7,308.6,93.9,305.4,92.6,302.7L92.6,302.7z M121.2,147.3c1.4,0,2.9-0.6,4-1.7
	c9.4-10.2,21.1-17.8,33.7-22.1c2.8-0.9,4.3-4,3.4-6.8c-0.9-2.8-4-4.3-6.8-3.4c-14.3,4.8-27.5,13.4-38.1,24.9c-2,2.2-1.9,5.6,0.3,7.6
	C118.5,146.8,119.8,147.3,121.2,147.3L121.2,147.3z M47.2,362.6c-3,0-5.4,2.4-5.4,5.4v10.9c0,3,2.4,5.4,5.4,5.4c3,0,5.4-2.4,5.4-5.4
	V368C52.6,365,50.2,362.6,47.2,362.6L47.2,362.6z M172.4,362.6c-3,0-5.4,2.4-5.4,5.4v10.9c0,3,2.4,5.4,5.4,5.4c3,0,5.4-2.4,5.4-5.4
	V368C177.8,365,175.4,362.6,172.4,362.6L172.4,362.6z M156.8,290.9l0.2-4.2c0.2-3-2.1-5.5-5.1-5.7c-3-0.1-5.5,2.1-5.7,5.1l-1.1,19.4
	l-11.7-5.5c-2.7-1.3-5.9-0.1-7.2,2.6c-1.3,2.7-0.1,5.9,2.6,7.2l18.9,8.9c0.7,0.3,1.5,0.5,2.3,0.5c1,0,1.9-0.3,2.8-0.8
	c1.5-0.9,2.5-2.5,2.6-4.3l0.7-11.9c14.9,6.1,52,26.5,52,76.7c0,3,2.4,5.4,5.4,5.4c3,0,5.4-2.4,5.4-5.4
	C219,318.8,170.6,296.2,156.8,290.9L156.8,290.9z M61.3,200.2c0.3,0,0.5,0.1,0.8,0.1c2.6,0,4.9-1.9,5.3-4.6c0.8-5.4,3-10.3,6.2-14.3
	c1.9-2.3,1.6-5.7-0.7-7.6c-2.3-1.9-5.7-1.6-7.6,0.7c-4.5,5.4-7.5,12.2-8.6,19.5C56.3,197,58.3,199.7,61.3,200.2L61.3,200.2z
	 M81.5,176.5h44.1c2.2,0.1,21.6,1.2,21.6,25.4c0,3,2.4,5.4,5.4,5.4c3,0,5.4-2.4,5.4-5.4c0-28.2-21.1-36-32.3-36.1H81.5
	c-3,0-5.4,2.4-5.4,5.4C76.2,174.1,78.6,176.5,81.5,176.5L81.5,176.5z M85.8,161.6h43.5c1.1,0,27.4,0.1,30.6,26.8
	c0.3,2.7,2.6,4.8,5.3,4.8c0.2,0,0.4,0,0.6,0c3-0.3,5.1-3,4.7-6c-3.4-29.2-28.6-36.5-41.3-36.3H85.8c-3,0-5.4,2.4-5.4,5.4
	C80.4,159.2,82.8,161.6,85.8,161.6L85.8,161.6z M232.6,315.7c-3,0-5.4,2.4-5.4,5.4v57.5c0,3,2.4,5.4,5.4,5.4c3,0,5.4-2.4,5.4-5.4
	v-57.5C238,318.1,235.6,315.7,232.6,315.7L232.6,315.7z M367.7,315.7c-3,0-5.4,2.4-5.4,5.4v57.5c0,3,2.4,5.4,5.4,5.4
	c3,0,5.4-2.4,5.4-5.4v-57.5C373,318.1,370.6,315.7,367.7,315.7L367.7,315.7z M300.4,92.9L300.4,92.9c28.4,0,53.1,21.6,58.4,50.1
	c0.9,0,1.8,0.2,2.7,0.5c6.5,2.5,6.8,11.1,6.9,13.9c0.4,15.3-8.7,22.8-13.7,25.8c-4.6,37-34.1,53.8-54.3,53.8s-49.7-16.7-54.3-53.8
	c-5-3-14.1-10.5-13.7-25.8c0.1-2.8,0.3-11.4,6.9-13.9c0.9-0.4,1.8-0.5,2.7-0.5C247.3,114.5,272.1,92.9,300.4,92.9L300.4,92.9z
	 M252.2,147.6c0.4,0.4,0.8,0.8,1,1c2,2.2,1.9,5.6-0.3,7.6c-2.2,2-5.6,1.9-7.6-0.3c-0.5-0.5-1.2-1.1-1.8-1.5
	c-0.1,0.7-0.3,1.8-0.3,3.3c-0.4,13,9.7,16.9,9.8,17c1.9,0.7,3.3,2.5,3.5,4.6c3,35.4,30.8,46.9,43.9,46.9s40.9-11.5,43.9-46.9
	c0.2-2.1,1.5-3.9,3.5-4.6c1-0.4,10.2-4.4,9.8-17c0-1.5-0.2-2.6-0.3-3.3c-0.6,0.4-1.3,1-1.8,1.6c-2.1,2.2-5.5,2.2-7.6,0.2
	c-2.2-2-2.3-5.4-0.2-7.6c0.2-0.2,0.5-0.6,1-1c-3.2-24.7-24.1-43.9-48.2-43.9h0C276.3,103.6,255.4,122.8,252.2,147.6L252.2,147.6z
	 M265,180.3c-6.9-7.6-5.8-19.7-5.7-20.3c0.2-2.1,1.9-3.6,4-3.6h74.3c2.1,0,3.8,1.6,4,3.6c0.1,0.5,1.2,12.6-5.7,20.3
	c-3.5,3.9-8.4,5.9-14.5,5.9c-6.2,0-11.1-2-14.7-6c-1.3-1.5-2.3-3.2-3.1-4.9h-6.4c-0.8,1.7-1.7,3.4-3.1,4.9c-3.6,4-8.5,6-14.7,6
	C273.4,186.2,268.6,184.2,265,180.3L265,180.3z M301.4,167.2c-0.1-1-0.2-1.9-0.2-2.8h-1.4c0,0.9-0.1,1.8-0.2,2.8H301.4z
	 M309.2,164.4c0.2,3.1,0.9,7.4,3.5,10.4c2,2.2,4.8,3.3,8.6,3.3c3.7,0,6.5-1.1,8.5-3.2c2.7-2.9,3.5-7.3,3.7-10.4H309.2z M267.3,164.4
	c0.2,3.1,1,7.5,3.7,10.4c2,2.2,4.8,3.2,8.5,3.2c3.8,0,6.7-1.1,8.6-3.3c2.6-2.9,3.4-7.3,3.5-10.3L267.3,164.4L267.3,164.4z
	 M409.6,318.6v60.2c0,3-2.4,5.4-5.4,5.4c-3,0-5.4-2.4-5.4-5.4v-60.2c0-32.3-14.8-52.2-28.9-64.1c-24.3,25.4-47.7,38.3-69.5,38.3
	c-21.9,0-45.5-13.1-70-38.8c-15.1,12.4-25.2,30.1-27.9,50.1c-0.4,2.9-3.1,5-6.1,4.6c-2.9-0.4-5-3.1-4.6-6.1
	c4.6-34.1,27.9-62.1,60.9-73.2c2.1-0.7,4.4-0.1,5.8,1.6c0.2,0.3,21.7,25.3,41.9,25.3c20.1,0,41-25,41.2-25.2
	c1.4-1.7,3.6-2.4,5.7-1.7C347.9,229.6,409.6,249,409.6,318.6L409.6,318.6z M361.1,248.1c-5.7-3.6-10.7-6-13.7-7.2
	c-6.8,7.4-26.3,26.2-46.9,26.2c-20.7,0-40.6-18.9-47.5-26.3c-4.8,1.8-9.3,4.1-13.6,6.8c22,22.8,42.6,34.4,61.1,34.4
	C318.8,282.1,339.3,270.6,361.1,248.1L361.1,248.1z M95,351.7l31.5,15c-0.9-5.4-2-11.8-3.1-18.1l-25.5-13.1
	C97,340.5,96,346.1,95,351.7L95,351.7z M101.3,317.7c-0.2,0.2-0.7,2.8-1.4,6.7l21.1,10.8c-1.7-9.6-3.1-17.1-3.4-17.5
	c-4.4,3-8.1,3.4-8.1,3.4S105.7,320.7,101.3,317.7L101.3,317.7z M90.3,378.9h36.8l-34-16.2C91.9,369.7,90.8,375.7,90.3,378.9
	L90.3,378.9z M110.4,219.5v25.4h-6.6c-3,0-5.4,2.4-5.4,5.4c0,3,2.4,5.4,5.4,5.4h12c3,0,5.4-2.4,5.4-5.4v-30.8c0-3-2.4-5.4-5.4-5.4
	C112.8,214.2,110.4,216.6,110.4,219.5L110.4,219.5z M110.4,219.5"/>
</svg>
