<?xml version="1.0" encoding="utf-8"?>
<!-- Generator: Adobe Illustrator 19.0.0, SVG Export Plug-In . SVG Version: 6.00 Build 0)  -->
<svg version="1.1" id="Layer_1" xmlns="http://www.w3.org/2000/svg" xmlns:xlink="http://www.w3.org/1999/xlink" x="0px" y="0px"
	 viewBox="-187 278.2 236.2 236.8" style="enable-background:new -187 278.2 236.2 236.8;" xml:space="preserve">
<style type="text/css">
	.st0{fill:#FCFCFC;}
</style>
<g>
	<path class="st0" d="M41.6,412.1v-82.9l7.6-15.2v-35.2H3.5V314l7.6,15.2v82.9H3.5v83.8c0,10.5,8.5,19,19,19h7.6
		c10.5,0,19-8.5,19-19v-83.8H41.6z M30.1,507.4h-7.6c-6.3,0-11.4-5.1-11.4-11.4v-76.2h30.5V496C41.6,502.2,36.4,507.4,30.1,507.4
		L30.1,507.4z M41.6,312.2L34,327.4v84.7H18.8v-84.7l-7.7-15.2v-25.8h30.5V312.2z"/>
	<rect x="22.5" y="427.4" class="st0" width="7.6" height="7.6"/>
	<rect x="22.5" y="442.7" class="st0" width="7.6" height="7.6"/>
	<rect x="22.5" y="457.8" class="st0" width="7.6" height="7.6"/>
	<path class="st0" d="M-27,362.6c0-25.4-11.7-48.7-32-64l-6.1-4.6v8.6l-41.9-24.4l-41.9,24.4V294l-6.1,4.6c-20.3,15.3-32,38.6-32,64
		c0,32,18.9,59.6,46.1,72.4h-0.4v80h7.6v-77.1c8.4,3,17.3,4.7,26.7,4.7s18.3-1.7,26.7-4.7V515h7.6v-80h-0.4
		C-45.9,422.2-27,394.6-27,362.6L-27,362.6z M-148.9,311.5L-107,287l41.9,24.4v52.8l-41.9,24.5l-41.9-24.5V311.5z M-148.9,373.1
		l41.9,24.4l41.9-24.4v6.4l-41.9,24.4l-41.9-24.4V373.1z M-107,435c-39.9,0-72.4-32.5-72.4-72.4c0-20.3,8.2-39.1,22.9-52.8v74
		l49.5,28.9l49.5-28.9v-74c14.6,13.7,22.9,32.5,22.9,52.8C-34.6,402.5-67.1,435-107,435L-107,435z"/>
	<path class="st0" d="M-103.2,366.4v-26.6h26.7v-7.6h-26.7v-26.7h-7.6v26.7h-26.7v7.6h26.7v26.7L-103.2,366.4L-103.2,366.4z"/>
	<path class="st0" d="M-63,446.9l3.5,6.8c25.1-13.1,43.9-36.2,51.4-63.3l-7.3-2C-22.4,413.4-39.8,434.7-63,446.9L-63,446.9z"/>
	<path class="st0" d="M-63,469.7l3.5,6.8c7.7-4,15.6-9.3,23.5-15.7l-4.8-5.9C-48.3,460.9-55.8,465.9-63,469.7L-63,469.7z"/>
	<rect x="-126" y="450.2" class="st0" width="7.6" height="7.6"/>
	<rect x="-126" y="465.5" class="st0" width="7.6" height="7.6"/>
	<path class="st0" d="M-43.8,279.6l-4.6,6.1c16.5,12.4,27.6,28.3,32.9,47.5l7.3-2.1C-13.9,310.3-25.9,293-43.8,279.6L-43.8,279.6z"
		/>
</g>
</svg>
