<?xml version="1.0" encoding="utf-8"?>
<!-- Generator: Adobe Illustrator 19.0.0, SVG Export Plug-In . SVG Version: 6.00 Build 0)  -->
<svg version="1.1" id="Layer_1" xmlns="http://www.w3.org/2000/svg" xmlns:xlink="http://www.w3.org/1999/xlink" x="0px" y="0px"
	 viewBox="0 0 396.2 409.6" style="enable-background:new 0 0 396.2 409.6;" xml:space="preserve">
<style type="text/css">
	.st0{fill:#DC4626;}
</style>
<g>
	<path class="st0" d="M48.3,212.3c0.1-3.2,0.4-12.9,7.7-15.7c7.2-2.7,14.3,4.3,15.6,5.8c2.2,2.4,2.1,6-0.3,8.2
		c-2.3,2.2-6,2.1-8.2-0.3c-0.7-0.8-1.8-1.6-2.6-2.1c-0.2,0.9-0.4,2.3-0.5,4.4c-0.4,15,11.2,19.8,11.7,20c2.1,0.8,3.5,2.7,3.7,5
		c3.5,41.2,35.9,54.5,51,54.5c15.2,0,47.6-13.3,51-54.5c0.2-2.2,1.7-4.2,3.8-5c0.4-0.2,12.1-5,11.6-20c-0.1-2.2-0.3-3.6-0.5-4.4
		c-0.9,0.5-1.9,1.4-2.6,2.2c-2.2,2.3-5.9,2.4-8.2,0.2c-2.3-2.2-2.5-5.9-0.3-8.2c1.3-1.4,8.4-8.5,15.6-5.8c7.3,2.8,7.6,12.5,7.7,15.7
		c0.5,17.6-10.1,26.2-15.8,29.5c-5.2,42.7-39.2,61.9-62.3,61.9c-23.2,0-57.2-19.2-62.3-61.9C58.4,238.5,47.8,230,48.3,212.3
		L48.3,212.3z M126.4,332c1.8,0,16.5-3.6,16.5-18.4h-33.1C109.8,328.3,124.5,332,126.4,332L126.4,332z M137,334.1
		c-1.5-0.3-3.1,0-4.4,0.9c-2.7,1.8-5.1,2.6-6.2,2.9c-1.1-0.3-3.6-1-6.2-2.9c-1.3-0.9-2.8-1.2-4.4-0.9c-1.5,0.3-2.9,1.2-3.7,2.4
		c-2.4,3.5-13.8,62.6-13.9,63.2c-0.6,3.2,1.6,6.2,4.7,6.8c3.2,0.6,6.2-1.6,6.8-4.7c1.9-10.9,8.1-40.3,11.1-53.4
		c2.8,1,4.7,1.2,5.1,1.3c0.4,0,0.8,0,1.3,0c0.3,0,2.3-0.3,5.1-1.3c3,13.2,9.1,42.5,11.1,53.4c0.5,2.8,3,4.8,5.7,4.8
		c0.3,0,0.7,0,1-0.1c3.2-0.6,5.3-3.6,4.7-6.8c-0.1-0.6-11.5-59.7-13.9-63.2C139.8,335.3,138.5,334.4,137,334.1L137,334.1z
		 M54.1,382.4c-3.2,0-5.8,2.6-5.8,5.8v12.5c0,3.2,2.6,5.8,5.8,5.8c3.2,0,5.8-2.6,5.8-5.8v-12.5C59.9,385,57.3,382.4,54.1,382.4
		L54.1,382.4z M75.3,162.9c-5.3,6.4-8.8,14.5-9.9,23.3c-0.4,3.2,1.8,6.1,5,6.6c0.3,0,0.5,0.1,0.8,0.1c2.9,0,5.4-2.1,5.8-5.1
		c0.9-6.6,3.4-12.6,7.4-17.4c2.1-2.5,1.7-6.2-0.8-8.2C81.1,160,77.4,160.4,75.3,162.9L75.3,162.9z M172.4,192.7
		c0,3.2,2.6,5.8,5.8,5.8c3.2,0,5.8-2.6,5.8-5.8c0-33.5-25-42.7-38.3-42.9H92.6c-3.2,0-5.8,2.6-5.8,5.8s2.6,5.8,5.8,5.8h53.1
		C148.4,161.5,172.4,163,172.4,192.7L172.4,192.7z M191.8,179.7c0.2,0,0.5,0,0.7,0c3.2-0.4,5.5-3.3,5.1-6.5
		c-3.9-33.4-32.6-41.9-47.3-41.6h-50.2c-3.2,0-5.8,2.6-5.8,5.8c0,3.2,2.6,5.8,5.8,5.8h50.2c1.3,0.1,32,0.1,35.7,31.3
		C186.4,177.5,188.9,179.7,191.8,179.7L191.8,179.7z M390.3,0H6.9C3.7,0,1.1,2.6,1.1,5.8v304.1c0,3.2,2.6,5.8,5.8,5.8h35.4
		C22.1,330.8,0,357.3,0,400.8c0,3.2,2.6,5.8,5.8,5.8c3.2,0,5.8-2.6,5.8-5.8c0-58.8,43.9-82.2,60.8-89.1l0.8,14.3
		c0.1,1.9,1.2,3.7,2.8,4.7c0.9,0.5,2,0.8,3,0.8c0.8,0,1.7-0.2,2.5-0.6l19.4-9.1c2.9-1.4,4.2-4.8,2.8-7.8c-1.4-2.9-4.9-4.2-7.8-2.8
		l-11.6,5.5l-1.3-23c-0.2-3.2-2.9-5.7-6.1-5.5c-3.2,0.2-5.7,2.9-5.5,6.1l0.3,5.1c-2.5,1-6.2,2.4-10.4,4.6c0,0-0.1,0-0.1,0H12.8V11.7
		h371.7v292.4H282.1c18.6-39.6,14.7-87.1,14.5-89.6c-0.3-3-2.8-5.3-5.8-5.3H262c-3.2,0-5.8,2.6-5.8,5.8c0,29.8-8,51.5-23.7,64.4
		c-18.2,15-42.5,14.4-52.3,13.4c-0.6-2.5-2.6-4.4-5.3-4.6c-3.2-0.2-6,2.3-6.1,5.5l-1.3,23l-10.7-5c-2.9-1.4-6.4-0.1-7.8,2.8
		c-1.4,2.9-0.1,6.4,2.8,7.8l18.5,8.7c0.8,0.4,1.6,0.6,2.5,0.6c1,0,2.1-0.3,3-0.8c1.7-1,2.7-2.8,2.8-4.7l1.2-21.5
		c12.1,1.2,38.8,1.3,60-16.1c17.5-14.3,26.9-37.1,27.9-67.6h17.4c0.6,16.9-0.1,69.8-28.4,100.7c-14.3,15.6-33.8,23.5-58.1,23.5
		c-3.2,0-5.8,2.6-5.8,5.8s2.6,5.8,5.8,5.8c27.7,0,50.2-9.2,66.8-27.3c3.9-4.3,7.3-8.9,10.3-13.7h28.6v88c0,3.2,2.6,5.8,5.8,5.8
		c3.2,0,5.8-2.6,5.8-5.8v-88h14.6v88c0,3.2,2.6,5.8,5.8,5.8c3.2,0,5.8-2.6,5.8-5.8v-88h48.1c3.2,0,5.8-2.6,5.8-5.8V5.8
		C396.2,2.6,393.6,0,390.3,0L390.3,0z M198.6,364.1c-3.2,0-5.8,2.6-5.8,5.8v30.8c0,3.2,2.6,5.8,5.8,5.8c3.2,0,5.8-2.6,5.8-5.8V370
		C204.4,366.7,201.8,364.1,198.6,364.1L198.6,364.1z M174.7,47.9c3.2,0,5.8-2.6,5.8-5.8c0-3.2-2.6-5.8-5.8-5.8h-104
		c-3.2,0-5.8,2.6-5.8,5.8c0,3.2,2.6,5.8,5.8,5.8H174.7z M40,65.1c0,3.2,2.6,5.8,5.8,5.8h128.8c3.2,0,5.8-2.6,5.8-5.8
		c0-3.2-2.6-5.8-5.8-5.8H45.8C42.6,59.3,40,61.9,40,65.1L40,65.1z M45.8,94h128.8c3.2,0,5.8-2.6,5.8-5.8c0-3.2-2.6-5.8-5.8-5.8H45.8
		c-3.2,0-5.8,2.6-5.8,5.8C40,91.4,42.6,94,45.8,94L45.8,94z M45.8,117.1h128.8c3.2,0,5.8-2.6,5.8-5.8s-2.6-5.8-5.8-5.8H45.8
		c-3.2,0-5.8,2.6-5.8,5.8S42.6,117.1,45.8,117.1L45.8,117.1z M371.3,52.6c2.5-2.1,2.8-5.8,0.7-8.2c-2.1-2.5-5.8-2.8-8.2-0.7
		l-63.2,53.4l-33.1-34.7c-1.9-2.5-5.5-2.9-8-1.1l-39.6,33.3c-2.6,1.9-3.2,5.6-1.3,8.2c1.9,2.6,5.6,3.2,8.2,1.3l35.1-30l33.3,35
		c1,1.2,2.4,2,4,2.2c0.2,0,0.4,0,0.6,0c1.4,0,2.7-0.5,3.8-1.4L371.3,52.6z M269.8,111.5l-1.9,42.3c2.7-0.3,5.2-0.3,6.8-0.3
		c6.3,0,25.5,0,25.5,18.8v8c0,14.1-11.4,25.5-25.5,25.5c-14.1,0-25.5-11.4-25.5-25.5v-8c0-7.3,2.9-11.8,6.9-14.5l2.1-46.8
		c0.1-3.2,3.1-5.7,6.1-5.6C267.4,105.6,269.9,108.3,269.8,111.5L269.8,111.5z M274.7,165.2c-13.8,0-13.8,3.8-13.8,7.1v8
		c0,7.6,6.2,13.8,13.8,13.8c7.6,0,13.8-6.2,13.8-13.8v-8C288.5,169,288.5,165.2,274.7,165.2L274.7,165.2z M127,215v29.5h-7.2
		c-3.2,0-5.8,2.6-5.8,5.8c0,3.2,2.6,5.8,5.8,5.8h13c3.2,0,5.8-2.6,5.8-5.8V215c0-3.2-2.6-5.8-5.8-5.8C129.6,209.2,127,211.8,127,215
		L127,215z M127,215"/>
</g>
</svg>
