<?xml version="1.0" encoding="utf-8"?>
<!-- Generator: Adobe Illustrator 19.0.0, SVG Export Plug-In . SVG Version: 6.00 Build 0)  -->
<svg version="1.1" id="Layer_1" xmlns="http://www.w3.org/2000/svg" xmlns:xlink="http://www.w3.org/1999/xlink" x="0px" y="0px"
	 viewBox="0 0 392 392" style="enable-background:new 0 0 392 392;" xml:space="preserve">
<style type="text/css">
	.st0{fill:#FFFFFF;}
</style>
<g>
	<g>
		<path class="st0" d="M387.2,364.1L299.1,276c24.9-30.2,38.4-67.7,38.4-107.2c0-45.1-17.5-87.4-49.4-119.4
			C256.2,17.5,213.8,0,168.8,0S81.4,17.5,49.4,49.4C17.5,81.3,0,123.7,0,168.8c0,45,17.5,87.4,49.4,119.4
			c31.8,31.8,74.2,49.4,119.4,49.4c39.6,0,77.1-13.5,107.2-38.4l88.1,88c6.4,6.4,16.7,6.4,23.1,0
			C393.6,380.8,393.6,370.5,387.2,364.1L387.2,364.1z M72.6,265c-25.8-25.7-39.9-59.8-39.9-96.2c0-36.3,14.2-70.6,39.8-96.2
			c25.7-25.7,59.8-39.8,96.2-39.8c36.3,0,70.6,14.2,96.2,39.8c25.7,25.7,39.8,59.8,39.8,96.2c0,36.3-14.2,70.6-39.8,96.2
			c-25.7,25.7-59.9,39.8-96.2,39.8C132.4,304.9,98.2,290.7,72.6,265L72.6,265z M72.6,265"/>
	</g>
</g>
</svg>
