<?xml version="1.0" encoding="utf-8"?>
<!-- Generator: Adobe Illustrator 19.0.0, SVG Export Plug-In . SVG Version: 6.00 Build 0)  -->
<svg version="1.1" id="Layer_1" xmlns="http://www.w3.org/2000/svg" xmlns:xlink="http://www.w3.org/1999/xlink" x="0px" y="0px"
	 viewBox="-109 201 392 392" style="enable-background:new -109 201 392 392;" xml:space="preserve">
<style type="text/css">
	.st0{fill:#222222;}
</style>
<g>
	<g>
		<path class="st0" d="M278.2,565.1L190.1,477c24.9-30.2,38.4-67.7,38.4-107.2c0-45.1-17.5-87.4-49.4-119.4
			C147.2,218.5,104.8,201,59.8,201s-87.4,17.5-119.4,49.4c-31.9,31.9-49.4,74.3-49.4,119.4c0,45,17.5,87.4,49.4,119.4
			c31.8,31.8,74.2,49.4,119.4,49.4c39.6,0,77.1-13.5,107.2-38.4l88.1,88c6.4,6.4,16.7,6.4,23.1,0
			C284.6,581.8,284.6,571.5,278.2,565.1L278.2,565.1z M-36.4,466c-25.8-25.7-39.9-59.8-39.9-96.2c0-36.3,14.2-70.6,39.8-96.2
			c25.7-25.7,59.8-39.8,96.2-39.8c36.3,0,70.6,14.2,96.2,39.8c25.7,25.7,39.8,59.8,39.8,96.2c0,36.3-14.2,70.6-39.8,96.2
			c-25.7,25.7-59.9,39.8-96.2,39.8C23.4,505.9-10.8,491.7-36.4,466L-36.4,466z"/>
	</g>
</g>
</svg>
