<?xml version="1.0" encoding="utf-8"?>
<!-- Generator: Adobe Illustrator 19.0.0, SVG Export Plug-In . SVG Version: 6.00 Build 0)  -->
<svg version="1.1" id="Capa_1" xmlns="http://www.w3.org/2000/svg" xmlns:xlink="http://www.w3.org/1999/xlink" x="0px" y="0px"
	 viewBox="-49 170.6 512 452.9" style="enable-background:new -49 170.6 512 452.9;" xml:space="preserve">
<style type="text/css">
	.st0{fill:#FFFFFF;}
</style>
<g>
	<g>
		<path class="st0" d="M448.3,418.5c25.9-25.8,17.9-78-27-78l-118.2,0.1c4.5-25,11-66.5,10.7-70.4c-2.5-37.1-26.1-82.3-27.2-84.1
			c-4.3-8-26.1-18.9-48-14.3c-28.3,6.1-31.2,24.1-31.1,29.1c0,0,1.2,49.5,1.3,62.6c-13.5,29.8-60.3,108-74.4,114
			c-3.4-2-7.2-3.2-11.2-3.2H-26.1c-12.7,0-22.9,10.3-22.9,22.9l0,206.4c0.9,11.1,10.3,19.9,21.5,19.9h134.1
			c11.9,0,21.6-9.7,21.6-21.6V595c0,0,5-0.4,7.2,1.1c8.6,5.5,19.3,12.4,33.2,12.4h200.2c74.8,0,66.8-66.4,60-75.5
			c12.6-13.8,20.5-38,9.8-57.2C446.8,467.1,461.2,443.2,448.3,418.5z M102.1,601.8H-27.5v-206h129.6V601.8z M413.4,416.7l-1.2,5.1
			c34.5,9.8,16.1,49.6-8.6,52.1l-1.2,5.1c33.1,8.4,17.3,49.3-8.6,52.1l-1.2,5.1c27,4.4,20.5,50.5-20.4,50.5l-203.6,0.1
			c-14.4,0-27.5-16.4-38-16.4h-9.2V411.9c11.5-7.1,25.6-16.4,33.5-23.1c14.8-12.7,75.6-110.9,75.6-123.2s-1.3-65.5-1.3-65.5
			s11.9-15.4,38.5-4.2c0,0,22.4,42,24.7,75.4c0,0-10.1,68.9-15.5,90.6h141.2C452.5,362.1,445.9,411.6,413.4,416.7z"/>
	</g>
</g>
</svg>
