<?xml version="1.0" encoding="utf-8"?>
<!-- Generator: Adobe Illustrator 19.0.0, SVG Export Plug-In . SVG Version: 6.00 Build 0)  -->
<svg version="1.1" id="Layer_1" xmlns="http://www.w3.org/2000/svg" xmlns:xlink="http://www.w3.org/1999/xlink" x="0px" y="0px"
	 viewBox="0 0 396.8 396.8" style="enable-background:new 0 0 396.8 396.8;" xml:space="preserve">
<style type="text/css">
	.st0{fill:#F9BA48;}
	.st1{fill:#333333;}
</style>
<g>
	<path class="st0" d="M19.2,32v275.2h32.6c-0.4-2.1-0.6-4.2-0.6-6.4c0-17.7,14.3-32,32-32c17.7,0,32,14.3,32,32
		c0,2.2-0.2,4.3-0.6,6.4H167c-0.4-2.1-0.6-4.2-0.6-6.4c0-17.7,14.3-32,32-32c17.7,0,32,14.3,32,32c0,2.2-0.2,4.3-0.6,6.4h52.5
		c-0.4-2.1-0.6-4.2-0.6-6.4c0-17.7,14.3-32,32-32c17.7,0,32,14.3,32,32c0,2.2-0.2,4.3-0.6,6.4h32.6V32H19.2z M19.2,32"/>
	<path class="st1" d="M232.3,87.7l10.9,10.9c-16.8,4.7-48.1,17.3-75.3,50.9c-36.6,45.1-39.7,97.5-39.8,99.7l12.8,0.7
		c0-0.5,3-50.4,37-92.3c25.3-31.2,54.8-42.7,69.5-46.8l-3.9,15.6l12.4,3.1l7.3-29.1l-21.8-21.8L232.3,87.7z M232.3,87.7"/>
	<path class="st1" d="M304,115.2c12.4,0,22.4-10,22.4-22.4c0-12.4-10-22.4-22.4-22.4c-12.4,0-22.4,10.1-22.4,22.4
		C281.6,105.2,291.6,115.2,304,115.2L304,115.2z M304,83.2c5.3,0,9.6,4.3,9.6,9.6c0,5.3-4.3,9.6-9.6,9.6c-5.3,0-9.6-4.3-9.6-9.6
		C294.4,87.5,298.7,83.2,304,83.2L304,83.2z M304,83.2"/>
	<path class="st1" d="M126.1,106.9l11.5-11.5l11.5,11.5l9.1-9.1l-11.5-11.5l11.5-11.5l-9.1-9.1l-11.5,11.5l-11.5-11.5l-9.1,9.1
		l11.5,11.5l-11.5,11.5L126.1,106.9z M126.1,106.9"/>
	<path class="st1" d="M62.1,183.7l11.5-11.5l11.5,11.5l9.1-9.1l-11.5-11.5l11.5-11.5l-9.1-9.1l-11.5,11.5l-11.5-11.5l-9.1,9.1
		l11.5,11.5l-11.5,11.5L62.1,183.7z M62.1,183.7"/>
	<path class="st1" d="M251.5,181.1L240,192.6l-11.5-11.5l-9,9.1l11.5,11.5l-11.5,11.5l9,9.1l11.5-11.5l11.5,11.5l9-9.1l-11.5-11.5
		l11.5-11.5L251.5,181.1z M251.5,181.1"/>
	<path class="st1" d="M0,0v38.4h396.8V0H0z M384,25.6H12.8V12.8H384V25.6z M384,25.6"/>
	<path class="st1" d="M99,335.7c13.3-6,22.6-19.4,22.6-34.9c0-21.2-17.2-38.4-38.4-38.4c-21.2,0-38.4,17.2-38.4,38.4
		c0,15.5,9.3,28.9,22.6,34.9c-16.9,6.4-29,22.7-29,41.9v19.2H128v-19.2C128,358.5,115.9,342.2,99,335.7L99,335.7z M57.6,300.8
		c0-14.1,11.5-25.6,25.6-25.6c14.1,0,25.6,11.5,25.6,25.6c0,14.1-11.5,25.6-25.6,25.6C69.1,326.4,57.6,314.9,57.6,300.8L57.6,300.8z
		 M115.2,384h-64v-6.4c0-17.6,14.4-32,32-32c17.6,0,32,14.4,32,32V384z M115.2,384"/>
	<path class="st1" d="M214.2,335.7c13.3-6,22.6-19.4,22.6-34.9c0-21.2-17.2-38.4-38.4-38.4c-21.2,0-38.4,17.2-38.4,38.4
		c0,15.5,9.3,28.9,22.6,34.9c-16.9,6.4-29,22.7-29,41.9v19.2h89.6v-19.2C243.2,358.5,231.1,342.2,214.2,335.7L214.2,335.7z
		 M172.8,300.8c0-14.1,11.5-25.6,25.6-25.6c14.1,0,25.6,11.5,25.6,25.6c0,14.1-11.5,25.6-25.6,25.6
		C184.3,326.4,172.8,314.9,172.8,300.8L172.8,300.8z M230.4,384h-64v-6.4c0-17.6,14.4-32,32-32c17.6,0,32,14.4,32,32V384z
		 M230.4,384"/>
	<path class="st1" d="M329.4,335.7c13.3-6,22.6-19.4,22.6-34.9c0-21.2-17.2-38.4-38.4-38.4c-21.2,0-38.4,17.2-38.4,38.4
		c0,15.5,9.3,28.9,22.6,34.9c-16.9,6.4-29,22.7-29,41.9v19.2h89.6v-19.2C358.4,358.5,346.3,342.2,329.4,335.7L329.4,335.7z
		 M288,300.8c0-14.1,11.5-25.6,25.6-25.6c14.1,0,25.6,11.5,25.6,25.6c0,14.1-11.5,25.6-25.6,25.6C299.5,326.4,288,314.9,288,300.8
		L288,300.8z M345.6,384h-64v-6.4c0-17.6,14.4-32,32-32c17.6,0,32,14.4,32,32V384z M345.6,384"/>
</g>
</svg>
