<?xml version="1.0" encoding="utf-8"?>
<!-- Generator: Adobe Illustrator 19.0.0, SVG Export Plug-In . SVG Version: 6.00 Build 0)  -->
<svg version="1.1" id="Layer_1" xmlns="http://www.w3.org/2000/svg" xmlns:xlink="http://www.w3.org/1999/xlink" x="0px" y="0px"
	 viewBox="0 0 396.8 396.8" style="enable-background:new 0 0 396.8 396.8;" xml:space="preserve">
<style type="text/css">
	.st0{fill:#F9BA48;}
	.st1{fill:#333333;}
</style>
<g>
	<path class="st0" d="M198.4,83.2c-31.8,0-57.6,25.8-57.6,57.6c0,19.2,9.7,37.2,25.6,47.8v22.6h64v-22.6
		C246.3,178,256,160,256,140.8C256,109,230.2,83.2,198.4,83.2L198.4,83.2z M198.4,153.6c-7.1,0-12.8-5.7-12.8-12.8
		c0-7.1,5.7-12.8,12.8-12.8c7.1,0,12.8,5.7,12.8,12.8C211.2,147.9,205.5,153.6,198.4,153.6L198.4,153.6z M198.4,153.6"/>
	<path class="st1" d="M89.6,115.2c0-19.1-12.1-35.4-29-41.9c13.3-6,22.6-19.4,22.6-34.9C83.2,17.2,66,0,44.8,0
		C23.6,0,6.4,17.2,6.4,38.4c0,15.5,9.3,28.9,22.6,34.9C12.1,79.8,0,96.1,0,115.2v19.2h89.6V115.2z M19.2,38.4
		c0-14.1,11.5-25.6,25.6-25.6c14.1,0,25.6,11.5,25.6,25.6C70.4,52.5,58.9,64,44.8,64C30.7,64,19.2,52.5,19.2,38.4L19.2,38.4z
		 M76.8,121.6h-64v-6.4c0-17.6,14.4-32,32-32c17.6,0,32,14.4,32,32V121.6z M76.8,121.6"/>
	<path class="st1" d="M214.2,335.7c13.3-6,22.6-19.4,22.6-34.9c0-21.2-17.2-38.4-38.4-38.4c-21.2,0-38.4,17.2-38.4,38.4
		c0,15.5,9.3,28.9,22.6,34.9c-16.9,6.4-29,22.7-29,41.9v19.2h89.6v-19.2C243.2,358.5,231.1,342.2,214.2,335.7L214.2,335.7z
		 M172.8,300.8c0-14.1,11.5-25.6,25.6-25.6c14.1,0,25.6,11.5,25.6,25.6c0,14.1-11.5,25.6-25.6,25.6
		C184.3,326.4,172.8,314.9,172.8,300.8L172.8,300.8z M230.4,384h-64v-6.4c0-17.6,14.4-32,32-32c17.6,0,32,14.4,32,32V384z
		 M230.4,384"/>
	<path class="st1" d="M367.8,73.3c13.3-6,22.6-19.4,22.6-34.9C390.4,17.2,373.2,0,352,0c-21.2,0-38.4,17.2-38.4,38.4
		c0,15.5,9.3,28.9,22.6,34.9c-16.9,6.4-29,22.7-29,41.9v19.2h89.6v-19.2C396.8,96.1,384.7,79.8,367.8,73.3L367.8,73.3z M326.4,38.4
		c0-14.1,11.5-25.6,25.6-25.6c14.1,0,25.6,11.5,25.6,25.6c0,14.1-11.5,25.6-25.6,25.6C337.9,64,326.4,52.5,326.4,38.4L326.4,38.4z
		 M384,121.6h-64v-6.4c0-17.6,14.4-32,32-32c17.6,0,32,14.4,32,32V121.6z M384,121.6"/>
	<path class="st1" d="M357.3,157.2l-96,140.8l-10.6-7.2l96-140.8L357.3,157.2z M357.3,157.2"/>
	<path class="st1" d="M146.1,290.8l-10.6,7.2l-96-140.8l10.6-7.2L146.1,290.8z M146.1,290.8"/>
	<rect x="107.5" y="12.8" class="st1" width="181.8" height="12.8"/>
	<path class="st1" d="M227.2,198.4h-22.4v-39.6c7.4-2.7,12.8-9.7,12.8-18c0-10.6-8.6-19.2-19.2-19.2s-19.2,8.6-19.2,19.2
		c0,8.3,5.4,15.4,12.8,18v39.6h-22.4c-8.8,0-16,7.2-16,16c0,5.7,3,10.7,7.5,13.5c-0.7,1.8-1.1,3.7-1.1,5.7c0,8.8,7.2,16,16,16h44.8
		c8.8,0,16-7.2,16-16c0-2-0.4-3.9-1.1-5.7c4.5-2.8,7.5-7.8,7.5-13.5C243.2,205.6,236,198.4,227.2,198.4L227.2,198.4z M198.4,134.4
		c3.5,0,6.4,2.9,6.4,6.4c0,3.5-2.9,6.4-6.4,6.4c-3.5,0-6.4-2.9-6.4-6.4C192,137.3,194.9,134.4,198.4,134.4L198.4,134.4z
		 M169.6,211.2h57.6c1.8,0,3.2,1.4,3.2,3.2c0,1.8-1.4,3.2-3.2,3.2h-57.6c-1.8,0-3.2-1.4-3.2-3.2
		C166.4,212.6,167.8,211.2,169.6,211.2L169.6,211.2z M220.8,236.8H176c-1.8,0-3.2-1.4-3.2-3.2c0-1.8,1.4-3.2,3.2-3.2h44.8
		c1.8,0,3.2,1.4,3.2,3.2C224,235.4,222.6,236.8,220.8,236.8L220.8,236.8z M220.8,236.8"/>
	<rect x="192" y="44.8" class="st1" width="12.8" height="25.6"/>
	<path class="st1" d="M168.7,76.6L157.7,83l-12.8-22.2l11.1-6.4L168.7,76.6z M168.7,76.6"/>
	<path class="st1" d="M140.6,100.1l-6.4,11.1l-22.2-12.8l6.4-11.1L140.6,100.1z M140.6,100.1"/>
	<rect x="102.4" y="134.4" class="st1" width="25.6" height="12.8"/>
	<path class="st1" d="M140.6,181.6l-22.2,12.8l-6.4-11.1l22.2-12.8L140.6,181.6z M140.6,181.6"/>
	<path class="st1" d="M284.7,183.3l-6.4,11.1l-22.2-12.8l6.4-11.1L284.7,183.3z M284.7,183.3"/>
	<rect x="268.8" y="134.4" class="st1" width="25.6" height="12.8"/>
	<path class="st1" d="M284.7,98.3l-22.2,12.8l-6.4-11.1l22.2-12.8L284.7,98.3z M284.7,98.3"/>
	<path class="st1" d="M251.9,60.8L239.1,83l-11.1-6.4l12.8-22.2L251.9,60.8z M251.9,60.8"/>
</g>
</svg>
