<?xml version="1.0" encoding="utf-8"?>
<!-- Generator: Adobe Illustrator 19.0.0, SVG Export Plug-In . SVG Version: 6.00 Build 0)  -->
<svg version="1.1" id="Layer_1" xmlns="http://www.w3.org/2000/svg" xmlns:xlink="http://www.w3.org/1999/xlink" x="0px" y="0px"
	 viewBox="0 0 396.8 396.8" style="enable-background:new 0 0 396.8 396.8;" xml:space="preserve">
<style type="text/css">
	.st0{fill:#333333;}
	.st1{fill:#F9BA48;}
</style>
<g>
	<rect x="224" y="153.6" class="st0" width="12.8" height="19.2"/>
	<path class="st0" d="M134.4,44.8c-19,0-34.8,13.9-37.8,32H40.1C18,76.8,0,94.8,0,116.9v52.7C0,182,10,192,22.4,192
		c3.5,0,6.7-0.9,9.6-2.2v95c0,12.4,10,22.4,22.4,22.4c6.3,0,11.9-2.6,16-6.8c4.1,4.2,9.7,6.8,16,6.8c3.4,0,6.7-0.9,9.6-2.2v24.6
		c0,12.4,10,22.4,22.4,22.4c6.3,0,11.9-2.6,16-6.8c4.1,4.2,9.7,6.8,16,6.8c12.4,0,22.4-10,22.4-22.4H160c0,5.3-4.3,9.6-9.6,9.6
		s-9.6-4.3-9.6-9.6v-86.4H128v86.4c0,5.3-4.3,9.6-9.6,9.6c-5.3,0-9.6-4.3-9.6-9.6v-176H96v60.8c0,5.3-4.3,9.6-9.6,9.6
		s-9.6-4.3-9.6-9.6v-52.7c0-15,12.2-27.3,27.3-27.3h60.7v-12.8h-55.9v-9.9c6.8,6.1,15.8,9.9,25.6,9.9c21.2,0,38.4-17.2,38.4-38.4
		C172.8,62,155.6,44.8,134.4,44.8L134.4,44.8z M86.4,236.8c3.4,0,6.7-0.9,9.6-2.2v50.2c0,5.3-4.3,9.6-9.6,9.6s-9.6-4.3-9.6-9.6
		v-50.2C79.7,235.9,82.9,236.8,86.4,236.8L86.4,236.8z M64,161.7v123.1c0,5.3-4.3,9.6-9.6,9.6c-5.3,0-9.6-4.3-9.6-9.6v-176H32v60.8
		c0,5.3-4.3,9.6-9.6,9.6c-5.3,0-9.6-4.3-9.6-9.6v-52.7c0-15,12.2-27.3,27.3-27.3h56.5c1.2,7.3,4.5,13.9,9.3,19.2H96v13.6
		C77.8,126.2,64,142.3,64,161.7L64,161.7z M134.4,108.8c-14.1,0-25.6-11.5-25.6-25.6c0-14.1,11.5-25.6,25.6-25.6
		c14.1,0,25.6,11.5,25.6,25.6C160,97.3,148.5,108.8,134.4,108.8L134.4,108.8z M134.4,108.8"/>
	<rect x="160" y="153.6" class="st0" width="12.8" height="19.2"/>
	<path class="st0" d="M108.8,38.4C108.8,17.2,91.6,0,70.4,0C49.2,0,32,17.2,32,38.4c0,21.2,17.2,38.4,38.4,38.4
		C91.6,76.8,108.8,59.6,108.8,38.4L108.8,38.4z M70.4,64c-14.1,0-25.6-11.5-25.6-25.6c0-14.1,11.5-25.6,25.6-25.6
		C84.5,12.8,96,24.3,96,38.4C96,52.5,84.5,64,70.4,64L70.4,64z M70.4,64"/>
	<path class="st0" d="M364.8,38.4c0-21.2-17.2-38.4-38.4-38.4C305.2,0,288,17.2,288,38.4c0,21.2,17.2,38.4,38.4,38.4
		C347.6,76.8,364.8,59.6,364.8,38.4L364.8,38.4z M326.4,64c-14.1,0-25.6-11.5-25.6-25.6c0-14.1,11.5-25.6,25.6-25.6
		c14.1,0,25.6,11.5,25.6,25.6C352,52.5,340.5,64,326.4,64L326.4,64z M326.4,64"/>
	<path class="st0" d="M356.7,76.8h-56.5c-3.1-18.1-18.8-32-37.8-32C241.2,44.8,224,62,224,83.2c0,21.2,17.2,38.4,38.4,38.4
		c9.8,0,18.8-3.8,25.6-9.9v9.9h-55.9v12.8h60.7c15,0,27.3,12.2,27.3,27.3v52.7c0,5.3-4.3,9.6-9.6,9.6c-5.3,0-9.6-4.3-9.6-9.6v-60.8
		H288v176c0,5.3-4.3,9.6-9.6,9.6c-5.3,0-9.6-4.3-9.6-9.6v-86.4H256v86.4c0,5.3-4.3,9.6-9.6,9.6c-5.3,0-9.6-4.3-9.6-9.6H224
		c0,12.4,10,22.4,22.4,22.4c6.3,0,11.9-2.6,16-6.8c4.1,4.2,9.7,6.8,16,6.8c12.4,0,22.4-10,22.4-22.4V305c2.9,1.4,6.1,2.2,9.6,2.2
		c6.3,0,11.9-2.6,16-6.8c4.1,4.2,9.7,6.8,16,6.8c12.4,0,22.4-10,22.4-22.4v-95c2.9,1.4,6.1,2.2,9.6,2.2c12.4,0,22.4-10,22.4-22.4
		v-52.7C396.8,94.8,378.8,76.8,356.7,76.8L356.7,76.8z M262.4,108.8c-14.1,0-25.6-11.5-25.6-25.6c0-14.1,11.5-25.6,25.6-25.6
		c14.1,0,25.6,11.5,25.6,25.6C288,97.3,276.5,108.8,262.4,108.8L262.4,108.8z M310.4,294.4c-5.3,0-9.6-4.3-9.6-9.6v-50.2
		c2.9,1.4,6.1,2.2,9.6,2.2c3.5,0,6.7-0.9,9.6-2.2v50.2C320,290.1,315.7,294.4,310.4,294.4L310.4,294.4z M384,169.6
		c0,5.3-4.3,9.6-9.6,9.6c-5.3,0-9.6-4.3-9.6-9.6v-60.8H352v176c0,5.3-4.3,9.6-9.6,9.6c-5.3,0-9.6-4.3-9.6-9.6V161.7
		c0-19.3-13.8-35.5-32-39.2v-13.6h-9.9c4.7-5.3,8-11.9,9.3-19.2h56.5c15,0,27.3,12.2,27.3,27.3L384,169.6L384,169.6z M384,169.6"/>
	<path class="st1" d="M236.8,128c0-21.2-17.2-38.4-38.4-38.4c-21.2,0-38.4,17.2-38.4,38.4c0,21.2,17.2,38.4,38.4,38.4
		C219.6,166.4,236.8,149.2,236.8,128L236.8,128z M236.8,128"/>
	<path class="st1" d="M228.7,166.4h-60.7c-22.1,0-40.1,18-40.1,40.1v52.7c0,12.4,10,22.4,22.4,22.4c3.5,0,6.7-0.9,9.6-2.2v95
		c0,12.4,10,22.4,22.4,22.4c6.3,0,11.9-2.6,16-6.8c4.1,4.2,9.7,6.8,16,6.8c12.4,0,22.4-10,22.4-22.4v-95c2.9,1.4,6.1,2.2,9.6,2.2
		c12.4,0,22.4-10.1,22.4-22.4v-52.7C268.8,184.4,250.8,166.4,228.7,166.4L228.7,166.4z M228.7,166.4"/>
</g>
</svg>
