<?xml version="1.0" encoding="utf-8"?>
<!-- Generator: Adobe Illustrator 19.0.0, SVG Export Plug-In . SVG Version: 6.00 Build 0)  -->
<svg version="1.1" id="Layer_1" xmlns="http://www.w3.org/2000/svg" xmlns:xlink="http://www.w3.org/1999/xlink" x="0px" y="0px"
	 viewBox="0 0 20.8 20.8" style="enable-background:new 0 0 20.8 20.8;" xml:space="preserve">
<style type="text/css">
	.st0{fill:#FFFFFF;}
</style>
<g>
	<path class="st0" d="M19.7,0H1.1C0.5,0,0,0.5,0,1.1v18.5c0,0.6,0.5,1.1,1.1,1.1h10v-8.1H8.4V9.6h2.7V7.3c0-2.7,1.6-4.1,4-4.1
		c1.1,0,2.1,0.1,2.4,0.1v2.8l-1.7,0c-1.3,0-1.6,0.6-1.6,1.5v2h3.1l-0.4,3.1h-2.7v8.1h5.3c0.6,0,1.1-0.5,1.1-1.1V1.1
		C20.8,0.5,20.3,0,19.7,0L19.7,0z M19.7,0"/>
</g>
</svg>
