<?xml version="1.0" encoding="utf-8"?>
<!-- Generator: Adobe Illustrator 19.0.0, SVG Export Plug-In . SVG Version: 6.00 Build 0)  -->
<svg version="1.1" id="Layer_1" xmlns="http://www.w3.org/2000/svg" xmlns:xlink="http://www.w3.org/1999/xlink" x="0px" y="0px"
	 viewBox="0 0 409.6 409.6" style="enable-background:new 0 0 409.6 409.6;" xml:space="preserve">
<style type="text/css">
	.st0{fill:#FFFFFF;}
</style>
<g>
	<path class="st0" d="M204.8,0C91.7,0,0,91.7,0,204.8c0,113.1,91.7,204.8,204.8,204.8c113.1,0,204.8-91.7,204.8-204.8
		C409.6,91.7,317.9,0,204.8,0L204.8,0z M275.6,215.7l-102.4,64c-2.1,1.3-4.4,1.9-6.8,1.9c-2.1,0-4.3-0.5-6.2-1.6
		c-4.1-2.3-6.6-6.5-6.6-11.2v-128c0-4.7,2.5-8.9,6.6-11.2c4.1-2.3,9-2.1,13,0.3l102.4,64c3.7,2.3,6,6.4,6,10.9
		C281.6,209.2,279.3,213.3,275.6,215.7L275.6,215.7z M275.6,215.7"/>
</g>
</svg>
