<?xml version="1.0" encoding="utf-8"?>
<!-- Generator: Adobe Illustrator 19.0.0, SVG Export Plug-In . SVG Version: 6.00 Build 0)  -->
<svg version="1.1" id="Layer_1" xmlns="http://www.w3.org/2000/svg" xmlns:xlink="http://www.w3.org/1999/xlink" x="0px" y="0px"
	 viewBox="-107 192.4 396.2 409.6" style="enable-background:new -107 192.4 396.2 409.6;" xml:space="preserve">
<style type="text/css">
	.st0{fill:#FFFFFF;}
</style>
<g>
	<path class="st0" d="M-58.7,404.7c0.1-3.2,0.4-12.9,7.7-15.7c7.2-2.7,14.3,4.3,15.6,5.8c2.2,2.4,2.1,6-0.3,8.2
		c-2.3,2.2-6,2.1-8.2-0.3c-0.7-0.8-1.8-1.6-2.6-2.1c-0.2,0.9-0.4,2.3-0.5,4.4c-0.4,15,11.2,19.8,11.7,20c2.1,0.8,3.5,2.7,3.7,5
		c3.5,41.2,35.9,54.5,51,54.5c15.2,0,47.6-13.3,51-54.5c0.2-2.2,1.7-4.2,3.8-5c0.4-0.2,12.1-5,11.6-20c-0.1-2.2-0.3-3.6-0.5-4.4
		c-0.9,0.5-1.9,1.4-2.6,2.2c-2.2,2.3-5.9,2.4-8.2,0.2s-2.5-5.9-0.3-8.2c1.3-1.4,8.4-8.5,15.6-5.8c7.3,2.8,7.6,12.5,7.7,15.7
		c0.5,17.6-10.1,26.2-15.8,29.5c-5.2,42.7-39.2,61.9-62.3,61.9c-23.2,0-57.2-19.2-62.3-61.9C-48.6,430.9-59.2,422.4-58.7,404.7
		L-58.7,404.7z M19.4,524.4c1.8,0,16.5-3.6,16.5-18.4H2.8C2.8,520.7,17.5,524.4,19.4,524.4L19.4,524.4z M30,526.5
		c-1.5-0.3-3.1,0-4.4,0.9c-2.7,1.8-5.1,2.6-6.2,2.9c-1.1-0.3-3.6-1-6.2-2.9c-1.3-0.9-2.8-1.2-4.4-0.9c-1.5,0.3-2.9,1.2-3.7,2.4
		c-2.4,3.5-13.8,62.6-13.9,63.2c-0.6,3.2,1.6,6.2,4.7,6.8c3.2,0.6,6.2-1.6,6.8-4.7c1.9-10.9,8.1-40.3,11.1-53.4
		c2.8,1,4.7,1.2,5.1,1.3c0.4,0,0.8,0,1.3,0c0.3,0,2.3-0.3,5.1-1.3c3,13.2,9.1,42.5,11.1,53.4c0.5,2.8,3,4.8,5.7,4.8
		c0.3,0,0.7,0,1-0.1c3.2-0.6,5.3-3.6,4.7-6.8c-0.1-0.6-11.5-59.7-13.9-63.2C32.8,527.7,31.5,526.8,30,526.5L30,526.5z M-52.9,574.8
		c-3.2,0-5.8,2.6-5.8,5.8v12.5c0,3.2,2.6,5.8,5.8,5.8s5.8-2.6,5.8-5.8v-12.5C-47.1,577.4-49.7,574.8-52.9,574.8L-52.9,574.8z
		 M-31.7,355.3c-5.3,6.4-8.8,14.5-9.9,23.3c-0.4,3.2,1.8,6.1,5,6.6c0.3,0,0.5,0.1,0.8,0.1c2.9,0,5.4-2.1,5.8-5.1
		c0.9-6.6,3.4-12.6,7.4-17.4c2.1-2.5,1.7-6.2-0.8-8.2C-25.9,352.4-29.6,352.8-31.7,355.3L-31.7,355.3z M65.4,385.1
		c0,3.2,2.6,5.8,5.8,5.8s5.8-2.6,5.8-5.8c0-33.5-25-42.7-38.3-42.9h-53.1c-3.2,0-5.8,2.6-5.8,5.8c0,3.2,2.6,5.8,5.8,5.8h53.1
		C41.4,353.9,65.4,355.4,65.4,385.1L65.4,385.1z M84.8,372.1c0.2,0,0.5,0,0.7,0c3.2-0.4,5.5-3.3,5.1-6.5
		C86.7,332.2,58,323.7,43.3,324H-6.9c-3.2,0-5.8,2.6-5.8,5.8c0,3.2,2.6,5.8,5.8,5.8h50.2c1.3,0.1,32,0.1,35.7,31.3
		C79.4,369.9,81.9,372.1,84.8,372.1L84.8,372.1z M283.3,192.4h-383.4c-3.2,0-5.8,2.6-5.8,5.8v304.1c0,3.2,2.6,5.8,5.8,5.8h35.4
		c-20.2,15.1-42.3,41.6-42.3,85.1c0,3.2,2.6,5.8,5.8,5.8c3.2,0,5.8-2.6,5.8-5.8c0-58.8,43.9-82.2,60.8-89.1l0.8,14.3
		c0.1,1.9,1.2,3.7,2.8,4.7c0.9,0.5,2,0.8,3,0.8c0.8,0,1.7-0.2,2.5-0.6l19.4-9.1c2.9-1.4,4.2-4.8,2.8-7.8c-1.4-2.9-4.9-4.2-7.8-2.8
		l-11.6,5.5l-1.3-23c-0.2-3.2-2.9-5.7-6.1-5.5s-5.7,2.9-5.5,6.1l0.3,5.1c-2.5,1-6.2,2.4-10.4,4.6h-0.1h-48.4V204.1h371.7v292.4
		H175.1c18.6-39.6,14.7-87.1,14.5-89.6c-0.3-3-2.8-5.3-5.8-5.3H155c-3.2,0-5.8,2.6-5.8,5.8c0,29.8-8,51.5-23.7,64.4
		c-18.2,15-42.5,14.4-52.3,13.4c-0.6-2.5-2.6-4.4-5.3-4.6c-3.2-0.2-6,2.3-6.1,5.5l-1.3,23l-10.7-5c-2.9-1.4-6.4-0.1-7.8,2.8
		c-1.4,2.9-0.1,6.4,2.8,7.8l18.5,8.7c0.8,0.4,1.6,0.6,2.5,0.6c1,0,2.1-0.3,3-0.8c1.7-1,2.7-2.8,2.8-4.7l1.2-21.5
		c12.1,1.2,38.8,1.3,60-16.1c17.5-14.3,26.9-37.1,27.9-67.6h17.4c0.6,16.9-0.1,69.8-28.4,100.7c-14.3,15.6-33.8,23.5-58.1,23.5
		c-3.2,0-5.8,2.6-5.8,5.8c0,3.2,2.6,5.8,5.8,5.8c27.7,0,50.2-9.2,66.8-27.3c3.9-4.3,7.3-8.9,10.3-13.7h28.6v88
		c0,3.2,2.6,5.8,5.8,5.8c3.2,0,5.8-2.6,5.8-5.8v-88h14.6v88c0,3.2,2.6,5.8,5.8,5.8c3.2,0,5.8-2.6,5.8-5.8v-88h48.1
		c3.2,0,5.8-2.6,5.8-5.8V198.2C289.2,195,286.6,192.4,283.3,192.4L283.3,192.4z M91.6,556.5c-3.2,0-5.8,2.6-5.8,5.8v30.8
		c0,3.2,2.6,5.8,5.8,5.8s5.8-2.6,5.8-5.8v-30.7C97.4,559.1,94.8,556.5,91.6,556.5L91.6,556.5z M67.7,240.3c3.2,0,5.8-2.6,5.8-5.8
		c0-3.2-2.6-5.8-5.8-5.8h-104c-3.2,0-5.8,2.6-5.8,5.8c0,3.2,2.6,5.8,5.8,5.8H67.7z M-67,257.5c0,3.2,2.6,5.8,5.8,5.8H67.6
		c3.2,0,5.8-2.6,5.8-5.8s-2.6-5.8-5.8-5.8H-61.2C-64.4,251.7-67,254.3-67,257.5L-67,257.5z M-61.2,286.4H67.6c3.2,0,5.8-2.6,5.8-5.8
		c0-3.2-2.6-5.8-5.8-5.8H-61.2c-3.2,0-5.8,2.6-5.8,5.8C-67,283.8-64.4,286.4-61.2,286.4L-61.2,286.4z M-61.2,309.5H67.6
		c3.2,0,5.8-2.6,5.8-5.8c0-3.2-2.6-5.8-5.8-5.8H-61.2c-3.2,0-5.8,2.6-5.8,5.8C-67,306.9-64.4,309.5-61.2,309.5L-61.2,309.5z
		 M264.3,245c2.5-2.1,2.8-5.8,0.7-8.2c-2.1-2.5-5.8-2.8-8.2-0.7l-63.2,53.4l-33.1-34.7c-1.9-2.5-5.5-2.9-8-1.1L112.9,287
		c-2.6,1.9-3.2,5.6-1.3,8.2s5.6,3.2,8.2,1.3l35.1-30l33.3,35c1,1.2,2.4,2,4,2.2c0.2,0,0.4,0,0.6,0c1.4,0,2.7-0.5,3.8-1.4L264.3,245z
		 M162.8,303.9l-1.9,42.3c2.7-0.3,5.2-0.3,6.8-0.3c6.3,0,25.5,0,25.5,18.8v8c0,14.1-11.4,25.5-25.5,25.5s-25.5-11.4-25.5-25.5v-8
		c0-7.3,2.9-11.8,6.9-14.5l2.1-46.8c0.1-3.2,3.1-5.7,6.1-5.6C160.4,298,162.9,300.7,162.8,303.9L162.8,303.9z M167.7,357.6
		c-13.8,0-13.8,3.8-13.8,7.1v8c0,7.6,6.2,13.8,13.8,13.8c7.6,0,13.8-6.2,13.8-13.8v-8C181.5,361.4,181.5,357.6,167.7,357.6
		L167.7,357.6z M20,407.4v29.5h-7.2c-3.2,0-5.8,2.6-5.8,5.8c0,3.2,2.6,5.8,5.8,5.8h13c3.2,0,5.8-2.6,5.8-5.8v-35.3
		c0-3.2-2.6-5.8-5.8-5.8S20,404.2,20,407.4L20,407.4z"/>
</g>
</svg>
