<?xml version="1.0" encoding="utf-8"?>
<!-- Generator: Adobe Illustrator 19.0.0, SVG Export Plug-In . SVG Version: 6.00 Build 0)  -->
<svg version="1.1" id="Í_xBC__xB2_ã_1" xmlns="http://www.w3.org/2000/svg" xmlns:xlink="http://www.w3.org/1999/xlink" x="0px"
	 y="0px" viewBox="-7 166 595.3 461" style="enable-background:new -7 166 595.3 461;" xml:space="preserve">
<style type="text/css">
	.st0{opacity:0.56;}
	.st1{fill:#FFFFFF;}
</style>
<g class="st0">
	<path class="st1" d="M-7,166.9l203,117.2L87.9,346.5L-7,172.9v1.6l94.2,172.4L-7,401.3v0.9l86-49.6l-86,58.2v2.1l94.4-43.1v102.7
		L-7,418.1v0.9l94.4,54.5v50.7l-17.3,10L-7,422.9v1.3l76.4,110.3l-12.8,7.4L-7,505.1v0.9l62.9,36.3L1.5,573.8L-7,563.4v1.2l7.8,9.6
		l-7.8,4.5v0.9l5.8-3.3l-5.8,5.3v1l8-7.6v34.8l-8,4.6v0.9l8-4.6V627h0.8v-16.6l19.4-11.2L34.9,616l-10.4,11h1l9.8-10.4l8.5,10.4h1
		l-9-11l13-13.9L74,616.6L56.3,627h1.5l17.1-9.9L92,627h1.5l-17.9-10.3l32.8-19V627h0.8v-29.7l51.9-30v31.4L139.5,627h0.9l20.6-27
		v17.3l-16.8,9.7h1.5l15.3-8.8v8.8h0.8v-9.3l54.7-31.6l-21.8,31.6l-16.1,9.3h1.5l13.6-7.8l-5.4,7.8h0.9l6-8.7l22.2-12.8V627h0.8v-22
		l7.7-4.5l14.4,26.4h0.9l-14.6-26.8l2.1-1.2l16.2,28h0.9l-16.4-28.4l5.7-3.3l54.8,31.7h1.5l-55.6-32.1l24.1-13.9l61.4-6.3l11,27
		L319.9,627h0.8l11.9-24.4l9.9,24.4h0.8L333,601.7l7.7-15.8l17.9,10.3V627h0.8v-30.4l15.8,9.1V627h0.8v-20.8l34.5,19.9l0.3,0.9h0.8
		l-0.1-0.4l0.6,0.4h1.5l-2.5-1.4l-27.2-86.9l17.1-9.9l22.4,12.9V627h0.8v-84.8l32.8,18.9l15.1,65.9h0.8l-15-65.4l23.4,13.5V627h0.8
		v-51.5l50,28.9L492.9,627h1.5l38.4-22.2l38.4,22.2h2.3L534,604.2l54.4-31.4v-0.9l-55.1,31.8L482,574.2v-16.1l106.3-10.9v-0.8
		L482,557.3v-75.2l43.7-7.7l62.5,36.1v-0.9l-61.4-35.4l61.4-10.8v-0.8l-62.4,11L482,448.3v-86.6l106.3,61.4v-0.9L482,360.9V297l0,0
		c0,0,0,0,0-0.1l0,0l0,0l0,0l0,0l0,0l0,0c0,0,0,0-0.1,0l0,0l0,0l0,0c0,0,0,0-0.1,0l0,0l0,0l0,0c0,0,0,0-0.1,0l0,0l0,0l0,0
		l-55.3,31.9L272.6,240l0,0l0,0l0,0l0,0l0,0l0,0l0,0l0,0l0,0l0,0l0,0l0,0l0,0l0,0l0,0l0,0l-75.5,43.6L-7,166V166.9z M196.7,284.5
		l8,4.6L97.6,341.7L196.7,284.5z M218,584.4l-18.8-34.3l0.7-0.9l19.8,34.3L218,584.4z M220.1,584.1l0.1,0.2l-0.7,0.1L220.1,584.1z
		 M97.3,352.1L199.6,293l-90.4,65.9L97.3,352.1z M108.5,359.4l-10.8,4.9l-5.2-9.5l4.1-2.4L108.5,359.4z M92.1,354.2l-3.4-6.2
		l7.1,4.1L92.1,354.2z M91.5,354.6l-3.3,1.9v-8L91.5,354.6z M91.8,355.2l5.1,9.4l-8.8,4v-11.3L91.8,355.2z M108.4,360.2v23.9L98,365
		L108.4,360.2z M324.7,388l25.7-14.8l7.6,4.4L324.7,388z M454,348.4l-72.6,41.9l-21.6-12.5L454,348.4z M358.9,378.1l21.8,12.6
		l-28.1,16.2l-30.1-17.4L358.9,378.1z M321.9,544.3v-19l6-3.5l22.9-3.7l-7.2,13.7L321.9,544.3z M343,533l-21,39.7v-27.6L343,533z
		 M162.5,482.8l16.6,9.6l25.4,47.8l-13.4-7.8L162.5,482.8z M189.8,531.7l-1-0.6l-11.6-21.3L189.8,531.7z M423.5,447.8l-11.8-6.8
		l11.8-24.2V447.8z M424.2,418.5l7.9,34.3l-7.9-4.6V418.5z M411,440.6l-15.2-8.8l27.2-15.7L411,440.6z M327.7,521.1l-5.8,0.9v-38.9
		l35.8,20.7L327.7,521.1z M358.1,504.4l-6.8,12.9l-21.5,3.5L358.1,504.4z M251.5,533.4l-15.9-9.2l78.8-45.5l6.7,3.9v39.5
		L251.5,533.4z M325.9,522.1l-3.9,2.3v-1.6L325.9,522.1z M205.1,507.5v32.2l-24.8-46.5L205.1,507.5z M179.7,491.9l-6.7-12.6
		l32.2-8.2v35.5L179.7,491.9z M205.9,507v-36.1l65.9-16.8l41.9,24.2l-78.8,45.5L205.9,507z M314.4,477.9l-41.6-24l48.3-12.3V474
		L314.4,477.9z M321.2,474.9v6.9l-6-3.5L321.2,474.9z M321.9,482.2v-7.8l22.9-13.2l13.8,42l-0.2,0.1L321.9,482.2z M321.9,473.6
		v-32.1l15.1-3.8l7.5,22.9L321.9,473.6z M337.7,437.4l46-11.7l10.5,6.1l-49,28.3L337.7,437.4z M395,431.4l-10.2-5.9l36.5-9.3
		L395,431.4z M337.5,436.7l-5.6-17l20.7-12l30.2,17.4L337.5,436.7z M321.9,424.6v-32.9l9.1,27.6L321.9,424.6z M331.3,420.1l5.5,16.8
		l-14.9,3.8v-15.2L331.3,420.1z M321.2,440.9L275,452.6l46.2-26.7V440.9z M271.7,452.8l-29.6-17.1l18.3-10.6L271.7,452.8z
		 M240.2,435.9l-34.3,19.8v-39.6L240.2,435.9z M241,436.4l29.9,17.3l-65,16.5v-13.5L241,436.4z M205.1,470.3l-32.5,8.3l-1.1-2.1
		l33.7-19.4L205.1,470.3L205.1,470.3z M171.9,478.8l-7.9,2l6.8-3.9L171.9,478.8z M172.2,479.5l6.2,11.7l-16-9.2L172.2,479.5z
		 M190.6,533l7.1,12.3l-0.8,0.5l-7.3-13.3L190.6,533z M198.7,545.6l5.4-3.1l-4.1,5.3L198.7,545.6z M198.3,544.9l-6.4-11.1l12.9,7.4
		L198.3,544.9z M205.9,507.9l28.3,16.3l-28.3,16.3V507.9z M234.9,524.7l15.4,8.9l-42.9,6.9L234.9,524.7z M321.2,522.9v1.9L279,549.2
		L252.6,534L321.2,522.9z M351.8,517.9l6.9-1.1v6.2l-13.9,8L351.8,517.9z M352.2,517.1l6.5-12.2v11.2L352.2,517.1z M359.4,504.8
		l15.1,8.7l-15.1,2.4V504.8z M359.4,503.9v-0.2l22.6-4l-6.6,13.4L359.4,503.9z M359.3,503l-13.9-42.1l49.5-28.6l15.6,9l-28.2,57.6
		L359.3,503z M411.3,441.7l12.2,7v43l-40.1,7L411.3,441.7z M424.2,449.1l8.1,4.7l8,34.9l-16.1,2.8V449.1z M433,453.3l-8.6-37.4
		l32.4,18.7V467L433,453.3z M383.8,424.9l-30.5-17.6l28.1-16.2l41.4,23.9L383.8,424.9z M351.9,407.3L331.7,419l-9.5-28.8
		L351.9,407.3z M321.2,425.1l-47.3,27.3l47.3-61.9V425.1z M272.8,452.5V418l47.3-27.3L272.8,452.5z M272.1,451.7l-11-27l11-6.3
		V451.7z M241.4,435.2l-35.5-20.5V291.1l54.3,133.4L241.4,435.2z M205.1,415.7v40.5l-34,19.6l-61.4-115.2L205.1,415.7z M109.2,361.1
		l61.3,115.1l-8.9,5.1l-52.4-95.9C109.2,385.4,109.2,361.1,109.2,361.1z M161,481.7l-28.9,16.7l-22.9-13.2V387L161,481.7z
		 M159.5,483.4l-18.7,19.9l-7.9-4.6L159.5,483.4z M131.3,498.8l-22.1,12.8V486L131.3,498.8z M132.1,499.2l8.1,4.7l-31,33v-24.5
		L132.1,499.2z M141.4,503.7l19.7-21v32.4L141.4,503.7z M161.8,483.3l25.8,47.2l-25.8-14.9V483.3z M188.3,531.7l7.9,14.4L161.8,566
		v-49.6L188.3,531.7z M198.1,546l1.4,2.5l-0.7,0.9l-1.6-2.9L198.1,546z M200.4,548.5l5.3-7l45.7-7.4l26.8,15.5L220.3,583
		L200.4,548.5z M321.2,525.7v19l-25,14.4l-16.5-9.5L321.2,525.7z M321.2,545.6v28l-24.3-14L321.2,545.6z M344.2,532.3l14.5-8.4v23.6
		l-3.3,6.7l-32.9,19L344.2,532.3z M358.7,549.3v3.1l-2.1,1.2L358.7,549.3z M359.4,547.7l15.8-32.4v27.5l-15.8,9.1V547.7z M359.4,546
		v-22.5l15.3-8.9L359.4,546z M359.4,522.6v-5.9l14.3-2.3L359.4,522.6z M376.2,513.5l6.8-14l40.5-7.1V515L401,527.9L376.2,513.5z
		 M424.2,492.3l16.3-2.9l3.2,13.9l-19.5,11.2V492.3z M456.8,496.6V557l-12.2-53.3L456.8,496.6z M444.4,502.9l-3.1-13.6l15.5-2.7v9.1
		L444.4,502.9z M441.1,488.6l-7.9-34.3l23.6,13.6v17.9L441.1,488.6z M457.5,467.5v-32.4l17,9.8l6.6,36.2L457.5,467.5z M457.5,434.2
		v-83l16.8,92.8L457.5,434.2z M456.8,433.8L424.3,415l32.5-66.4V433.8z M423.7,414.6l-41.5-23.9l74.1-42.8L423.7,414.6z M359,377.3
		l-7.9-4.5l75-43.3l30.2,17.4L359,377.3z M321.8,388.8l-13.1-39.7l40.9,23.6L321.8,388.8z M321.1,389.2l-48.3,27.9v-88.7l34.9,20.1
		L321.1,389.2z M272.8,327.6v-84.9l34.5,104.8L272.8,327.6z M272.1,328v89.5l-11.3,6.5l-54.5-134L272.1,328z M205.1,414.3l-95.3-55
		l95.3-69.4V414.3z M195.6,294.4l-99.1,57.2l-8-4.6L195.6,294.4z M87.4,347.7v9.2L-4,409.7L87.4,347.7z M-5.8,411.6l93.1-53.8V369
		L-5.8,411.6z M88.1,473V369.5l9.2-4.2l11.1,20.3v99.1L88.1,473z M88.1,473.9l20.3,11.7V512l-20.3,11.7
		C88.1,523.7,88.1,473.9,88.1,473.9z M108.4,512.9v24.8l-20.3,21.6v-34.7L108.4,512.9z M87.4,525v34l-16.8-24.3L87.4,525z
		 M69.9,535.1l16.6,24l-29.1-16.8L69.9,535.1z M56.7,542.8l30,17.3L3.4,573.6L56.7,542.8z M2.5,574.4L85.8,561l-53.3,30.8L2.5,574.4
		z M85.7,561.9l-36.9,39.3l-15.6-9L85.7,561.9z M21.4,598.2L3,575.6l28.7,16.6L21.4,598.2z M1.8,609.5v-34.2l19,23.2L1.8,609.5z
		 M35.4,615.4l-13.6-16.7l10.6-6.1l15.8,9.1L35.4,615.4z M74.9,616.2l-25.4-14.7l38.6-41l20.4-21.7v58L74.9,616.2z M109.2,596.4V538
		l31.7-33.7l20.2,11.7v50.4L109.2,596.4z M161.8,566.9l34.7-20.1l1.8,3.2l-36.5,47.7V566.9z M161.8,616.8V599l36.9-48.3l18.6,34
		L161.8,616.8z M220.6,585l0.9,1.6l-2.5-1.5L220.6,585z M196.3,616.8l21.2-30.7v18.5L196.3,616.8z M218.2,604.2v-17.8l7.4,13.5
		L218.2,604.2z M226.2,599.5l-7.4-13.6l3.5,2l6,10.4L226.2,599.5z M229,598l-5.4-9.3l10.7,6.2L229,598z M235.1,594.4l-12.2-7
		l-1.4-2.5l36.6-3.8L235.1,594.4z M221,584.2l-0.3-0.5l58.2-33.6l16.5,9.5l-35.8,20.7L221,584.2z M261.5,580.1l34.7-20l24.2,14
		L261.5,580.1z M322.3,574.2l32.5-18.8l-14.3,29.3L322.3,574.2z M332.7,600.7l-10.4-25.6l17.9,10.3L332.7,600.7z M341.2,585.1
		l14.8-30.3l2.7-1.6v42L341.2,585.1z M359.4,595.7v-42.9l15.8-9.1v61.2L359.4,595.7z M410.2,625L376,605.3v-62.1l7.2-4.2L410.2,625z
		 M376,542.3v-26.2l7,22.2L376,542.3z M383.7,537.9l-7.4-23.4l24,13.8L383.7,537.9z M401.8,528.3l21.7-12.5v25L401.8,528.3z
		 M424.2,541.3v-25.9l19.7-11.4l12.9,56L424.2,541.3z M481.2,573.7l-22.9-13.2l22.9-2.4V573.7z M481.2,557.4l-23.5,2.4l23.5-75.6
		V557.4z M457.5,557.8v-61.7l23.4-13.5L457.5,557.8z M457.5,495.3v-8.8l22-3.9L457.5,495.3z M457.5,485.7v-17.3l23,13.3L457.5,485.7
		z M524.7,473.9l-42.7,7.5v-32.2L524.7,473.9z M481.2,448.8v28.9l-5.9-32.3L481.2,448.8z M481.2,361.3v86.6l-6-3.5l-17.5-96.7
		L481.2,361.3z M481.2,360.4l-23.6-13.6l23.6-48.2V360.4z M480.7,297.9L457,346.5L426.8,329L480.7,297.9z M425.3,329l-75,43.3
		l-42-24.3l-35.2-106.8L425.3,329z M272.1,327.1l-65.9-38l65.9-48V327.1z M266.5,244.2l-61,44.5l-8-4.6L266.5,244.2z"/>
</g>
</svg>
