<?xml version="1.0" encoding="utf-8"?>
<!-- Generator: Adobe Illustrator 19.0.0, SVG Export Plug-In . SVG Version: 6.00 Build 0)  -->
<svg version="1.1" id="Layer_1" xmlns="http://www.w3.org/2000/svg" xmlns:xlink="http://www.w3.org/1999/xlink" x="0px" y="0px"
	 viewBox="0 0 190.6 34" style="enable-background:new 0 0 190.6 34;" xml:space="preserve">
<style type="text/css">
	.st0{fill:#FFFFFF;}
	.st1{fill:#FFFFFF;stroke:#FFFFFF;stroke-width:0.5;stroke-miterlimit:10;}
</style>
<path class="st0" d="M17.8,32.5c0.4,0,0.7-0.1,1-0.2c0.3-0.1,0.6-0.3,0.8-0.5c0.2-0.2,0.4-0.5,0.5-0.8c0.1-0.3,0.2-0.6,0.2-1v0
	c0-0.4-0.1-0.7-0.2-1c-0.1-0.3-0.3-0.6-0.5-0.8c-0.2-0.2-0.5-0.4-0.8-0.6c-0.3-0.1-0.6-0.2-1-0.2c-0.4,0-0.7,0.1-1,0.2
	c-0.3,0.1-0.6,0.3-0.8,0.6c-0.2,0.2-0.4,0.5-0.5,0.8c-0.1,0.3-0.2,0.6-0.2,1v0c0,0.4,0.1,0.7,0.2,1c0.1,0.3,0.3,0.6,0.5,0.8
	c0.2,0.2,0.5,0.4,0.8,0.6C17.1,32.5,17.4,32.5,17.8,32.5 M17.8,33.7c-0.6,0-1.1-0.1-1.5-0.3c-0.5-0.2-0.9-0.5-1.2-0.8
	c-0.3-0.3-0.6-0.7-0.8-1.2C14.1,31,14,30.5,14,30v0c0-0.5,0.1-1,0.3-1.5c0.2-0.5,0.5-0.9,0.8-1.2c0.3-0.3,0.7-0.6,1.2-0.8
	c0.5-0.2,1-0.3,1.5-0.3c0.6,0,1.1,0.1,1.5,0.3c0.5,0.2,0.9,0.5,1.2,0.8c0.3,0.3,0.6,0.7,0.8,1.2s0.3,0.9,0.3,1.5v0
	c0,0.5-0.1,1-0.3,1.5c-0.2,0.5-0.5,0.9-0.8,1.2c-0.3,0.3-0.7,0.6-1.2,0.8C18.9,33.6,18.3,33.7,17.8,33.7"/>
<path class="st0" d="M33.5,28.8c0-0.4-0.1-0.8-0.4-1c-0.3-0.2-0.7-0.3-1.1-0.3h-1.5v2.6h1.5c0.5,0,0.9-0.1,1.2-0.4
	C33.3,29.5,33.5,29.2,33.5,28.8L33.5,28.8z M34.8,28.7L34.8,28.7c0,0.4-0.1,0.8-0.2,1.1c-0.2,0.3-0.4,0.6-0.6,0.8
	c-0.3,0.2-0.6,0.4-0.9,0.5c-0.4,0.1-0.7,0.2-1.1,0.2h-1.5V33c0,0.4-0.3,0.6-0.6,0.6h-0.6V33v-6c0-0.4,0.3-0.6,0.6-0.6H32
	c0.4,0,0.8,0.1,1.2,0.2c0.3,0.1,0.6,0.3,0.9,0.5c0.2,0.2,0.4,0.5,0.6,0.8C34.7,28,34.8,28.4,34.8,28.7 M33.1,27.8
	c-0.3-0.2-0.7-0.3-1.1-0.3h-1.5v2.6h1.5c0.5,0,0.9-0.1,1.2-0.4c0.3-0.2,0.4-0.6,0.4-0.9v0C33.5,28.3,33.3,28,33.1,27.8 M33.5,28.8
	L33.5,28.8c0,0.4-0.1,0.7-0.4,1c-0.3,0.2-0.7,0.4-1.2,0.4h-1.5v-2.6h1.5c0.5,0,0.9,0.1,1.1,0.3C33.3,28,33.5,28.3,33.5,28.8"/>
<path class="st0" d="M13.9,33.6h-1.2h0h0c-0.2,0-0.4-0.1-0.5-0.3l0,0l-1.6-2.3H8.9V33c0,0.4-0.3,0.6-0.6,0.6H7.6V33v-6
	c0-0.4,0.3-0.6,0.6-0.6h2.6c0.5,0,0.9,0.1,1.2,0.2c0.4,0.1,0.7,0.3,0.9,0.5c0.2,0.2,0.3,0.4,0.4,0.7c0.1,0.3,0.2,0.6,0.2,0.9v0
	c0,0.6-0.2,1.1-0.5,1.4c-0.3,0.4-0.7,0.6-1.2,0.8l1.1,1.6l0.3,0.4L13.9,33.6z M12.3,28.7L12.3,28.7c0-0.4-0.1-0.7-0.4-0.9
	c-0.3-0.2-0.6-0.3-1.1-0.3H8.9v2.5h1.9c0.5,0,0.8-0.1,1.1-0.3C12.2,29.4,12.3,29.1,12.3,28.7 M12.3,28.7L12.3,28.7
	c0-0.4-0.1-0.7-0.4-0.9c-0.3-0.2-0.6-0.3-1.1-0.3H8.9v2.5h1.9c0.5,0,0.8-0.1,1.1-0.3C12.2,29.4,12.3,29.1,12.3,28.7 M11.9,29.6
	c-0.3,0.2-0.6,0.3-1.1,0.3H8.9v-2.5h1.9c0.5,0,0.9,0.1,1.1,0.3c0.3,0.2,0.4,0.5,0.4,0.9v0C12.3,29.1,12.2,29.4,11.9,29.6"/>
<path class="st0" d="M19.9,0.5l-4.8,0c0,0-1.3,0-2,0.6c-0.6,0.5-1.1,1.6-1.1,1.6L2.2,24.5h4.1L7.8,21c2-0.1,4.8-0.7,7.5-2.1
	c1.1-0.6,1.9-1.1,2.4-1.6l-0.4-0.9c-0.6,0.1-1.5,0.3-2.4,0.5c-1.8,0.4-3.9,0.6-5.5,0.3L14.3,6l4.6,12.2l2.5,6.3h7.8L19.9,0.5z"/>
<path class="st0" d="M29.8,9.2c0,0-0.3,0-0.3,0c-2.3,0-3.7,0.7-3.7,2.5c0,0.6,0.1,1.1,0.3,1.7l4.3,11.2h2.8V8l0,0
	C32.6,8.8,31.3,9.1,29.8,9.2"/>
<path class="st0" d="M23.4,26.9v-0.6h-0.6c-0.4,0-0.6,0.3-0.6,0.6v3.6c0,0.5,0.1,1,0.2,1.4c0.1,0.4,0.4,0.7,0.6,1
	c0.3,0.3,0.6,0.5,1,0.6c0.4,0.1,0.8,0.2,1.3,0.2c0.5,0,0.9-0.1,1.3-0.2c0.4-0.1,0.7-0.3,1-0.6c0.3-0.3,0.5-0.6,0.6-1
	c0.2-0.4,0.2-0.9,0.2-1.4v-3.5v-0.6h-0.6c-0.4,0-0.6,0.3-0.6,0.6v3.6c0,0.7-0.2,1.2-0.5,1.5c-0.3,0.3-0.8,0.5-1.3,0.5
	c-0.6,0-1-0.2-1.4-0.5c-0.3-0.4-0.5-0.9-0.5-1.5L23.4,26.9z"/>
<path class="st0" d="M4.4,29.5c-0.4,0-0.6,0.3-0.6,0.6c0,0,0,0.5,0,0.5h0.2h0.8h0.8V32c-0.2,0.2-0.5,0.3-0.8,0.4
	c-0.3,0.1-0.6,0.2-1,0.2c-0.4,0-0.7-0.1-1-0.2c-0.3-0.1-0.6-0.3-0.8-0.5c-0.2-0.2-0.4-0.5-0.5-0.8c-0.1-0.3-0.2-0.7-0.2-1v0
	c0-0.3,0.1-0.7,0.2-1c0.1-0.3,0.3-0.6,0.5-0.8c0.2-0.2,0.5-0.4,0.8-0.6c0.3-0.1,0.6-0.2,0.9-0.2c0.2,0,0.4,0,0.6,0.1
	c0.2,0,0.4,0.1,0.5,0.2c0.1,0.1,0.3,0.1,0.4,0.2c0,0,0,0,0,0c0.1,0.1,0.2,0.1,0.3,0.1c0.2,0,0.3-0.1,0.4-0.2l0.1-0.1l0.4-0.5
	c-0.1-0.1-0.3-0.2-0.4-0.3c0,0-0.1-0.1-0.1-0.1c-0.1,0-0.1-0.1-0.2-0.1c-0.1-0.1-0.3-0.1-0.4-0.2c-0.2-0.1-0.5-0.1-0.7-0.2
	c-0.3,0-0.6-0.1-0.9-0.1c-0.6,0-1.1,0.1-1.5,0.3c-0.5,0.2-0.9,0.5-1.2,0.8c-0.3,0.3-0.6,0.7-0.8,1.2C0.1,29,0,29.4,0,30v0
	c0,0.5,0.1,1,0.3,1.5c0.2,0.5,0.4,0.9,0.8,1.2c0.3,0.3,0.7,0.6,1.2,0.8c0.5,0.2,1,0.3,1.6,0.3c0.3,0,0.6,0,0.9-0.1
	c0.3-0.1,0.6-0.1,0.8-0.2C5.8,33.3,6,33.2,6.2,33c0.2-0.1,0.4-0.3,0.6-0.4v-3.1H4.4z"/>
<polygon class="st0" points="51.2,0.4 54,0.4 56.7,10.7 56.8,10.7 59.9,0.4 62.5,0.4 65.5,10.7 65.6,10.7 68.4,0.4 71,0.4 
	66.9,14.5 64.5,14.5 61.1,3.9 61.1,3.9 57.8,14.5 55.4,14.5 "/>
<path class="st0" d="M73.9,7.4c0,0.8,0.1,1.5,0.3,2.1c0.2,0.6,0.6,1.2,1,1.6c0.4,0.5,0.9,0.8,1.5,1.1c0.6,0.3,1.2,0.4,2,0.4
	c0.7,0,1.4-0.1,2-0.4c0.6-0.3,1.1-0.6,1.5-1.1c0.4-0.5,0.8-1,1-1.6c0.2-0.6,0.3-1.3,0.3-2.1c0-0.7-0.1-1.4-0.3-2
	c-0.2-0.6-0.6-1.2-1-1.6s-0.9-0.8-1.5-1.1c-0.6-0.3-1.3-0.4-2-0.4c-0.7,0-1.4,0.1-2,0.4c-0.6,0.3-1.1,0.6-1.5,1.1
	c-0.4,0.5-0.8,1-1,1.6C74,6,73.9,6.7,73.9,7.4 M71.2,7.4c0-1.1,0.2-2.2,0.6-3.1c0.4-0.9,0.9-1.7,1.6-2.3c0.7-0.6,1.5-1.1,2.4-1.5
	c0.9-0.3,1.9-0.5,3-0.5c1.1,0,2.1,0.2,3.1,0.5c0.9,0.3,1.7,0.8,2.4,1.5c0.7,0.6,1.2,1.4,1.6,2.3c0.4,0.9,0.6,1.9,0.6,3.1
	c0,1.1-0.2,2.1-0.6,3c-0.4,0.9-0.9,1.7-1.6,2.4c-0.7,0.7-1.5,1.2-2.4,1.5c-0.9,0.4-1.9,0.5-3.1,0.5c-1.1,0-2.1-0.2-3-0.5
	c-0.9-0.4-1.7-0.9-2.4-1.5c-0.7-0.7-1.2-1.4-1.6-2.4C71.4,9.5,71.2,8.5,71.2,7.4"/>
<path class="st0" d="M92.9,6.4c0.4,0,0.7,0,1.1-0.1c0.4-0.1,0.7-0.2,1-0.3c0.3-0.1,0.5-0.4,0.7-0.6c0.2-0.3,0.3-0.6,0.3-1
	c0-0.4-0.1-0.7-0.3-0.9C95.5,3.2,95.2,3,95,2.9c-0.3-0.1-0.6-0.2-0.9-0.3c-0.3-0.1-0.7-0.1-1-0.1h-2.3v4H92.9z M88.3,0.4h4.9
	c0.7,0,1.3,0.1,1.9,0.2c0.6,0.1,1.2,0.4,1.7,0.7C97.3,1.6,97.7,2,98,2.5c0.3,0.5,0.4,1.2,0.4,1.9c0,1-0.3,1.9-0.9,2.5
	C97,7.6,96.2,8,95.2,8.2l3.8,6.3h-3l-3.3-6h-1.8v6h-2.5V0.4z"/>
<polygon class="st0" points="100.4,0.4 102.9,0.4 102.9,6.5 103,6.5 108.9,0.4 112.3,0.4 105.7,6.9 112.7,14.5 109.2,14.5 103,7.4 
	102.9,7.4 102.9,14.5 100.4,14.5 "/>
<polygon class="st0" points="113.7,0.4 122.9,0.4 122.9,2.6 116.3,2.6 116.3,6.4 122.5,6.4 122.5,8.5 116.3,8.5 116.3,14.5 
	113.7,14.5 "/>
<path class="st0" d="M126.6,7.4c0,0.8,0.1,1.5,0.3,2.1c0.2,0.6,0.6,1.2,1,1.6c0.4,0.5,0.9,0.8,1.5,1.1c0.6,0.3,1.2,0.4,2,0.4
	c0.7,0,1.4-0.1,2-0.4c0.6-0.3,1.1-0.6,1.5-1.1c0.4-0.5,0.8-1,1-1.6c0.2-0.6,0.4-1.3,0.4-2.1c0-0.7-0.1-1.4-0.4-2
	c-0.2-0.6-0.6-1.2-1-1.6c-0.4-0.5-0.9-0.8-1.5-1.1c-0.6-0.3-1.3-0.4-2-0.4c-0.7,0-1.4,0.1-2,0.4c-0.6,0.3-1.1,0.6-1.5,1.1
	c-0.4,0.5-0.8,1-1,1.6C126.7,6,126.6,6.7,126.6,7.4 M123.8,7.4c0-1.1,0.2-2.2,0.6-3.1c0.4-0.9,0.9-1.7,1.6-2.3
	c0.7-0.6,1.5-1.1,2.4-1.5c0.9-0.3,1.9-0.5,3-0.5c1.1,0,2.1,0.2,3.1,0.5c0.9,0.3,1.7,0.8,2.4,1.5c0.7,0.6,1.2,1.4,1.6,2.3
	c0.4,0.9,0.6,1.9,0.6,3.1c0,1.1-0.2,2.1-0.6,3c-0.4,0.9-0.9,1.7-1.6,2.4c-0.7,0.7-1.5,1.2-2.4,1.5c-0.9,0.4-1.9,0.5-3.1,0.5
	c-1.1,0-2.1-0.2-3-0.5c-0.9-0.4-1.7-0.9-2.4-1.5c-0.7-0.7-1.2-1.4-1.6-2.4C124,9.5,123.8,8.5,123.8,7.4"/>
<path class="st0" d="M145.5,6.4c0.4,0,0.7,0,1.1-0.1c0.4-0.1,0.7-0.2,1-0.3c0.3-0.1,0.5-0.4,0.7-0.6c0.2-0.3,0.3-0.6,0.3-1
	c0-0.4-0.1-0.7-0.3-0.9c-0.2-0.2-0.4-0.4-0.7-0.6c-0.3-0.1-0.6-0.2-0.9-0.3c-0.3-0.1-0.7-0.1-1-0.1h-2.3v4H145.5z M140.9,0.4h4.9
	c0.7,0,1.3,0.1,1.9,0.2c0.6,0.1,1.2,0.4,1.7,0.7c0.5,0.3,0.9,0.7,1.2,1.3c0.3,0.5,0.4,1.2,0.4,1.9c0,1-0.3,1.9-0.9,2.5
	c-0.6,0.6-1.4,1.1-2.4,1.3l3.8,6.3h-3l-3.3-6h-1.8v6h-2.5V0.4z"/>
<path class="st0" d="M163,3.7c-0.4-0.5-0.9-0.9-1.5-1.1c-0.6-0.2-1.2-0.3-1.8-0.3c-0.7,0-1.4,0.1-2,0.4c-0.6,0.3-1.1,0.6-1.5,1.1
	s-0.8,1-1,1.6c-0.2,0.6-0.3,1.3-0.3,2c0,0.8,0.1,1.5,0.3,2.1c0.2,0.6,0.5,1.2,1,1.6c0.4,0.5,0.9,0.8,1.5,1.1c0.6,0.3,1.2,0.4,2,0.4
	c0.8,0,1.4-0.1,2-0.4c0.6-0.3,1.1-0.7,1.4-1.2l2,1.4c-0.6,0.8-1.4,1.4-2.3,1.8c-0.9,0.4-2,0.6-3.2,0.6c-1.1,0-2.1-0.2-3-0.5
	c-0.9-0.4-1.7-0.9-2.4-1.5c-0.7-0.7-1.2-1.4-1.6-2.4c-0.4-0.9-0.6-1.9-0.6-3c0-1.1,0.2-2.2,0.6-3.1c0.4-0.9,0.9-1.7,1.6-2.3
	c0.7-0.6,1.5-1.1,2.4-1.5c0.9-0.3,1.9-0.5,3-0.5c0.5,0,0.9,0,1.4,0.1c0.5,0.1,1,0.2,1.4,0.4c0.5,0.2,0.9,0.4,1.3,0.7
	c0.4,0.3,0.7,0.6,1,1L163,3.7z"/>
<polygon class="st0" points="166.3,0.4 175.6,0.4 175.6,2.6 168.8,2.6 168.8,6.1 175.3,6.1 175.3,8.3 168.8,8.3 168.8,12.3 
	176,12.3 176,14.5 166.3,14.5 "/>
<path class="st0" d="M54.4,32.4h2.9c1.1,0,2-0.2,2.8-0.5c0.8-0.3,1.4-0.8,2-1.3c0.5-0.5,0.9-1.2,1.2-1.8c0.3-0.7,0.4-1.4,0.4-2.1
	c0-0.7-0.1-1.4-0.4-2.1c-0.3-0.7-0.6-1.3-1.2-1.8c-0.5-0.5-1.2-1-2-1.3c-0.8-0.3-1.7-0.5-2.8-0.5h-2.9V32.4z M53,19.6h4.7
	c0.9,0,1.8,0.1,2.6,0.4c0.9,0.3,1.7,0.7,2.4,1.3c0.7,0.6,1.3,1.3,1.7,2.2c0.4,0.9,0.7,1.9,0.7,3.1c0,1.2-0.2,2.2-0.7,3.1
	c-0.4,0.9-1,1.6-1.7,2.2c-0.7,0.6-1.5,1-2.4,1.3c-0.9,0.3-1.8,0.4-2.6,0.4H53V19.6z"/>
<polygon class="st0" points="68.9,32.4 76.5,32.4 76.5,33.7 67.5,33.7 67.5,19.6 76.3,19.6 76.3,20.8 68.9,20.8 68.9,25.7 
	75.8,25.7 75.8,27 68.9,27 "/>
<polygon class="st0" points="83.6,31.8 83.7,31.8 88.2,19.6 89.8,19.6 84.4,33.7 82.9,33.7 77.5,19.6 79,19.6 "/>
<polygon class="st0" points="92.7,32.4 100.3,32.4 100.3,33.7 91.3,33.7 91.3,19.6 100.1,19.6 100.1,20.8 92.7,20.8 92.7,25.7 
	99.6,25.7 99.6,27 92.7,27 "/>
<polygon class="st0" points="103.8,32.4 110.4,32.4 110.4,33.7 102.3,33.7 102.3,19.6 103.8,19.6 "/>
<path class="st0" d="M123.7,26.6c0-0.8-0.1-1.6-0.4-2.4c-0.3-0.7-0.7-1.4-1.2-2c-0.5-0.6-1.1-1-1.8-1.3c-0.7-0.3-1.5-0.5-2.4-0.5
	c-0.9,0-1.7,0.2-2.4,0.5c-0.7,0.3-1.3,0.8-1.8,1.3c-0.5,0.6-0.9,1.2-1.2,2c-0.3,0.7-0.4,1.5-0.4,2.4c0,0.8,0.1,1.6,0.4,2.4
	c0.3,0.7,0.7,1.4,1.2,2c0.5,0.6,1.1,1,1.8,1.3c0.7,0.3,1.5,0.5,2.4,0.5c0.9,0,1.7-0.2,2.4-0.5c0.7-0.3,1.3-0.8,1.8-1.3
	c0.5-0.6,0.9-1.2,1.2-2C123.6,28.2,123.7,27.5,123.7,26.6 M125.2,26.6c0,1.1-0.2,2.1-0.6,3c-0.4,0.9-0.9,1.7-1.5,2.3
	c-0.7,0.7-1.4,1.2-2.3,1.5c-0.9,0.4-1.9,0.6-2.9,0.6c-1.1,0-2-0.2-2.9-0.6c-0.9-0.4-1.7-0.9-2.3-1.5c-0.7-0.7-1.2-1.4-1.5-2.3
	c-0.4-0.9-0.6-1.9-0.6-3c0-1.1,0.2-2.1,0.6-3c0.4-0.9,0.9-1.7,1.5-2.3c0.7-0.7,1.4-1.2,2.3-1.5c0.9-0.4,1.9-0.6,2.9-0.6
	c1.1,0,2,0.2,2.9,0.6c0.9,0.4,1.7,0.9,2.3,1.5c0.7,0.7,1.2,1.4,1.5,2.3C125,24.6,125.2,25.5,125.2,26.6"/>
<path class="st0" d="M129.1,25.9h2.4c1.1,0,2-0.2,2.6-0.7c0.6-0.4,0.9-1.1,0.9-1.9c0-0.9-0.3-1.5-0.9-1.9c-0.6-0.4-1.5-0.6-2.5-0.6
	h-2.4V25.9z M127.7,19.6h4c0.7,0,1.4,0.1,2,0.2c0.6,0.2,1.1,0.4,1.5,0.7c0.4,0.3,0.7,0.7,1,1.2c0.2,0.5,0.3,1,0.3,1.7
	c0,0.6-0.1,1.2-0.3,1.7c-0.2,0.5-0.6,0.9-1,1.2c-0.4,0.3-0.9,0.5-1.5,0.7c-0.6,0.2-1.2,0.2-2,0.2h-2.5v6.6h-1.4V19.6z"/>
<polygon class="st0" points="145.4,31.2 145.4,31.2 150.1,19.6 152.3,19.6 152.3,33.7 150.9,33.7 150.9,21.4 150.9,21.4 145.8,33.7 
	145,33.7 139.9,21.4 139.8,21.4 139.8,33.7 138.4,33.7 138.4,19.6 140.6,19.6 "/>
<polygon class="st0" points="157,32.4 164.6,32.4 164.6,33.7 155.6,33.7 155.6,19.6 164.3,19.6 164.3,20.8 157,20.8 157,25.7 
	163.9,25.7 163.9,27 157,27 "/>
<polygon class="st0" points="176.6,31.6 176.7,31.6 176.7,19.6 178.1,19.6 178.1,33.7 176.3,33.7 168.1,21.5 168,21.5 168,33.7 
	166.6,33.7 166.6,19.6 168.4,19.6 "/>
<polygon class="st0" points="185.9,33.7 184.4,33.7 184.4,20.8 179.7,20.8 179.7,19.6 190.6,19.6 190.6,20.8 185.9,20.8 "/>
<line class="st1" x1="42.7" y1="0.5" x2="42.7" y2="33.6"/>
<path class="st0" d="M29.1,2.9L29.1,2.9c-2.3,0-3.8,0.6-3.8,2.4c0,2,1.7,2.6,3.9,2.7c2.3,0,3.9-0.6,3.9-2.6V2.9H29.1z"/>
</svg>
