<?xml version="1.0" encoding="utf-8"?>
<!-- Generator: Adobe Illustrator 19.0.0, SVG Export Plug-In . SVG Version: 6.00 Build 0)  -->
<svg version="1.1" id="Layer_1" xmlns="http://www.w3.org/2000/svg" xmlns:xlink="http://www.w3.org/1999/xlink" x="0px" y="0px"
	 viewBox="0 0 141.7 31.9" style="enable-background:new 0 0 141.7 31.9;" xml:space="preserve">
<style type="text/css">
	.st0{fill:#E05326;}
	.st1{fill:#3A3A3A;}
</style>
<path class="st0" d="M35.7,3L35.7,3c-3,0-5,0.8-5,3.2c0,2.7,2.2,3.5,5.1,3.5c3,0,5.2-0.7,5.2-3.4V3H35.7z"/>
<path class="st0" d="M23.2,0l-6.3,0c0,0-1.7,0-2.6,0.8c-0.8,0.7-1.5,2.1-1.5,2.1L0,31.6h5.3l2-4.7c2.6-0.2,6.3-0.9,9.9-2.8
	c1.4-0.8,2.4-1.5,3.1-2l-0.5-1.2c-0.8,0.2-1.9,0.4-3.2,0.7c-2.4,0.5-5.1,0.7-7.2,0.4l6.4-14.7L22,23.3l3.2,8.3h10.3L23.2,0z"/>
<path class="st0" d="M36.6,11.4c-0.1,0-0.4,0-0.4,0c-3,0-4.9,0.9-4.9,3.3c0,0.8,0.1,1.4,0.4,2.2l5.7,14.7H41V9.9l0,0
	C40.2,11,38.6,11.4,36.6,11.4"/>
<path class="st1" d="M94,31.9c-1.6,0-3-0.3-4.3-0.8c-1.3-0.6-2.4-1.3-3.3-2.3c-0.9-0.9-1.7-2.1-2.2-3.3c-0.5-1.3-0.8-2.6-0.8-4.1
	v-0.1c0-1.4,0.3-2.8,0.8-4.1c0.5-1.3,1.3-2.4,2.2-3.3c0.9-1,2.1-1.7,3.4-2.3c1.3-0.6,2.7-0.8,4.3-0.8c1.6,0,3,0.3,4.3,0.8
	c1.3,0.5,2.4,1.3,3.3,2.2c0.9,0.9,1.7,2.1,2.2,3.3c0.5,1.3,0.8,2.6,0.8,4.1v0.1c0,1.4-0.3,2.8-0.8,4.1c-0.5,1.3-1.3,2.4-2.2,3.3
	c-0.9,1-2.1,1.7-3.4,2.3C97,31.7,95.6,31.9,94,31.9 M94.1,28.6c1,0,1.9-0.2,2.8-0.6c0.8-0.4,1.6-0.9,2.2-1.5
	c0.6-0.6,1.1-1.4,1.4-2.3c0.3-0.9,0.5-1.8,0.5-2.8v-0.1c0-1-0.2-1.9-0.5-2.8c-0.3-0.9-0.8-1.6-1.4-2.3c-0.6-0.7-1.3-1.2-2.2-1.6
	C96,14.4,95,14.2,94,14.2c-1,0-1.9,0.2-2.8,0.6c-0.8,0.4-1.6,0.9-2.2,1.5c-0.6,0.6-1.1,1.4-1.4,2.3c-0.3,0.9-0.5,1.8-0.5,2.8v0.1
	c0,1,0.2,1.9,0.5,2.8c0.3,0.9,0.8,1.6,1.4,2.3c0.6,0.7,1.3,1.2,2.2,1.6C92.1,28.4,93.1,28.6,94.1,28.6"/>
<path class="st1" d="M138.1,18.1L138.1,18.1c0,1.1-0.4,2-1.2,2.7c-0.8,0.7-1.9,1-3.2,1h-4.1v-7.3h4.1c1.3,0,2.4,0.3,3.2,0.9
	C137.7,16,138.1,16.9,138.1,18.1 M136.9,15.4c-0.8-0.6-1.9-0.9-3.2-0.9h-4.1v7.3h4.1c1.4,0,2.4-0.3,3.2-1c0.8-0.7,1.2-1.5,1.2-2.6
	v-0.1C138.1,16.9,137.7,16,136.9,15.4 M141.7,18.1L141.7,18.1c0,1.2-0.2,2.2-0.6,3.1c-0.4,0.9-1,1.6-1.7,2.2c-0.7,0.6-1.6,1-2.6,1.3
	c-1,0.3-2,0.5-3.2,0.5h-4v4.7c0,1-0.8,1.8-1.8,1.8H126v-1.8V13c0-1,0.8-1.8,1.8-1.8h6.2c1.2,0,2.3,0.2,3.2,0.5
	c1,0.3,1.8,0.8,2.4,1.4c0.7,0.6,1.2,1.3,1.5,2.1C141.6,16.1,141.7,17,141.7,18.1 M138.1,18.1c0-1.2-0.4-2.1-1.2-2.7
	c-0.8-0.6-1.9-0.9-3.2-0.9h-4.1v7.3h4.1c1.4,0,2.4-0.3,3.2-1C137.7,20.1,138.1,19.2,138.1,18.1L138.1,18.1z"/>
<path class="st1" d="M77.3,20.4c-0.8,0.6-1.8,0.9-3,0.9h-5.2v-6.8h5.2c1.3,0,2.4,0.3,3.1,0.9c0.7,0.6,1.1,1.4,1.1,2.5v0.1
	C78.5,19,78.1,19.8,77.3,20.4 M78.5,17.9L78.5,17.9c0-1.2-0.4-2-1.1-2.6c-0.7-0.6-1.8-0.9-3.1-0.9h-5.2v6.8h5.2c1.3,0,2.3-0.3,3-0.9
	C78.1,19.8,78.5,19,78.5,17.9 M78.5,17.9L78.5,17.9c0-1.2-0.4-2-1.1-2.6c-0.7-0.6-1.8-0.9-3.1-0.9h-5.2v6.8h5.2c1.3,0,2.3-0.3,3-0.9
	C78.1,19.8,78.5,19,78.5,17.9 M82.8,31.6h-3.3h0h0c-0.6,0-1.1-0.3-1.4-0.7l-0.1-0.1l-4.4-6.3h-4.5v5.3c0,1-0.8,1.8-1.8,1.8h-1.8
	v-1.8V13c0-1,0.8-1.8,1.8-1.8h7.3c1.3,0,2.4,0.2,3.4,0.5c1,0.4,1.8,0.9,2.5,1.5c0.5,0.6,1,1.2,1.2,1.9c0.3,0.7,0.4,1.5,0.4,2.4v0.1
	c0,1.7-0.5,3-1.3,4c-0.9,1-2.1,1.7-3.5,2.1l3.2,4.4l0.7,1L82.8,31.6z"/>
<path class="st1" d="M109.9,13v-1.8h-1.8c-1,0-1.8,0.8-1.8,1.8V23c0,1.5,0.2,2.8,0.6,3.9c0.4,1.1,1,2,1.7,2.8
	c0.8,0.8,1.7,1.3,2.7,1.7c1.1,0.4,2.3,0.6,3.6,0.6c1.3,0,2.5-0.2,3.6-0.6c1.1-0.4,2-0.9,2.7-1.7c0.8-0.8,1.3-1.7,1.8-2.9
	c0.4-1.1,0.6-2.5,0.6-4V13v-1.8h-1.8c-1,0-1.8,0.8-1.8,1.8V23c0,1.9-0.5,3.3-1.4,4.2c-0.9,0.9-2.2,1.4-3.7,1.4
	c-1.6,0-2.9-0.5-3.8-1.5c-0.9-1-1.4-2.4-1.4-4.3L109.9,13z"/>
<path class="st1" d="M56.5,20.2c-1,0-1.8,0.8-1.8,1.8c0,0,0,1.3,0,1.3h0.6h2.3H60v3.8c-0.6,0.5-1.4,0.8-2.2,1.1
	c-0.8,0.3-1.7,0.4-2.7,0.4c-1,0-2-0.2-2.8-0.6c-0.8-0.4-1.6-0.9-2.2-1.5c-0.6-0.6-1.1-1.4-1.4-2.3c-0.3-0.9-0.5-1.9-0.5-2.9v-0.1
	c0-1,0.2-1.9,0.5-2.8c0.3-0.9,0.8-1.6,1.4-2.3c0.6-0.7,1.3-1.2,2.1-1.6c0.8-0.4,1.7-0.6,2.6-0.6c0.6,0,1.2,0.1,1.8,0.2
	c0.5,0.1,1,0.3,1.5,0.4c0.4,0.2,0.8,0.4,1.2,0.6c0,0,0.1,0.1,0.1,0.1c0.3,0.2,0.6,0.3,0.9,0.3c0.5,0,0.9-0.2,1.2-0.5l0.2-0.3
	l1.1-1.3c-0.4-0.3-0.8-0.6-1.2-0.9c-0.1-0.1-0.3-0.2-0.4-0.3c-0.2-0.1-0.4-0.2-0.6-0.3c-0.4-0.2-0.8-0.4-1.2-0.5
	c-0.6-0.2-1.3-0.4-2-0.5c-0.7-0.1-1.5-0.2-2.4-0.2c-1.5,0-2.9,0.3-4.2,0.8c-1.3,0.6-2.4,1.3-3.3,2.3c-0.9,1-1.7,2.1-2.2,3.4
	c-0.5,1.3-0.8,2.6-0.8,4v0.1c0,1.5,0.3,2.9,0.8,4.1c0.5,1.3,1.2,2.4,2.1,3.3c0.9,0.9,2,1.7,3.3,2.2c1.3,0.5,2.7,0.8,4.3,0.8
	c0.9,0,1.7-0.1,2.6-0.2c0.8-0.2,1.6-0.4,2.3-0.7c0.7-0.3,1.4-0.6,2-1c0.6-0.4,1.2-0.8,1.7-1.2v-8.5C63.4,20.2,56.6,20.2,56.5,20.2"
	/>
</svg>
