<?xml version="1.0" encoding="utf-8"?>
<!-- Generator: Adobe Illustrator 19.0.0, SVG Export Plug-In . SVG Version: 6.00 Build 0)  -->
<svg version="1.1" id="Layer_1" xmlns="http://www.w3.org/2000/svg" xmlns:xlink="http://www.w3.org/1999/xlink" x="0px" y="0px"
	 viewBox="0 0 209.4 51.8" style="enable-background:new 0 0 209.4 51.8;" xml:space="preserve">
<style type="text/css">
	.st0{fill:#FFFFFF;}
</style>
<g>
	<path class="st0" d="M209.4,51.6v-1.2h-2.8v-1.2h2.5V48h-2.5v-1.1h2.6v-1.2h-4v6H209.4z M202.5,47.8c-0.1,0.1-0.1,0.2-0.3,0.2
		c-0.1,0.1-0.2,0.1-0.3,0.1c-0.1,0-0.2,0-0.4,0h-0.7v-1.4h0.8c0.1,0,0.2,0,0.3,0c0.1,0,0.2,0,0.3,0.1s0.2,0.1,0.2,0.2
		c0.1,0.1,0.1,0.2,0.1,0.3C202.6,47.6,202.5,47.7,202.5,47.8 M204.3,51.6l-1.6-2.6c0.4-0.1,0.7-0.3,0.9-0.6c0.2-0.3,0.3-0.6,0.3-1
		c0-0.3-0.1-0.6-0.2-0.9c-0.1-0.2-0.3-0.4-0.5-0.6c-0.2-0.1-0.5-0.2-0.7-0.3c-0.3-0.1-0.6-0.1-0.8-0.1h-2.3v6h1.4v-2.4h0.5l1.3,2.4
		H204.3z M198.6,46.9v-1.2h-4.9v1.2h1.7v4.8h1.5v-4.8H198.6z M192.9,51.6v-6h-1.4l0,3.9h0l-2.4-3.9h-1.7v6h1.4l0-3.9h0l2.4,3.9
		H192.9z M186.3,51.6v-1.2h-2.8v-1.2h2.5V48h-2.5v-1.1h2.6v-1.2h-4v6H186.3z M181.3,50.8l-1-1c-0.1,0.2-0.3,0.3-0.5,0.4
		c-0.2,0.1-0.5,0.2-0.8,0.2c-0.2,0-0.5,0-0.7-0.1c-0.2-0.1-0.4-0.2-0.5-0.4c-0.2-0.2-0.3-0.4-0.4-0.6c-0.1-0.2-0.1-0.5-0.1-0.7
		c0-0.3,0-0.5,0.1-0.7c0.1-0.2,0.2-0.4,0.4-0.6c0.2-0.2,0.3-0.3,0.5-0.4c0.2-0.1,0.4-0.1,0.7-0.1c0.2,0,0.5,0,0.7,0.1
		c0.2,0.1,0.4,0.2,0.5,0.4l1-1c-0.3-0.3-0.6-0.5-1-0.7c-0.4-0.1-0.8-0.2-1.3-0.2c-0.5,0-0.9,0.1-1.3,0.2c-0.4,0.1-0.7,0.4-1,0.6
		c-0.3,0.3-0.5,0.6-0.7,1c-0.2,0.4-0.3,0.8-0.3,1.3c0,0.5,0.1,0.9,0.2,1.3c0.2,0.4,0.4,0.7,0.7,1c0.3,0.3,0.6,0.5,1,0.7
		c0.4,0.2,0.8,0.2,1.3,0.2c0.5,0,1-0.1,1.4-0.3C180.7,51.3,181.1,51.1,181.3,50.8 M172.7,51.6v-1.2h-2.8v-1.2h2.5V48h-2.5v-1.1h2.6
		v-1.2h-4v6H172.7z M167.3,51.6v-1.2h-2.8v-1.2h2.5V48h-2.5v-1.1h2.6v-1.2h-4v6H167.3z M161.7,51.6v-6h-1.4l0,3.9h0l-2.4-3.9h-1.7v6
		h1.4l0-3.9h0l2.4,3.9H161.7z M154.8,45.6h-1.5v6h1.5V45.6z M150.2,49.3h-1.5l0.8-2.1L150.2,49.3z M152.7,51.6l-2.5-6h-1.4l-2.5,6
		h1.6l0.4-1.2h2.3l0.5,1.2H152.7z M144,47.8c-0.1,0.1-0.1,0.2-0.3,0.2c-0.1,0.1-0.2,0.1-0.3,0.1s-0.2,0-0.4,0h-0.7v-1.4h0.8
		c0.1,0,0.2,0,0.3,0c0.1,0,0.2,0,0.3,0.1c0.1,0,0.2,0.1,0.2,0.2c0.1,0.1,0.1,0.2,0.1,0.3C144.1,47.6,144,47.7,144,47.8 M145.8,51.6
		l-1.6-2.6c0.4-0.1,0.7-0.3,0.9-0.6c0.2-0.3,0.3-0.6,0.3-1c0-0.3-0.1-0.6-0.2-0.9c-0.1-0.2-0.3-0.4-0.5-0.6
		c-0.2-0.1-0.5-0.2-0.7-0.3c-0.3-0.1-0.6-0.1-0.8-0.1h-2.3v6h1.4v-2.4h0.5l1.3,2.4H145.8z M140.1,46.9v-1.2h-4.9v1.2h1.7v4.8h1.5
		v-4.8H140.1z M130.8,49.4c-0.1,0.2-0.3,0.4-0.4,0.5c-0.2,0.1-0.4,0.2-0.6,0.3c-0.2,0.1-0.5,0.1-0.8,0.1h-0.7v-3.5h0.7
		c0.2,0,0.5,0,0.7,0.1c0.2,0.1,0.4,0.2,0.6,0.3c0.2,0.1,0.3,0.3,0.4,0.5c0.1,0.2,0.2,0.5,0.2,0.8C131,48.9,131,49.2,130.8,49.4
		 M132.2,47.2c-0.2-0.4-0.5-0.7-0.8-0.9c-0.3-0.2-0.7-0.4-1.1-0.5c-0.4-0.1-0.8-0.1-1.3-0.1h-2.2v6h2.2c0.4,0,0.8-0.1,1.2-0.2
		c0.4-0.1,0.8-0.3,1.1-0.5c0.3-0.2,0.6-0.6,0.8-0.9c0.2-0.4,0.3-0.8,0.3-1.4C132.5,48,132.4,47.6,132.2,47.2 M125.5,51.6v-6h-1.4
		l0,3.9h0l-2.4-3.9H120v6h1.4l0-3.9h0l2.4,3.9H125.5z M116.8,49.3h-1.5l0.8-2.1L116.8,49.3z M119.3,51.6l-2.5-6h-1.4l-2.5,6h1.6
		l0.4-1.2h2.3l0.5,1.2H119.3z M110.3,51.6v-1.2h-2.8v-1.2h2.5V48h-2.5v-1.1h2.6v-1.2h-4v6H110.3z M105.3,50.8l-1-1
		c-0.1,0.2-0.3,0.3-0.5,0.4c-0.2,0.1-0.5,0.2-0.8,0.2c-0.3,0-0.5,0-0.7-0.1c-0.2-0.1-0.4-0.2-0.5-0.4c-0.2-0.2-0.3-0.4-0.4-0.6
		c-0.1-0.2-0.1-0.5-0.1-0.7c0-0.3,0-0.5,0.1-0.7c0.1-0.2,0.2-0.4,0.4-0.6c0.2-0.2,0.3-0.3,0.5-0.4c0.2-0.1,0.4-0.1,0.7-0.1
		c0.2,0,0.5,0,0.7,0.1s0.4,0.2,0.5,0.4l1-1c-0.3-0.3-0.6-0.5-1-0.7c-0.4-0.1-0.8-0.2-1.3-0.2c-0.5,0-0.9,0.1-1.3,0.2
		c-0.4,0.1-0.7,0.4-1,0.6c-0.3,0.3-0.5,0.6-0.7,1c-0.2,0.4-0.3,0.8-0.3,1.3c0,0.5,0.1,0.9,0.2,1.3c0.2,0.4,0.4,0.7,0.7,1
		c0.3,0.3,0.6,0.5,1,0.7c0.4,0.2,0.8,0.2,1.3,0.2c0.5,0,1-0.1,1.4-0.3C104.7,51.3,105.1,51.1,105.3,50.8 M98.6,45.6h-1.5v6h1.5V45.6
		z M96.4,46.9v-1.2h-4.9v1.2h1.7v4.8h1.5v-4.8H96.4z M90.7,51.6v-6h-1.4l0,3.9h0l-2.4-3.9h-1.7v6h1.4l0-3.9h0l2.4,3.9H90.7z
		 M84.1,51.6v-1.2h-2.8v-1.2h2.5V48h-2.5v-1.1h2.6v-1.2h-4v6H84.1z M77.2,47.8C77.1,47.9,77,48,76.9,48c-0.1,0.1-0.2,0.1-0.3,0.1
		c-0.1,0-0.2,0-0.4,0h-0.7v-1.4h0.8c0.1,0,0.2,0,0.3,0c0.1,0,0.2,0,0.3,0.1s0.2,0.1,0.2,0.2c0.1,0.1,0.1,0.2,0.1,0.3
		C77.3,47.6,77.2,47.7,77.2,47.8 M79,51.6l-1.6-2.6c0.4-0.1,0.7-0.3,0.9-0.6c0.2-0.3,0.3-0.6,0.3-1c0-0.3-0.1-0.6-0.2-0.9
		c-0.1-0.2-0.3-0.4-0.5-0.6c-0.2-0.1-0.5-0.2-0.7-0.3c-0.3-0.1-0.6-0.1-0.8-0.1h-2.3v6h1.4v-2.4H76l1.3,2.4H79z M71.7,47.8
		c-0.1,0.1-0.1,0.2-0.2,0.2c-0.1,0.1-0.2,0.1-0.3,0.1c-0.1,0-0.3,0-0.4,0h-0.6v-1.4h0.6c0.1,0,0.3,0,0.4,0c0.1,0,0.2,0.1,0.3,0.1
		c0.1,0,0.2,0.1,0.2,0.2c0.1,0.1,0.1,0.2,0.1,0.3C71.7,47.6,71.7,47.7,71.7,47.8 M73,46.6c-0.1-0.2-0.3-0.4-0.5-0.6
		c-0.2-0.1-0.5-0.2-0.7-0.3c-0.3-0.1-0.6-0.1-0.9-0.1h-2.2v6h1.5v-2.3h0.7c0.3,0,0.6,0,0.9-0.1c0.3-0.1,0.5-0.2,0.8-0.3
		c0.2-0.1,0.4-0.3,0.5-0.6c0.1-0.2,0.2-0.5,0.2-0.9C73.2,47.1,73.1,46.8,73,46.6 M66.2,47.8C66.1,47.9,66.1,48,66,48
		c-0.1,0.1-0.2,0.1-0.3,0.1c-0.1,0-0.3,0-0.4,0h-0.6v-1.4h0.6c0.1,0,0.3,0,0.4,0c0.1,0,0.2,0.1,0.3,0.1c0.1,0,0.2,0.1,0.2,0.2
		s0.1,0.2,0.1,0.3C66.3,47.6,66.2,47.7,66.2,47.8 M67.5,46.6c-0.1-0.2-0.3-0.4-0.5-0.6c-0.2-0.1-0.5-0.2-0.7-0.3
		c-0.3-0.1-0.6-0.1-0.9-0.1h-2.2v6h1.5v-2.3h0.7c0.3,0,0.6,0,0.9-0.1c0.3-0.1,0.5-0.2,0.8-0.3c0.2-0.1,0.4-0.3,0.5-0.6
		s0.2-0.5,0.2-0.9C67.7,47.1,67.7,46.8,67.5,46.6 M60,49.3h-1.5l0.8-2.1L60,49.3z M62.5,51.6l-2.5-6h-1.4l-2.5,6h1.6l0.4-1.2h2.3
		l0.5,1.2H62.5z"/>
	<path class="st0" d="M19.5,35.4c0.4,0,0.8-0.1,1.1-0.2c0.3-0.1,0.6-0.3,0.9-0.6c0.2-0.3,0.4-0.6,0.6-0.9c0.1-0.3,0.2-0.7,0.2-1.1v0
		c0-0.4-0.1-0.8-0.2-1.1c-0.1-0.3-0.3-0.6-0.6-0.9c-0.2-0.3-0.5-0.5-0.9-0.6c-0.3-0.2-0.7-0.2-1.1-0.2c-0.4,0-0.8,0.1-1.1,0.2
		c-0.3,0.2-0.6,0.4-0.9,0.6c-0.2,0.3-0.4,0.6-0.6,0.9s-0.2,0.7-0.2,1.1v0c0,0.4,0.1,0.8,0.2,1.1s0.3,0.6,0.6,0.9
		c0.2,0.3,0.5,0.5,0.9,0.6C18.7,35.3,19.1,35.4,19.5,35.4 M19.4,36.7c-0.6,0-1.2-0.1-1.7-0.3c-0.5-0.2-0.9-0.5-1.3-0.9
		c-0.4-0.4-0.7-0.8-0.9-1.3c-0.2-0.5-0.3-1-0.3-1.6v0c0-0.6,0.1-1.1,0.3-1.6c0.2-0.5,0.5-0.9,0.9-1.3c0.4-0.4,0.8-0.7,1.3-0.9
		c0.5-0.2,1.1-0.3,1.7-0.3s1.2,0.1,1.7,0.3c0.5,0.2,0.9,0.5,1.3,0.9c0.4,0.4,0.7,0.8,0.9,1.3c0.2,0.5,0.3,1,0.3,1.6v0
		c0,0.6-0.1,1.1-0.3,1.6c-0.2,0.5-0.5,0.9-0.9,1.3c-0.4,0.4-0.8,0.7-1.3,0.9C20.6,36.6,20.1,36.7,19.4,36.7"/>
	<path class="st0" d="M36.6,31.3c0-0.5-0.2-0.8-0.5-1.1c-0.3-0.2-0.7-0.4-1.3-0.4h-1.6v2.9h1.6c0.5,0,1-0.1,1.3-0.4
		C36.4,32.1,36.6,31.7,36.6,31.3L36.6,31.3z M38,31.3L38,31.3c0,0.5-0.1,0.9-0.3,1.2c-0.2,0.3-0.4,0.6-0.7,0.8
		c-0.3,0.2-0.6,0.4-1,0.5c-0.4,0.1-0.8,0.2-1.2,0.2h-1.6v1.9c0,0.4-0.3,0.7-0.7,0.7h-0.7v-0.7v-6.6c0-0.4,0.3-0.7,0.7-0.7H35
		c0.5,0,0.9,0.1,1.3,0.2c0.4,0.1,0.7,0.3,1,0.5c0.3,0.2,0.5,0.5,0.6,0.8C38,30.5,38,30.8,38,31.3 M36.1,30.2
		c-0.3-0.2-0.7-0.4-1.3-0.4h-1.6v2.9h1.6c0.5,0,1-0.1,1.3-0.4c0.3-0.3,0.5-0.6,0.5-1v0C36.6,30.8,36.4,30.5,36.1,30.2 M36.6,31.3
		L36.6,31.3c0,0.4-0.2,0.8-0.5,1c-0.3,0.3-0.7,0.4-1.3,0.4h-1.6v-2.9h1.6c0.5,0,0.9,0.1,1.3,0.4C36.4,30.5,36.6,30.8,36.6,31.3"/>
	<path class="st0" d="M15.1,36.6h-1.3h0h0c-0.2,0-0.4-0.1-0.6-0.3l0,0l-1.7-2.5H9.8v2.1c0,0.4-0.3,0.7-0.7,0.7H8.3v-0.7v-6.6
		c0-0.4,0.3-0.7,0.7-0.7h2.9c0.5,0,0.9,0.1,1.3,0.2c0.4,0.1,0.7,0.3,1,0.6c0.2,0.2,0.4,0.5,0.5,0.8c0.1,0.3,0.2,0.6,0.2,1v0
		c0,0.7-0.2,1.2-0.5,1.6c-0.4,0.4-0.8,0.7-1.4,0.8l1.2,1.7l0.3,0.4L15.1,36.6z M13.5,31.2L13.5,31.2c0-0.5-0.1-0.8-0.4-1
		c-0.3-0.2-0.7-0.3-1.2-0.3h-2v2.7h2.1c0.5,0,0.9-0.1,1.2-0.4C13.3,31.9,13.5,31.6,13.5,31.2 M13.5,31.2L13.5,31.2
		c0-0.5-0.1-0.8-0.4-1c-0.3-0.2-0.7-0.3-1.2-0.3h-2v2.7h2.1c0.5,0,0.9-0.1,1.2-0.4C13.3,31.9,13.5,31.6,13.5,31.2 M13,32.2
		c-0.3,0.2-0.7,0.4-1.2,0.4H9.8v-2.7h2c0.5,0,0.9,0.1,1.2,0.3c0.3,0.2,0.4,0.6,0.4,1v0C13.5,31.6,13.3,31.9,13,32.2"/>
	<path class="st0" d="M21.8,0.4l-5.3,0c0,0-1.4,0-2.2,0.6C13.6,1.6,13,2.8,13,2.8L2.4,26.6h4.4l1.7-3.9c2.1-0.2,5.3-0.7,8.2-2.4
		c1.2-0.7,2-1.2,2.6-1.7l-0.4-1c-0.7,0.2-1.6,0.3-2.6,0.5c-2,0.4-4.2,0.6-6,0.4l5.3-12.2l5.1,13.4l2.7,6.9h8.5L21.8,0.4z"/>
	<path class="st0" d="M32.6,9.8c0,0-0.3,0-0.4,0c-2.5,0-4.1,0.7-4.1,2.7c0,0.6,0.1,1.2,0.4,1.8l4.7,12.2h3.1V8.6l0,0
		C35.6,9.5,34.3,9.8,32.6,9.8"/>
	<path class="st0" d="M25.6,29.3v-0.7h-0.7c-0.4,0-0.7,0.3-0.7,0.7v3.9c0,0.6,0.1,1.1,0.2,1.5c0.2,0.4,0.4,0.8,0.7,1.1
		c0.3,0.3,0.7,0.5,1.1,0.7c0.4,0.2,0.9,0.2,1.4,0.2c0.5,0,1-0.1,1.4-0.2c0.4-0.1,0.8-0.4,1.1-0.7c0.3-0.3,0.5-0.7,0.7-1.1
		c0.2-0.5,0.2-1,0.2-1.6v-3.8v-0.7h-0.7c-0.4,0-0.7,0.3-0.7,0.7v3.9c0,0.7-0.2,1.3-0.5,1.7c-0.4,0.4-0.8,0.6-1.5,0.6
		c-0.6,0-1.1-0.2-1.5-0.6c-0.4-0.4-0.5-0.9-0.5-1.7L25.6,29.3z"/>
	<path class="st0" d="M4.8,32.1c-0.4,0-0.7,0.3-0.7,0.7c0,0,0,0.5,0,0.5h0.2h0.9h0.9v1.5c-0.2,0.2-0.5,0.3-0.9,0.4
		c-0.3,0.1-0.7,0.2-1.1,0.2c-0.4,0-0.8-0.1-1.1-0.2c-0.3-0.1-0.6-0.3-0.9-0.6c-0.2-0.3-0.4-0.6-0.6-0.9c-0.1-0.4-0.2-0.7-0.2-1.1v0
		c0-0.4,0.1-0.7,0.2-1.1c0.1-0.3,0.3-0.6,0.5-0.9c0.2-0.3,0.5-0.5,0.8-0.6c0.3-0.2,0.7-0.2,1-0.2c0.3,0,0.5,0,0.7,0.1
		c0.2,0,0.4,0.1,0.6,0.2c0.2,0.1,0.3,0.1,0.5,0.2c0,0,0,0,0.1,0c0.1,0.1,0.2,0.1,0.4,0.1c0.2,0,0.4-0.1,0.5-0.2L6.8,30l0.4-0.5
		c-0.2-0.1-0.3-0.2-0.5-0.4c-0.1,0-0.1-0.1-0.2-0.1c-0.1,0-0.2-0.1-0.2-0.1c-0.1-0.1-0.3-0.1-0.5-0.2c-0.2-0.1-0.5-0.2-0.8-0.2
		c-0.3,0-0.6-0.1-1-0.1c-0.6,0-1.2,0.1-1.7,0.3C2,29,1.5,29.3,1.2,29.7C0.8,30,0.5,30.5,0.3,31C0.1,31.5,0,32,0,32.6v0
		c0,0.6,0.1,1.1,0.3,1.6c0.2,0.5,0.5,0.9,0.8,1.3c0.4,0.4,0.8,0.7,1.3,0.9c0.5,0.2,1.1,0.3,1.7,0.3c0.4,0,0.7,0,1-0.1
		c0.3-0.1,0.6-0.2,0.9-0.3c0.3-0.1,0.5-0.2,0.8-0.4c0.2-0.2,0.5-0.3,0.7-0.5v-3.4H4.8z"/>
	<line class="st0" x1="46.6" y1="0.4" x2="46.6" y2="36.6"/>
	<path class="st0" d="M31.8,3L31.8,3c-2.5,0-4.1,0.6-4.1,2.6c0,2.2,1.8,2.9,4.3,2.9c2.5,0,4.3-0.6,4.3-2.8V3H31.8z"/>
	<path class="st0" d="M199.2,22.4h5.2V21h-12v1.4h5.2v14.2h1.6V22.4z M180.2,21h-2v15.6h1.6V23.2h0l9.1,13.4h2V21h-1.6v13.3h0
		L180.2,21z M167.9,29.1h7.5v-1.4h-7.5v-5.3h8.1V21h-9.7v15.6h9.9v-1.4h-8.3V29.1z M150.2,21h-2.4v15.6h1.6V23h0l5.6,13.5h0.8
		l5.6-13.5h0v13.5h1.6V21h-2.4l-5.2,12.9h0L150.2,21z M137.9,22.3h2.7c1.2,0,2.1,0.2,2.8,0.7c0.7,0.4,1,1.2,1,2.1
		c0,0.9-0.3,1.6-1,2.1c-0.6,0.5-1.6,0.7-2.8,0.7h-2.7V22.3z M136.3,36.6h1.6v-7.2h2.8c0.8,0,1.5-0.1,2.2-0.3
		c0.7-0.2,1.2-0.4,1.7-0.8c0.5-0.3,0.8-0.8,1.1-1.3c0.3-0.5,0.4-1.1,0.4-1.8s-0.1-1.3-0.4-1.8c-0.3-0.5-0.6-1-1.1-1.3
		c-0.5-0.3-1-0.6-1.7-0.8c-0.6-0.2-1.4-0.3-2.2-0.3h-4.4V36.6z M132,31.4c-0.3,0.8-0.7,1.5-1.3,2.2c-0.6,0.6-1.2,1.1-2,1.5
		c-0.8,0.4-1.7,0.5-2.7,0.5c-1,0-1.9-0.2-2.7-0.5c-0.8-0.4-1.5-0.9-2-1.5c-0.6-0.6-1-1.3-1.3-2.2c-0.3-0.8-0.4-1.7-0.4-2.6
		c0-0.9,0.1-1.8,0.4-2.6c0.3-0.8,0.7-1.5,1.3-2.2c0.6-0.6,1.2-1.1,2-1.5c0.8-0.4,1.7-0.5,2.7-0.5c1,0,1.9,0.2,2.7,0.5
		c0.8,0.4,1.5,0.9,2,1.5c0.6,0.6,1,1.3,1.3,2.2c0.3,0.8,0.4,1.7,0.4,2.6C132.4,29.7,132.3,30.6,132,31.4 M133.5,25.5
		c-0.4-1-1-1.9-1.7-2.6s-1.6-1.3-2.6-1.7c-1-0.4-2.1-0.6-3.2-0.6c-1.2,0-2.2,0.2-3.2,0.6c-1,0.4-1.8,1-2.6,1.7s-1.3,1.6-1.7,2.6
		c-0.4,1-0.6,2.1-0.6,3.3c0,1.2,0.2,2.3,0.6,3.3c0.4,1,1,1.9,1.7,2.6c0.7,0.7,1.6,1.3,2.6,1.7s2.1,0.6,3.2,0.6
		c1.2,0,2.2-0.2,3.2-0.6c1-0.4,1.8-1,2.6-1.7c0.7-0.7,1.3-1.6,1.7-2.6c0.4-1,0.6-2.1,0.6-3.3C134.1,27.6,133.9,26.5,133.5,25.5
		 M111,21h-1.6v15.6h8.8v-1.4H111V21z M99.2,29.1h7.5v-1.4h-7.5v-5.3h8.1V21h-9.7v15.6h9.9v-1.4h-8.3V29.1z M84.4,21h-1.7l5.9,15.6
		h1.7l6-15.6h-1.7l-5.1,13.5h0L84.4,21z M73.7,29.1h7.5v-1.4h-7.5v-5.3h8.1V21h-9.7v15.6H82v-1.4h-8.3V29.1z M58.3,22.4h3.1
		c1.2,0,2.2,0.2,3.1,0.5c0.9,0.4,1.6,0.8,2.2,1.4c0.6,0.6,1,1.3,1.3,2c0.3,0.8,0.4,1.5,0.4,2.4c0,0.8-0.1,1.6-0.4,2.4
		c-0.3,0.8-0.7,1.4-1.3,2c-0.6,0.6-1.3,1.1-2.2,1.4c-0.9,0.4-1.9,0.5-3.1,0.5h-3.1V22.4z M56.8,36.6h5.2c1,0,1.9-0.2,2.9-0.5
		c1-0.3,1.9-0.8,2.6-1.5c0.8-0.7,1.4-1.5,1.9-2.4c0.5-1,0.7-2.1,0.7-3.4c0-1.3-0.2-2.4-0.7-3.4c-0.5-1-1.1-1.8-1.9-2.4
		c-0.8-0.7-1.7-1.1-2.6-1.5c-1-0.3-1.9-0.5-2.9-0.5h-5.2V36.6z"/>
	<path class="st0" d="M178.8,16h10.7v-2.5h-7.9V9.1h7.1V6.8h-7.1v-4h7.5V0.4h-10.3V16z M177.6,2.4c-0.3-0.4-0.7-0.8-1.1-1.1
		c-0.4-0.3-0.9-0.5-1.4-0.7c-0.5-0.2-1-0.3-1.6-0.4C173,0,172.5,0,172,0c-1.2,0-2.3,0.2-3.3,0.6c-1,0.4-1.9,0.9-2.7,1.6
		c-0.8,0.7-1.3,1.6-1.8,2.6c-0.4,1-0.6,2.1-0.6,3.4c0,1.2,0.2,2.3,0.6,3.3c0.4,1,1,1.9,1.7,2.6c0.7,0.7,1.6,1.3,2.6,1.7
		s2.1,0.6,3.4,0.6c1.3,0,2.5-0.2,3.5-0.7c1-0.5,1.8-1.1,2.5-2l-2.2-1.6c-0.4,0.5-0.9,1-1.6,1.3c-0.6,0.3-1.4,0.5-2.2,0.5
		c-0.8,0-1.5-0.1-2.2-0.4c-0.6-0.3-1.2-0.7-1.7-1.2c-0.5-0.5-0.8-1.1-1.1-1.8c-0.2-0.7-0.4-1.5-0.4-2.3c0-0.8,0.1-1.6,0.4-2.2
		c0.3-0.7,0.6-1.3,1.1-1.8c0.5-0.5,1-0.9,1.7-1.2c0.7-0.3,1.4-0.4,2.2-0.4c0.6,0,1.3,0.1,1.9,0.4c0.7,0.3,1.2,0.7,1.6,1.2L177.6,2.4
		z M154.3,7.1V2.7h2.5c0.4,0,0.7,0,1.1,0.1c0.4,0.1,0.7,0.2,1,0.3c0.3,0.2,0.5,0.4,0.7,0.6c0.2,0.3,0.3,0.6,0.3,1
		c0,0.5-0.1,0.9-0.3,1.2c-0.2,0.3-0.5,0.5-0.8,0.7c-0.3,0.2-0.7,0.3-1.1,0.3c-0.4,0.1-0.8,0.1-1.2,0.1H154.3z M151.5,16h2.8V9.4h2
		l3.6,6.6h3.3l-4.2-6.9c1.1-0.2,2-0.7,2.6-1.4c0.6-0.7,1-1.6,1-2.8c0-0.8-0.2-1.5-0.5-2.1c-0.3-0.6-0.8-1-1.3-1.4
		c-0.5-0.4-1.1-0.6-1.8-0.8c-0.7-0.2-1.4-0.2-2.1-0.2h-5.4V16z M136.4,5.9c0.3-0.7,0.6-1.3,1.1-1.8c0.5-0.5,1-0.9,1.7-1.2
		c0.7-0.3,1.4-0.4,2.2-0.4c0.8,0,1.5,0.1,2.2,0.4c0.7,0.3,1.2,0.7,1.7,1.2c0.5,0.5,0.8,1.1,1.1,1.8c0.3,0.7,0.4,1.4,0.4,2.2
		c0,0.8-0.1,1.6-0.4,2.3c-0.3,0.7-0.6,1.3-1.1,1.8c-0.5,0.5-1,0.9-1.7,1.2s-1.4,0.4-2.2,0.4c-0.8,0-1.5-0.1-2.2-0.4
		c-0.7-0.3-1.2-0.7-1.7-1.2c-0.5-0.5-0.8-1.1-1.1-1.8C136.1,9.7,136,9,136,8.1C136,7.3,136.1,6.6,136.4,5.9 M133.6,11.5
		c0.4,1,1,1.9,1.7,2.6c0.7,0.7,1.6,1.3,2.6,1.7c1,0.4,2.1,0.6,3.3,0.6c1.2,0,2.3-0.2,3.4-0.6c1-0.4,1.9-1,2.7-1.7
		c0.7-0.7,1.3-1.6,1.7-2.6c0.4-1,0.6-2.1,0.6-3.3c0-1.2-0.2-2.4-0.6-3.4c-0.4-1-1-1.9-1.7-2.6c-0.7-0.7-1.6-1.2-2.7-1.6
		c-1-0.4-2.1-0.6-3.4-0.6c-1.2,0-2.3,0.2-3.3,0.6c-1,0.4-1.9,0.9-2.6,1.6c-0.7,0.7-1.3,1.6-1.7,2.6c-0.4,1-0.6,2.1-0.6,3.4
		C133,9.4,133.2,10.5,133.6,11.5 M122.2,16h2.8V9.4h6.9V7.1H125V2.8h7.3V0.4h-10.1V16z M107.8,16h2.8V8.2h0.1l6.8,7.8h3.9l-7.8-8.4
		l7.3-7.2h-3.7l-6.5,6.7h-0.1V0.4h-2.8V16z M97.6,7.1V2.7h2.5c0.4,0,0.7,0,1.1,0.1c0.4,0.1,0.7,0.2,1,0.3c0.3,0.2,0.5,0.4,0.7,0.6
		c0.2,0.3,0.3,0.6,0.3,1c0,0.5-0.1,0.9-0.3,1.2c-0.2,0.3-0.5,0.5-0.8,0.7c-0.3,0.2-0.7,0.3-1.1,0.3c-0.4,0.1-0.8,0.1-1.2,0.1H97.6z
		 M94.9,16h2.8V9.4h2l3.6,6.6h3.3l-4.2-6.9c1.1-0.2,2-0.7,2.6-1.4c0.6-0.7,1-1.6,1-2.8c0-0.8-0.2-1.5-0.5-2.1
		c-0.3-0.6-0.8-1-1.3-1.4c-0.5-0.4-1.1-0.6-1.8-0.8c-0.7-0.2-1.4-0.2-2.1-0.2h-5.4V16z M79.7,5.9c0.3-0.7,0.6-1.3,1.1-1.8
		c0.5-0.5,1-0.9,1.7-1.2c0.7-0.3,1.4-0.4,2.2-0.4c0.8,0,1.5,0.1,2.2,0.4c0.7,0.3,1.2,0.7,1.7,1.2c0.5,0.5,0.8,1.1,1.1,1.8
		c0.3,0.7,0.4,1.4,0.4,2.2c0,0.8-0.1,1.6-0.4,2.3c-0.3,0.7-0.6,1.3-1.1,1.8c-0.5,0.5-1,0.9-1.7,1.2s-1.4,0.4-2.2,0.4
		s-1.5-0.1-2.2-0.4c-0.7-0.3-1.2-0.7-1.7-1.2c-0.5-0.5-0.8-1.1-1.1-1.8c-0.3-0.7-0.4-1.5-0.4-2.3C79.3,7.3,79.5,6.6,79.7,5.9
		 M77,11.5c0.4,1,1,1.9,1.7,2.6c0.7,0.7,1.6,1.3,2.6,1.7c1,0.4,2.1,0.6,3.3,0.6c1.2,0,2.3-0.2,3.4-0.6c1-0.4,1.9-1,2.7-1.7
		c0.7-0.7,1.3-1.6,1.7-2.6c0.4-1,0.6-2.1,0.6-3.3c0-1.2-0.2-2.4-0.6-3.4c-0.4-1-1-1.9-1.7-2.6C89.9,1.5,89.1,1,88,0.6
		C87,0.2,85.9,0,84.7,0c-1.2,0-2.3,0.2-3.3,0.6c-1,0.4-1.9,0.9-2.6,1.6C78,2.9,77.4,3.8,77,4.8c-0.4,1-0.6,2.1-0.6,3.4
		C76.3,9.4,76.5,10.5,77,11.5 M59.2,16h2.7l3.7-11.7h0L69.3,16H72l4.6-15.6h-2.9l-3.1,11.4h0L67.1,0.4h-2.9l-3.4,11.4h0l-3-11.4h-3
		L59.2,16z"/>
</g>
</svg>
