<?xml version="1.0" encoding="utf-8"?>
<!-- Generator: Adobe Illustrator 19.0.0, SVG Export Plug-In . SVG Version: 6.00 Build 0)  -->
<svg version="1.1" id="Ñëîé_1" xmlns="http://www.w3.org/2000/svg" xmlns:xlink="http://www.w3.org/1999/xlink" x="0px" y="0px"
	 viewBox="0 0 816.1 864.1" style="enable-background:new 0 0 816.1 864.1;" xml:space="preserve">
<style type="text/css">
	.st0{opacity:0.45;fill:#FFFFFF;}
</style>
<path class="st0" d="M815.9,334L705,70.1l0-0.1c0.2-0.6,0.1-1.2-0.2-1.7c-0.4-0.5-1-0.7-1.5-0.6L503.4,96.5L176.4,0c0,0-0.1,0-0.1,0
	c-0.1,0-0.2,0-0.3,0c-0.1,0-0.1,0-0.1,0c-0.1,0-0.2,0.1-0.3,0.1c0,0-0.1,0-0.1,0c0,0,0,0,0,0c-0.1,0.1-0.2,0.1-0.2,0.2
	c0,0-0.1,0.1-0.1,0.1c0,0,0,0,0,0L0.7,294.9c0,0,0,0,0,0c0,0,0,0.1-0.1,0.1c0,0,0,0,0,0.1c0,0,0,0,0,0.1c0,0-0.3,0.1-0.3,0.1
	c0,0-0.3,0.1-0.3,0.1c0,0,0,0,0,0c0,0,0.2,0.1,0.3,0.1c0,0,0.1,0.1,0.1,0.1c0,0,0.1,0.1,0.1,0.1c0,0,0,0.1,0.1,0.1c0,0,0,0,0,0
	c0,0,0,0.1,0.1,0.1c0,0,0,0.1,0.1,0.1c0,0,0,0,0.1,0.1c0,0.1,0.1,0.1,0.1,0.1c0,0,0,0,0,0c0,0,0,0,0,0.1c0,0,0,0,0,0c0,0,0,0,0,0
	l171.1,127.9l-25.3,179L6.2,544.2l-3.7-2.2c-0.6-0.3-1.4-0.3-1.9,0.2c-0.5,0.4-0.7,1.2-0.5,1.8L109.6,863c0.1,0.4,0.5,0.8,0.9,1
	c0.2,0.1,0.5,0.2,0.7,0.2c0.2,0,0.4,0,0.6-0.1l1.1-0.4h646.3l0.6,0.1c0.1,0,0.2-0.1,0.3-0.1c0,0,0,0,0,0l0,0c0,0,0,0,0,0
	c0,0,0,0,0,0c0.1,0,0.3,0,0.4,0c0,0,0,0,0,0c0,0,0.1,0,0.1,0c0.1,0,0.2-0.1,0.2-0.1c0,0,0,0,0,0c0,0,0,0,0,0c0,0,0,0,0,0
	c0,0,0,0,0,0c0,0,0,0,0,0c0,0,0,0,0-0.1c0-0.1,0-0.1,0.1-0.2c0,0,0-0.1,0-0.1c0,0,0,0,0-0.1c0,0,0.4,0,0.4,0l54.6-247.6c0,0,0,0,0,0
	c0-0.1-0.3-0.3-0.4-0.4c0,0-0.2-0.1-0.2-0.1c0-0.1-0.1-0.2-0.2-0.3c0,0-0.1-0.1-0.1-0.1c0,0-0.1-0.1-0.1-0.1L654.9,457l160.7-121.7
	C816,335,816.1,334.5,815.9,334z M537.7,543.2C537.7,543.2,537.7,543.3,537.7,543.2c0,0.2,0,0.2,0,0.3c0,0,0,0.1,0,0.1
	c0,0,0,0.1,0,0.1c0,0,0,0.1,0,0.1c0,0,0,0.1,0,0.1c0,0.1,0.1,0.1,0.1,0.2c0,0,0,0.1,0.1,0.1c0,0.1,0.1,0.1,0.1,0.1c0,0,0,0,0.1,0.1
	c0,0,0,0,0,0c0.1,0,0.1,0.1,0.2,0.1c0,0,0.1,0,0.1,0c0,0,0,0,0,0l146.7,38.1L757.9,859l-287.8-287l136.2-265.7L537.7,543.2z
	 M467.4,572.4l-26,50.7L271.4,495.8l-77-195.8L467.4,572.4z M194.6,297.6h413.9L468.5,570.8L194.6,297.6z M440.4,625l-43,83.8
	l-50.7-21.3l-73.8-187.7L440.4,625z M396.5,710.8l-22.9,44.7l-25.6-65.2L396.5,710.8z M469.1,574l279.1,278.4l-305-228.1L469.1,574z
	 M442.2,626.3l309.3,231.3l-352-148L442.2,626.3z M192.7,294.6l-39.7-142.9l448.8,142.9H192.7z M149.8,147.6
	c-0.2,0.1-0.4,0.3-0.5,0.5c-0.2,0.3-0.3,0.6-0.3,1l-88.1,86.6l-54,53L174,6.8L149.8,147.6z M149.7,151.8l39.7,142.8H4.4L149.7,151.8
	z M191.9,299.8L268,493.3l-93.6-70L191.9,299.8z M370.9,754.8L145.9,624.9l2.6-18.4L345,689.1L370.9,754.8z M369.6,757.9
	L112.7,860.1l32.8-231.6L369.6,757.9z M110.9,856.5L4.7,547.2l138.7,80.1L110.9,856.5z M375,757.5l23.5-45.8l347.2,146L375,757.5z
	 M541.3,543l68.3-51.7l43-32.5l32,121.4L541.3,543z M540.8,540.6l69.8-241l41.3,156.8L540.8,540.6z M609.5,294.6h-0.5L156.8,150.2
	l544.1-78.2L609.5,294.6z M152.1,147.2L177,2.5l321.2,94.8L152.1,147.2z M5,296.6h185.1l-17.7,125.2L5,296.6z M174.1,425.8
	l95.5,71.4l74.4,189l-195.1-82L174.1,425.8z M146.4,605.6l-2.6,18.1L21.5,553.1L146.4,605.6z M118.5,861.6L374,759.9
	c0.1,0,0.2,0,0.3-0.1L751,861.6 M759.9,857.9l-72.3-274.6l125.3,32.5L759.9,857.9z M735.2,593.4L687,580.8l-31.7-120.3l155.2,152.4
	L735.2,593.4z M653.8,455L612,296.4c0.1-0.1,0.1-0.2,0.2-0.3L703.9,73l109.7,261L653.8,455z"/>
</svg>
