<?xml version="1.0" encoding="utf-8"?>
<!-- Generator: Adobe Illustrator 19.0.0, SVG Export Plug-In . SVG Version: 6.00 Build 0)  -->
<svg version="1.1" id="Capa_1" xmlns="http://www.w3.org/2000/svg" xmlns:xlink="http://www.w3.org/1999/xlink" x="0px" y="0px"
	 viewBox="-278 369 55 55" style="enable-background:new -278 369 55 55;" xml:space="preserve">
<style type="text/css">
	.st0{fill:#E05115;}
</style>
<g>
	<circle class="st0" cx="-233" cy="395" r="1"/>
	<circle class="st0" cx="-269" cy="395" r="1"/>
	<circle class="st0" cx="-266" cy="398" r="1"/>
	<circle class="st0" cx="-260" cy="398" r="1"/>
	<circle class="st0" cx="-263" cy="401" r="1"/>
	<circle class="st0" cx="-257" cy="401" r="1"/>
	<circle class="st0" cx="-254" cy="404" r="1"/>
	<circle class="st0" cx="-248" cy="404" r="1"/>
	<circle class="st0" cx="-245" cy="401" r="1"/>
	<circle class="st0" cx="-251" cy="407" r="1"/>
	<circle class="st0" cx="-242" cy="398" r="1"/>
	<circle class="st0" cx="-236" cy="398" r="1"/>
	<circle class="st0" cx="-239" cy="401" r="1"/>
	<path class="st0" d="M-232.4,401.8l9.4-5.4l-9.7-5.5l9.7-5.5l-27.5-15.6l-27.5,15.6l9.7,5.5l-9.7,5.5l9.7,5.5l-9.7,5.5l27.5,15.7
		l27.5-15.7l-9.7-5.5l0.1,0C-232.6,401.9-232.5,401.9-232.4,401.8z M-250.5,372.2l23.4,13.3l-7.6,4.4l0,0l-15.8,9l-23.4-13.4
		L-250.5,372.2z M-266.9,392.5c0.2,0.3,0.5,0.6,0.9,0.6c0.3,0,0.5-0.1,0.7-0.3l2.3,1.3c-0.5,0-1,0.5-1,1c0,0.6,0.4,1,1,1s1-0.4,1-1
		c0-0.2-0.1-0.3-0.1-0.5l10.3,5.9c-0.1,0.2-0.2,0.4-0.2,0.6c0,0.6,0.4,1,1,1s1-0.4,1-1c0-0.1,0-0.1,0-0.1l10.1-5.7
		c0.1,0.5,0.5,0.9,1,0.9c0.6,0,1-0.4,1-1c0-0.3-0.2-0.6-0.4-0.8l2.2-1.3c0.1,0,0.1,0,0.2,0c0.4,0,0.8-0.3,0.9-0.7l0.3-0.2l7.6,4.3
		l-2,1.1c-0.2-0.3-0.5-0.6-0.9-0.6c-0.6,0-1,0.4-1,1c0,0.2,0.1,0.4,0.2,0.6l-3.9,2.3l0,0l-6.4,3.6c0.1-0.1,0.1-0.3,0.1-0.5
		c0-0.6-0.4-1-1-1c-0.6,0-1,0.4-1,1c0,0.5,0.4,1,1,1l-2.3,1.3c-0.2-0.2-0.4-0.3-0.7-0.3c-0.6,0-1,0.4-1,1c0,0.1,0,0.2,0,0.2
		l-4.6,2.6l-5.5-3.2c-0.1-0.4-0.5-0.7-0.9-0.7c-0.1,0-0.1,0-0.2,0l-2.2-1.3c0.2-0.2,0.4-0.5,0.4-0.8c0-0.6-0.4-1-1-1
		c-0.5,0-0.9,0.4-1,0.9l-10.1-5.7c0,0,0-0.1,0-0.1c0-0.6-0.4-1-1-1c-0.2,0-0.4,0.1-0.6,0.2l-1.4-0.8L-266.9,392.5z M-227.1,407.5
		l-23.4,13.4l-23.4-13.4l7.6-4.3l15.8,9l15.8-9L-227.1,407.5z"/>
</g>
</svg>
