<?xml version="1.0" encoding="utf-8"?>
<!-- Generator: Adobe Illustrator 19.0.0, SVG Export Plug-In . SVG Version: 6.00 Build 0)  -->
<svg version="1.1" id="Layer_1" xmlns="http://www.w3.org/2000/svg" xmlns:xlink="http://www.w3.org/1999/xlink" x="0px" y="0px"
	 viewBox="-49 141 512 512" style="enable-background:new -49 141 512 512;" xml:space="preserve">
<style type="text/css">
	.st0{fill:#E05115;}
</style>
<g>
	<rect x="7" y="525.2" class="st0" width="160" height="15.7"/>
	<rect x="199.2" y="525" class="st0" width="15.7" height="48"/>
	<rect x="247.2" y="525" class="st0" width="15.7" height="48"/>
	<rect x="295.2" y="525" class="st0" width="15.7" height="48"/>
	<rect x="343.2" y="525" class="st0" width="15.7" height="48"/>
	<rect x="391.2" y="525" class="st0" width="15.7" height="48"/>
	<path class="st0" d="M454.8,621.2V384.3l-112.7,56.3l-15.8-283.5h-78.8L231.5,416l-49.5,24.8l-15.7-211.6H87.8L71.6,416
		l-112.4,56.2v149H-49v15.7h512v-15.7L454.8,621.2L454.8,621.2z M262.4,172.8h49.2l0.9,16.3h-51.2L262.4,172.8z M260.4,204.8h53
		l0.9,16.3h-54.9L260.4,204.8z M258.4,236.8h56.8l11.7,211.5l-32.1,16v-80l-47.2,23.6L258.4,236.8z M102.2,244.8h49.5l1.2,16.3
		h-52.2L102.2,244.8z M99.4,276.8h54.7l1.2,16.3H98L99.4,276.8z M96.6,308.8h59.9l10.3,139.5l-32,16v-80L88,407.7L96.6,308.8z
		 M7.2,621.2h-32.3v-16.3H7.2L7.2,621.2L7.2,621.2z M151.2,621.2H22.8v-56.3h128.3V621.2z M439.2,621.2H166.8v-16.3h272.3V621.2z
		 M439.2,589.2H166.8v-40H7.2v40h-32.3V481.8l144.3-72.2v80l160-80v80l160-80L439.2,589.2L439.2,589.2z"/>
</g>
</svg>
