<?xml version="1.0" encoding="utf-8"?>
<!-- Generator: Adobe Illustrator 19.0.0, SVG Export Plug-In . SVG Version: 6.00 Build 0)  -->
<svg version="1.1" id="Layer_1" xmlns="http://www.w3.org/2000/svg" xmlns:xlink="http://www.w3.org/1999/xlink" x="0px" y="0px"
	 viewBox="-65 157 480 480" style="enable-background:new -65 157 480 480;" xml:space="preserve">
<style type="text/css">
	.st0{fill:#E05115;}
</style>
<g>
	<g>
		<path class="st0" d="M111,461c-26.5,0-48,21.5-48,48s21.5,48,48,48s48-21.5,48-48S137.5,461,111,461z M111,541
			c-17.6,0-32-14.4-32-32s14.4-32,32-32s32,14.4,32,32S128.6,541,111,541z"/>
	</g>
</g>
<g>
	<g>
		<path class="st0" d="M111,237c-26.5,0-48,21.5-48,48s21.5,48,48,48s48-21.5,48-48S137.5,237,111,237z M111,317
			c-17.6,0-32-14.4-32-32s14.4-32,32-32s32,14.4,32,32S128.6,317,111,317z"/>
	</g>
</g>
<g>
	<g>
		<path class="st0" d="M-17,461c-26.5,0-48,21.5-48,48s21.5,48,48,48s48-21.5,48-48S9.5,461-17,461z M-17,541c-17.6,0-32-14.4-32-32
			s14.4-32,32-32s32,14.4,32,32S0.6,541-17,541z"/>
	</g>
</g>
<g>
	<g>
		<path class="st0" d="M-17,237c-26.5,0-48,21.5-48,48s21.5,48,48,48s48-21.5,48-48S9.5,237-17,237z M-17,317c-17.6,0-32-14.4-32-32
			s14.4-32,32-32s32,14.4,32,32S0.6,317-17,317z"/>
	</g>
</g>
<g>
	<g>
		<path class="st0" d="M239,349c-26.5,0-48,21.5-48,48s21.5,48,48,48s48-21.5,48-48S265.5,349,239,349z M239,429
			c-17.6,0-32-14.4-32-32s14.4-32,32-32s32,14.4,32,32S256.6,429,239,429z"/>
	</g>
</g>
<g>
	<g>
		<path class="st0" d="M239,461c-26.5,0-48,21.5-48,48s21.5,48,48,48s48-21.5,48-48S265.5,461,239,461z M239,541
			c-17.6,0-32-14.4-32-32s14.4-32,32-32s32,14.4,32,32S256.6,541,239,541z"/>
	</g>
</g>
<g>
	<g>
		<path class="st0" d="M391,411.5V309v-56v-8c0-2.7-1.4-5.2-3.6-6.7c-2.3-1.5-5.1-1.7-7.6-0.6l-72,32c-2.9,1.3-4.8,4.1-4.8,7.3
			s1.9,6,4.8,7.3l67.2,29.9v91.5c-2.6-0.4-5.3-0.7-8-0.7c-10.1,0-19.4,3.1-27.1,8.4l-59.5-104.2c4.2-7.1,6.6-15.4,6.6-24.2
			c0-26.5-21.5-48-48-48s-48,21.5-48,48c0,8,2,15.5,5.4,22.1l-61.9,48.1c-7-3.9-15-6.2-23.6-6.2c-23.7,0-43.4,17.3-47.3,40H30.3
			c-3.8-22.7-23.5-40-47.3-40c-26.5,0-48,21.5-48,48s21.5,48,48,48c23.7,0,43.4-17.3,47.3-40h33.4c3.8,22.7,23.5,40,47.3,40
			c26.5,0,48-21.5,48-48c0-12-4.5-23-11.8-31.4l58.8-45.8c8.6,8.1,20.2,13.2,32.9,13.2c11.5,0,22-4.1,30.3-10.8L328,425l0.1-0.1
			c-5.7,7.9-9.2,17.6-9.2,28.1c0,26.5,21.5,48,48,48s48-21.5,48-48C415,435.3,405.3,419.8,391,411.5z M-17,429
			c-17.6,0-32-14.4-32-32s14.4-32,32-32s32,14.4,32,32S0.6,429-17,429z M111,429c-17.6,0-32-14.4-32-32s14.4-32,32-32s32,14.4,32,32
			S128.6,429,111,429z M239,317c-17.6,0-32-14.4-32-32s14.4-32,32-32s32,14.4,32,32S256.6,317,239,317z M330.7,277l44.3-19.7v39.4
			L330.7,277z M367,485c-17.6,0-32-14.4-32-32s14.4-32,32-32c2.8,0,5.4,0.5,8,1.1V453h16v-20.9c4.9,5.6,8,12.9,8,20.9
			C399,470.6,384.6,485,367,485z"/>
	</g>
</g>
<g>
	<g>
		<rect x="327" y="517" class="st0" width="16" height="16"/>
	</g>
</g>
<g>
	<g>
		<rect x="359" y="517" class="st0" width="16" height="16"/>
	</g>
</g>
<g>
	<g>
		<rect x="391" y="517" class="st0" width="16" height="16"/>
	</g>
</g>
</svg>
