<?xml version="1.0" encoding="utf-8"?>
<!-- Generator: Adobe Illustrator 19.0.0, SVG Export Plug-In . SVG Version: 6.00 Build 0)  -->
<svg version="1.1" xmlns="http://www.w3.org/2000/svg" xmlns:xlink="http://www.w3.org/1999/xlink" x="0px" y="0px"
	 viewBox="0 0 141 151.3" style="enable-background:new 0 0 141 151.3;" xml:space="preserve">
<style type="text/css">
	.st0{fill:#F47321;}
</style>
<g id="Layer_1">
	<polygon class="st0" points="52.5,117.8 52.4,117.9 47.5,106.3 47.6,106.2 	"/>
	<rect x="52.4" y="102.2" transform="matrix(0.184 -0.9829 0.9829 0.184 -62.5409 139.0303)" class="st0" width="0.2" height="10"/>
	<polygon class="st0" points="57.4,108.2 52.5,117.9 52.4,117.8 57.3,108.1 	"/>
	<polygon class="st0" points="55.9,99.6 47.6,106.3 47.5,106.2 55.8,99.4 	"/>
	<polygon class="st0" points="57.5,108.1 57.3,108.1 55.8,99.5 55.9,99.4 	"/>
	<polygon class="st0" points="63.5,113.3 52.4,117.9 52.4,117.7 63.5,113.1 	"/>
	<polygon class="st0" points="63.5,113.1 63.4,113.3 57.3,108.2 57.4,108 	"/>
	<polygon class="st0" points="62.8,98 55.9,99.6 55.9,99.4 62.8,97.8 	"/>
	<polygon class="st0" points="62.9,98 57.4,108.2 57.3,108.1 62.8,97.9 	"/>
	<polygon class="st0" points="63.6,113.1 63.4,113.2 62.7,97.9 62.9,97.9 	"/>
	<polygon class="st0" points="61.8,122 61.8,122.2 52.4,117.9 52.5,117.7 	"/>
	
		<rect x="58.1" y="117.6" transform="matrix(0.1847 -0.9828 0.9828 0.1847 -64.5318 157.4667)" class="st0" width="9.1" height="0.2"/>
	<polygon class="st0" points="71.3,119.4 61.8,122.2 61.8,122 71.3,119.2 	"/>
	<polygon class="st0" points="71.4,119.2 71.3,119.4 63.4,113.3 63.5,113.1 	"/>
	<polygon class="st0" points="71.2,107.1 63.5,113.2 63.4,113.1 71.1,107 	"/>
	<polygon class="st0" points="71.2,107 71.1,107.1 62.8,98 62.9,97.8 	"/>
	<polygon class="st0" points="71.4,119.2 71.3,119.3 71.1,107.1 71.2,107 	"/>
	<polygon class="st0" points="72.4,89.9 62.9,98 62.8,97.8 72.3,89.7 	"/>
	<polygon class="st0" points="71.2,107 71.1,107.1 72.3,89.8 72.5,89.8 	"/>
	<polygon class="st0" points="79.7,109.7 71.4,119.3 71.3,119.2 79.6,109.6 	"/>
	<polygon class="st0" points="79.7,109.5 79.7,109.7 71.1,107.1 71.2,106.9 	"/>
	<polygon class="st0" points="77.7,96.5 71.2,107.1 71.1,107 77.6,96.4 	"/>
	<polygon class="st0" points="77.7,96.4 77.6,96.5 72.3,89.8 72.4,89.7 	"/>
	<polygon class="st0" points="79.8,109.6 79.6,109.7 77.6,96.5 77.7,96.4 	"/>
	<polygon class="st0" points="76.1,129.1 75.9,129.3 71.3,119.3 71.4,119.2 	"/>
	<polygon class="st0" points="83,120.3 71.3,119.4 71.4,119.2 83.1,120.1 	"/>
	<polygon class="st0" points="83.1,120.2 83,120.3 79.6,109.7 79.7,109.6 	"/>
	<polygon class="st0" points="83.1,120.3 76,129.3 75.9,129.1 83,120.1 	"/>
	<polygon class="st0" points="88.8,108.5 79.7,109.7 79.7,109.5 88.8,108.3 	"/>
	<polygon class="st0" points="88.8,108.5 83.1,120.3 83,120.2 88.7,108.4 	"/>
	<polygon class="st0" points="86.1,97.4 79.7,109.7 79.6,109.6 85.9,97.3 	"/>
	<polygon class="st0" points="86,97.4 77.6,96.6 77.7,96.3 86,97.2 	"/>
	<polygon class="st0" points="88.9,108.4 88.7,108.4 85.9,97.3 86.1,97.3 	"/>
	<polygon class="st0" points="82.4,86.5 77.7,96.5 77.6,96.4 82.3,86.4 	"/>
	<polygon class="st0" points="82.3,86.6 72.4,89.9 72.4,89.7 82.3,86.4 	"/>
	<polygon class="st0" points="86.1,97.3 85.9,97.4 82.3,86.5 82.4,86.4 	"/>
	<polygon class="st0" points="93.3,92.2 86,97.4 86,97.2 93.3,92 	"/>
	<polygon class="st0" points="98.6,104.8 88.8,108.5 88.8,108.3 98.6,104.6 	"/>
	<polygon class="st0" points="93.4,92.1 88.9,108.4 88.7,108.4 93.2,92.1 	"/>
	<polygon class="st0" points="98.7,104.6 98.6,104.7 93.2,92.2 93.4,92 	"/>
	<path class="st0" d="M47.8,105.6c0.3,0.1,0.5,0.4,0.4,0.8c-0.1,0.4-0.4,0.7-0.7,0.6c-0.3-0.1-0.5-0.4-0.4-0.8
		C47.3,105.8,47.5,105.5,47.8,105.6"/>
	<path class="st0" d="M52.6,117.1c0.3,0.1,0.5,0.4,0.4,0.8c-0.1,0.4-0.4,0.7-0.7,0.6c-0.3-0.1-0.5-0.4-0.4-0.8
		C52,117.4,52.3,117.1,52.6,117.1"/>
	<path class="st0" d="M57.5,107.4c0.3,0.1,0.5,0.4,0.4,0.8c-0.1,0.4-0.4,0.7-0.7,0.6c-0.3-0.1-0.5-0.4-0.4-0.8
		C56.9,107.6,57.2,107.3,57.5,107.4"/>
	<path class="st0" d="M56,98.8c0.3,0.1,0.5,0.4,0.4,0.8c-0.1,0.4-0.4,0.7-0.7,0.6c-0.3-0.1-0.5-0.4-0.4-0.8
		C55.4,99,55.7,98.7,56,98.8"/>
	<path class="st0" d="M63,97.2c0.3,0.1,0.5,0.4,0.4,0.8c-0.1,0.4-0.4,0.7-0.7,0.6c-0.3-0.1-0.5-0.4-0.4-0.8
		C62.4,97.4,62.7,97.2,63,97.2"/>
	<path class="st0" d="M63.6,112.5c0.3,0.1,0.5,0.4,0.4,0.8c-0.1,0.4-0.4,0.7-0.7,0.6c-0.3-0.1-0.5-0.4-0.4-0.8
		C63.1,112.7,63.3,112.4,63.6,112.5"/>
	<path class="st0" d="M61.9,121.4c0.3,0.1,0.5,0.4,0.4,0.8c-0.1,0.4-0.4,0.7-0.7,0.6c-0.3-0.1-0.5-0.4-0.4-0.8
		C61.4,121.6,61.6,121.3,61.9,121.4"/>
	<path class="st0" d="M71.4,118.4c0.3,0.1,0.5,0.4,0.4,0.8c-0.1,0.4-0.4,0.7-0.7,0.6c-0.3-0.1-0.5-0.4-0.4-0.8
		C70.9,118.7,71.1,118.4,71.4,118.4"/>
	<path class="st0" d="M71.3,106.3c0.3,0.1,0.5,0.4,0.4,0.8c-0.1,0.4-0.4,0.7-0.7,0.6c-0.3-0.1-0.5-0.4-0.4-0.8
		C70.7,106.5,71,106.2,71.3,106.3"/>
	<path class="st0" d="M72.5,89.1c0.3,0.1,0.5,0.4,0.4,0.8c-0.1,0.4-0.4,0.7-0.7,0.6c-0.3-0.1-0.5-0.4-0.4-0.8
		C72,89.4,72.3,89.1,72.5,89.1"/>
	<path class="st0" d="M77.9,95.7c0.3,0.1,0.5,0.4,0.4,0.8c-0.1,0.4-0.4,0.7-0.7,0.6c-0.3-0.1-0.5-0.4-0.4-0.8
		C77.3,95.9,77.6,95.7,77.9,95.7"/>
	<path class="st0" d="M82.4,85.7c0.3,0.1,0.5,0.4,0.4,0.8c-0.1,0.4-0.4,0.7-0.7,0.6c-0.3-0.1-0.5-0.4-0.4-0.8
		C81.8,85.9,82.1,85.7,82.4,85.7"/>
	<path class="st0" d="M79.8,108.8c0.3,0.1,0.5,0.4,0.4,0.8c-0.1,0.4-0.4,0.7-0.7,0.6c-0.3-0.1-0.5-0.4-0.4-0.8
		C79.2,109,79.5,108.7,79.8,108.8"/>
	<path class="st0" d="M76.1,128.2c0.3,0.1,0.5,0.4,0.4,0.8c-0.1,0.4-0.4,0.7-0.7,0.6c-0.3-0.1-0.5-0.4-0.4-0.8
		C75.5,128.4,75.8,128.2,76.1,128.2"/>
	<path class="st0" d="M83.2,119.4c0.3,0.1,0.5,0.4,0.4,0.8c-0.1,0.4-0.4,0.7-0.7,0.6c-0.3-0.1-0.5-0.4-0.4-0.8
		C82.6,119.6,82.9,119.4,83.2,119.4"/>
	<path class="st0" d="M88.9,107.6c0.3,0.1,0.5,0.4,0.4,0.8c-0.1,0.4-0.4,0.7-0.7,0.6c-0.3-0.1-0.5-0.4-0.4-0.8
		C88.3,107.8,88.6,107.5,88.9,107.6"/>
	<path class="st0" d="M86.2,96.6c0.3,0.1,0.5,0.4,0.4,0.8c-0.1,0.4-0.4,0.7-0.7,0.6c-0.3-0.1-0.5-0.4-0.4-0.8
		C85.6,96.9,85.9,96.6,86.2,96.6"/>
	<path class="st0" d="M93.3,91.5c0.3,0.1,0.5,0.4,0.4,0.8c-0.1,0.4-0.4,0.7-0.7,0.6c-0.3-0.1-0.5-0.4-0.4-0.8
		C92.8,91.7,93.1,91.4,93.3,91.5"/>
	<path class="st0" d="M98.6,103.8c0.3,0.1,0.5,0.4,0.4,0.8c-0.1,0.4-0.4,0.7-0.7,0.6c-0.3-0.1-0.5-0.4-0.4-0.8
		C98,104,98.3,103.8,98.6,103.8"/>
	<rect x="7.9" y="100" transform="matrix(0.8541 -0.52 0.52 0.8541 -57.9157 20.7738)" class="st0" width="0.4" height="27.2"/>
	<rect x="13.7" y="91.3" transform="matrix(0.1835 -0.983 0.983 0.1835 -91.3084 98.9581)" class="st0" width="0.4" height="26.3"/>
	
		<rect x="10.1" y="115.9" transform="matrix(0.5365 -0.8439 0.8439 0.5365 -88.2166 71.5164)" class="st0" width="21.8" height="0.4"/>
	<rect x="-0.7" y="95.7" transform="matrix(0.8626 -0.506 0.506 0.8626 -46.9617 18.9536)" class="st0" width="24.1" height="0.4"/>
	<rect x="24.1" y="89.5" transform="matrix(0.9594 -0.282 0.282 0.9594 -26.7491 10.8523)" class="st0" width="0.4" height="17.8"/>
	
		<rect x="14.6" y="121.2" transform="matrix(0.9644 -0.2644 0.2644 0.9644 -31.0582 12.0565)" class="st0" width="29.2" height="0.4"/>
	
		<rect x="34.9" y="102.4" transform="matrix(0.543 -0.8397 0.8397 0.543 -78.1758 80.7361)" class="st0" width="0.4" height="19.6"/>
	<rect x="21.7" y="88.6" transform="matrix(0.993 -0.118 0.118 0.993 -10.26 4.2501)" class="st0" width="18" height="0.4"/>
	
		<rect x="21.7" y="97.1" transform="matrix(0.5569 -0.8306 0.8306 0.5569 -66.0593 70.7369)" class="st0" width="23.1" height="0.4"/>
	
		<rect x="41.3" y="87.6" transform="matrix(0.9924 -0.1231 0.1231 0.9924 -12.3163 5.8929)" class="st0" width="0.4" height="30.1"/>
	
		<rect x="27.4" y="116.6" transform="matrix(0.3544 -0.9351 0.9351 0.3544 -103.7188 109.7611)" class="st0" width="0.4" height="26.7"/>
	
		<rect x="33" y="125.9" transform="matrix(0.1847 -0.9828 0.9828 0.1847 -89.936 143.8531)" class="st0" width="17.5" height="0.4"/>
	
		<rect x="39.9" y="132.4" transform="matrix(0.9848 -0.1737 0.1737 0.9848 -22.2377 11.1109)" class="st0" width="24.8" height="0.4"/>
	<rect x="53.8" y="111.5" transform="matrix(0.52 -0.8541 0.8541 0.52 -79.9878 105.6002)" class="st0" width="0.4" height="24.8"/>
	
		<rect x="41.9" y="111.8" transform="matrix(0.8684 -0.4958 0.4958 0.8684 -48.5806 40.9927)" class="st0" width="22.1" height="0.4"/>
	<rect x="50.9" y="82.3" transform="matrix(0.636 -0.7717 0.7717 0.636 -56.3383 74.8091)" class="st0" width="0.4" height="29.6"/>
	
		<rect x="63.4" y="106.5" transform="matrix(0.9963 -8.554406e-002 8.554406e-002 0.9963 -9.9031 5.8724)" class="st0" width="0.4" height="24"/>
	<rect x="37.6" y="80.1" transform="matrix(0.851 -0.5251 0.5251 0.851 -34.4925 39.0784)" class="st0" width="28" height="0.4"/>
	
		<rect x="62.9" y="73" transform="matrix(0.9995 3.012989e-002 -3.012989e-002 0.9995 2.7331 -1.859)" class="st0" width="0.4" height="33.6"/>
	
		<rect x="61.3" y="121.3" transform="matrix(0.7556 -0.655 0.655 0.7556 -61.3294 78.7156)" class="st0" width="27.1" height="0.4"/>
	
		<rect x="73.6" y="97.9" transform="matrix(0.2614 -0.9652 0.9652 0.2614 -51.2865 152.2014)" class="st0" width="0.4" height="23.3"/>
	
		<rect x="57.7" y="96.4" transform="matrix(0.6165 -0.7873 0.7873 0.6165 -49.0972 92.4313)" class="st0" width="25.2" height="0.4"/>
	<rect x="70.6" y="69.8" transform="matrix(0.6841 -0.7294 0.7294 0.6841 -35.8448 76.8811)" class="st0" width="0.4" height="20"/>
	
		<rect x="81.4" y="86.2" transform="matrix(0.9659 -0.2591 0.2591 0.9659 -23.0371 24.5415)" class="st0" width="0.4" height="26.9"/>
	
		<rect x="71.1" y="128.4" transform="matrix(0.8317 -0.5553 0.5553 0.8317 -65.9771 63.2181)" class="st0" width="0.4" height="24.1"/>
	
		<rect x="64.5" y="131.9" transform="matrix(0.9941 0.1088 -0.1088 0.9941 14.8399 -7.903)" class="st0" width="30.8" height="0.4"/>
	<rect x="89.9" y="111.5" transform="matrix(0.9028 -0.43 0.43 0.9028 -44.231 50.727)" class="st0" width="0.4" height="23.4"/>
	
		<rect x="74.6" y="141.9" transform="matrix(0.7181 -0.6959 0.6959 0.7181 -74.4883 100.2996)" class="st0" width="23.9" height="0.4"/>
	
		<rect x="85" y="111.9" transform="matrix(0.9986 -5.228957e-002 5.228957e-002 0.9986 -5.7268 5.217)" class="st0" width="23.6" height="0.4"/>
	
		<rect x="88.9" y="122.4" transform="matrix(0.516 -0.8566 0.8566 0.516 -55.7085 146.608)" class="st0" width="26.1" height="0.4"/>
	
		<rect x="78.7" y="100.8" transform="matrix(0.5393 -0.8421 0.8421 0.5393 -42.4669 124.4532)" class="st0" width="27.6" height="0.4"/>
	<rect x="78" y="87.8" transform="matrix(0.9923 0.1242 -0.1242 0.9923 11.6197 -10.3735)" class="st0" width="22" height="0.4"/>
	
		<rect x="104.1" y="88.6" transform="matrix(0.9311 -0.3649 0.3649 0.9311 -29.4521 44.9754)" class="st0" width="0.4" height="23.7"/>
	
		<rect x="72.7" y="77" transform="matrix(0.5009 -0.8655 0.8655 0.5009 -25.1409 110.8944)" class="st0" width="21.8" height="0.4"/>
	<rect x="63.3" y="70.2" transform="matrix(0.9802 -0.1983 0.1983 0.9802 -12.4407 16.5228)" class="st0" width="26" height="0.4"/>
	
		<rect x="94.3" y="66.5" transform="matrix(0.8929 -0.4502 0.4502 0.8929 -25.2733 50.9647)" class="st0" width="0.4" height="24.2"/>
	
		<rect x="98.9" y="84.6" transform="matrix(0.8925 -0.4511 0.4511 0.8925 -26.5142 58.3362)" class="st0" width="20.5" height="0.4"/>
	
		<rect x="108.3" y="108.2" transform="matrix(0.972 -0.2349 0.2349 0.972 -22.0741 31.5032)" class="st0" width="25.9" height="0.4"/>
	
		<rect x="97.1" y="95.6" transform="matrix(0.2948 -0.9556 0.9556 0.2948 -11.543 175.9584)" class="st0" width="32.7" height="0.4"/>
	<rect x="125.8" y="78" transform="matrix(0.8524 -0.523 0.523 0.8524 -29.9062 79.5958)" class="st0" width="0.4" height="29.6"/>
	
		<rect x="128.1" y="10" transform="matrix(-0.5075 0.8617 -0.8617 -0.5075 213.7387 -74.9551)" class="st0" width="0.4" height="27.2"/>
	
		<rect x="127.3" y="21.3" transform="matrix(0.3019 0.9533 -0.9533 0.3019 121.8511 -97.4645)" class="st0" width="0.4" height="26.3"/>
	
		<rect x="104.9" y="27.4" transform="matrix(-7.512269e-002 0.9972 -0.9972 -7.512269e-002 151.9345 -85.7994)" class="st0" width="21.8" height="0.4"/>
	
		<rect x="121.6" y="40.6" transform="matrix(-0.5221 0.8529 -0.8529 -0.5221 238.3206 -51.9339)" class="st0" width="24.1" height="0.4"/>
	
		<rect x="121" y="35.9" transform="matrix(-0.7121 0.7021 -0.7021 -0.7121 238.8881 -8.4482)" class="st0" width="0.4" height="17.8"/>
	
		<rect x="91.3" y="26.6" transform="matrix(-0.7258 0.6879 -0.6879 -0.7258 201.2788 -26.7162)" class="st0" width="29.2" height="0.4"/>
	
		<rect x="104.9" y="27.8" transform="matrix(-8.303913e-002 0.9965 -0.9965 -8.303913e-002 151.3648 -64.0423)" class="st0" width="0.4" height="19.6"/>
	<rect x="111" y="56" transform="matrix(-0.82 0.5723 -0.5723 -0.82 250.6464 33.6771)" class="st0" width="18" height="0.4"/>
	
		<rect x="102.2" y="49.7" transform="matrix(-9.940045e-002 0.995 -0.995 -9.940045e-002 174.7641 -58.3561)" class="st0" width="23.1" height="0.4"/>
	
		<rect x="103.8" y="34.1" transform="matrix(-0.8175 0.576 -0.576 -0.8175 217.2984 29.3525)" class="st0" width="0.4" height="30.1"/>
	
		<rect x="103.1" y="5" transform="matrix(0.1284 0.9917 -0.9917 0.1284 108.3155 -86.4352)" class="st0" width="0.4" height="26.7"/>
	<rect x="84" y="28.3" transform="matrix(0.3006 0.9537 -0.9537 0.3006 91.9903 -68.5271)" class="st0" width="17.5" height="0.4"/>
	
		<rect x="67.9" y="27.6" transform="matrix(-0.7865 0.6176 -0.6176 -0.7865 160.6372 2.317041e-002)" class="st0" width="24.8" height="0.4"/>
	
		<rect x="82.7" y="23.7" transform="matrix(-5.532017e-002 0.9985 -0.9985 -5.532017e-002 123.6154 -44.6889)" class="st0" width="0.4" height="24.8"/>
	<rect x="78.4" y="46" transform="matrix(-0.532 0.8467 -0.8467 -0.532 176.1728 -5.0112)" class="st0" width="22.1" height="0.4"/>
	
		<rect x="97.9" y="43.7" transform="matrix(-0.1961 0.9806 -0.9806 -0.1961 174.6928 -26.2719)" class="st0" width="0.4" height="29.6"/>
	<rect x="76.9" y="33.5" transform="matrix(-0.8378 0.546 -0.546 -0.8378 166.4713 41.5385)" class="st0" width="0.4" height="24"/>
	
		<rect x="91.6" y="73.3" transform="matrix(-0.5028 0.8644 -0.8644 -0.5028 222.2377 19.2053)" class="st0" width="28" height="0.4"/>
	
		<rect x="90.9" y="53.8" transform="matrix(-0.8954 0.4452 -0.4452 -0.8954 204.0394 93.2488)" class="st0" width="0.4" height="33.6"/>
	
		<rect x="52.1" y="47.9" transform="matrix(-0.3575 0.9339 -0.9339 -0.3575 134.1113 3.9455)" class="st0" width="27.1" height="0.4"/>
	
		<rect x="72" y="46.5" transform="matrix(0.2241 0.9746 -0.9746 0.2241 112.7074 -25.2654)" class="st0" width="0.4" height="23.3"/>
	
		<rect x="68.8" y="67.8" transform="matrix(-0.1724 0.985 -0.985 -0.1724 162.4052 -0.4997)" class="st0" width="25.2" height="0.4"/>
	<rect x="88.7" y="73" transform="matrix(-0.2614 0.9652 -0.9652 -0.2614 192.2634 18.9211)" class="st0" width="0.4" height="20"/>
	
		<rect x="69.8" y="57.1" transform="matrix(-0.7294 0.6841 -0.6841 -0.7294 169.4237 74.1532)" class="st0" width="0.4" height="26.9"/>
	
		<rect x="59.7" y="17.8" transform="matrix(-0.4702 0.8826 -0.8826 -0.4702 114.3886 -9.0957)" class="st0" width="0.4" height="24.1"/>
	
		<rect x="40.9" y="41" transform="matrix(-0.9279 0.3729 -0.3729 -0.9279 123.8441 58.4164)" class="st0" width="30.8" height="0.4"/>
	
		<rect x="51.2" y="42.1" transform="matrix(-0.5935 0.8048 -0.8048 -0.5935 125.2852 44.4067)" class="st0" width="0.4" height="23.4"/>
	
		<rect x="33.7" y="35.3" transform="matrix(-0.3051 0.9523 -0.9523 -0.3051 93.4094 2.8778)" class="st0" width="23.9" height="0.4"/>
	<rect x="39" y="66.7" transform="matrix(-0.856 0.517 -0.517 -0.856 128.7807 97.8453)" class="st0" width="23.6" height="0.4"/>
	
		<rect x="28.3" y="59.7" transform="matrix(-5.116766e-002 0.9987 -0.9987 -5.116766e-002 103.31 21.7203)" class="st0" width="26.1" height="0.4"/>
	
		<rect x="46" y="74.3" transform="matrix(-7.852351e-002 0.9969 -0.9969 -7.852351e-002 138.7649 20.7993)" class="st0" width="27.6" height="0.4"/>
	
		<rect x="58" y="84.2" transform="matrix(-0.9336 0.3584 -0.3584 -0.9336 163.5742 138.3893)" class="st0" width="22" height="0.4"/>
	
		<rect x="49.5" y="68.8" transform="matrix(-0.6483 0.7614 -0.7614 -0.6483 143.2724 95.0765)" class="st0" width="0.4" height="23.7"/>
	
		<rect x="68" y="91.1" transform="matrix(-3.353764e-002 0.9994 -0.9994 -3.353764e-002 172.767 15.5384)" class="st0" width="21.8" height="0.4"/>
	<rect x="75.5" y="93.7" transform="matrix(-0.7708 0.637 -0.637 -0.7708 216.5918 109.909)" class="st0" width="26" height="0.4"/>
	
		<rect x="68.4" y="83.1" transform="matrix(-0.5731 0.8195 -0.8195 -0.5731 185.9614 93.6239)" class="st0" width="0.4" height="24.2"/>
	
		<rect x="42.5" y="96.5" transform="matrix(-0.5743 0.8186 -0.8186 -0.5743 162.2757 109.0052)" class="st0" width="20.5" height="0.4"/>
	
		<rect x="18.1" y="81.4" transform="matrix(-0.7464 0.6655 -0.6655 -0.7464 108.4461 121.8004)" class="st0" width="25.9" height="0.4"/>
	
		<rect x="27.4" y="88.8" transform="matrix(0.1906 0.9817 -0.9817 0.1906 122.829 29.0624)" class="st0" width="32.7" height="0.4"/>
	
		<rect x="33.9" y="82.8" transform="matrix(-0.5045 0.8634 -0.8634 -0.5045 135.6504 117.4067)" class="st0" width="0.4" height="29.6"/>
	<polygon class="st0" points="46.2,74.2 46.2,74.4 34.4,70.6 34.4,70.4 	"/>
	
		<rect x="38.2" y="62.5" transform="matrix(-0.6211 -0.7838 0.7838 -0.6211 9.2269 139.2958)" class="st0" width="0.2" height="9.8"/>
	<polygon class="st0" points="42.2,64.3 46.3,74.3 46.1,74.3 42.1,64.4 	"/>
	<polygon class="st0" points="34.8,59.9 34.5,70.5 34.3,70.4 34.7,59.9 	"/>
	<polygon class="st0" points="42.2,64.3 42.1,64.4 34.7,60 34.8,59.8 	"/>
	<polygon class="st0" points="49.9,63.1 46.3,74.4 46.1,74.3 49.8,63 	"/>
	<polygon class="st0" points="49.8,63 49.9,63.2 42.2,64.5 42.1,64.3 	"/>
	<polygon class="st0" points="38.2,53.8 34.8,60 34.7,59.8 38,53.7 	"/>
	<polygon class="st0" points="38.2,53.7 42.2,64.4 42.1,64.4 38,53.8 	"/>
	<polygon class="st0" points="49.9,63 49.8,63.2 38.1,53.8 38.1,53.7 	"/>
	<polygon class="st0" points="55.3,70 55.4,70.2 46.2,74.4 46.1,74.2 	"/>
	
		<rect x="48.1" y="66.5" transform="matrix(-0.6206 -0.7841 0.7841 -0.6206 33.0383 149.1917)" class="st0" width="8.9" height="0.1"/>
	<polygon class="st0" points="59.5,61.3 55.5,70.2 55.3,70.1 59.4,61.1 	"/>
	<polygon class="st0" points="59.4,61.1 59.5,61.3 49.9,63.2 49.8,63 	"/>
	<polygon class="st0" points="50.3,53.5 49.9,63.1 49.8,63.1 50.2,53.4 	"/>
	<polygon class="st0" points="50.2,53.4 50.3,53.5 38.1,53.8 38.1,53.7 	"/>
	<polygon class="st0" points="59.5,61.1 59.4,61.3 50.2,53.5 50.3,53.4 	"/>
	<polygon class="st0" points="38.3,41.4 38.2,53.8 38,53.7 38.1,41.4 	"/>
	<polygon class="st0" points="50.3,53.4 50.2,53.5 38.2,41.4 38.3,41.3 	"/>
	<polygon class="st0" points="57.8,48.8 59.5,61.2 59.4,61.2 57.6,48.8 	"/>
	<polygon class="st0" points="57.6,48.7 57.7,48.9 50.3,53.5 50.2,53.4 	"/>
	<polygon class="st0" points="46.7,41.8 50.3,53.4 50.2,53.5 46.5,41.8 	"/>
	<polygon class="st0" points="46.6,41.7 46.6,41.9 38.2,41.5 38.2,41.3 	"/>
	<polygon class="st0" points="57.7,48.7 57.6,48.9 46.5,41.9 46.6,41.7 	"/>
	<polygon class="st0" points="69.8,64.1 69.8,64.2 59.4,61.3 59.4,61.1 	"/>
	<polygon class="st0" points="67.8,53.2 59.5,61.3 59.4,61.1 67.6,53.1 	"/>
	<polygon class="st0" points="67.7,53 67.7,53.2 57.7,48.9 57.7,48.7 	"/>
	<polygon class="st0" points="67.8,53.1 69.9,64.2 69.7,64.1 67.6,53.1 	"/>
	<polygon class="st0" points="62.7,41.3 57.7,48.9 57.6,48.7 62.6,41.2 	"/>
	<polygon class="st0" points="62.7,41.2 67.8,53.1 67.6,53.1 62.6,41.3 	"/>
	<polygon class="st0" points="52.7,36.1 57.7,48.8 57.6,48.8 52.5,36.2 	"/>
	<polygon class="st0" points="52.7,36.2 46.6,41.9 46.5,41.7 52.5,36.1 	"/>
	<polygon class="st0" points="62.7,41.2 62.6,41.3 52.6,36.2 52.6,36.1 	"/>
	<polygon class="st0" points="42.3,31.9 46.6,41.8 46.5,41.8 42.1,31.9 	"/>
	<polygon class="st0" points="42.3,31.9 38.3,41.4 38.1,41.3 42.1,31.8 	"/>
	<polygon class="st0" points="52.6,36.1 52.6,36.2 42.2,32 42.2,31.8 	"/>
	<polygon class="st0" points="53.5,27.4 52.7,36.2 52.5,36.1 53.3,27.3 	"/>
	<polygon class="st0" points="66.3,31.6 62.7,41.3 62.6,41.2 66.1,31.5 	"/>
	<polygon class="st0" points="53.5,27.3 62.7,41.2 62.6,41.3 53.4,27.4 	"/>
	<polygon class="st0" points="66.2,31.4 66.2,31.6 53.4,27.5 53.4,27.3 	"/>
	<path class="st0" d="M34.1,69.8c0.2-0.2,0.6-0.1,0.8,0.2c0.2,0.3,0.3,0.7,0,0.9c-0.2,0.2-0.6,0.1-0.8-0.2
		C33.9,70.4,33.9,70,34.1,69.8"/>
	<path class="st0" d="M45.7,73.8c0.2-0.2,0.6-0.1,0.8,0.2c0.2,0.3,0.3,0.7,0,0.9c-0.2,0.2-0.6,0.1-0.8-0.2
		C45.5,74.3,45.5,74,45.7,73.8"/>
	<path class="st0" d="M41.7,63.8c0.2-0.2,0.6-0.1,0.8,0.2c0.2,0.3,0.3,0.7,0,0.9c-0.2,0.2-0.6,0.1-0.8-0.2
		C41.5,64.4,41.5,64,41.7,63.8"/>
	<path class="st0" d="M34.3,59.3c0.2-0.2,0.6-0.1,0.8,0.2c0.2,0.3,0.3,0.7,0,0.9c-0.2,0.2-0.6,0.1-0.8-0.2
		C34.1,59.9,34.1,59.5,34.3,59.3"/>
	<path class="st0" d="M37.7,53.2c0.2-0.2,0.6-0.1,0.8,0.2c0.2,0.3,0.3,0.7,0,0.9c-0.2,0.2-0.6,0.1-0.8-0.2
		C37.4,53.8,37.4,53.4,37.7,53.2"/>
	<path class="st0" d="M49.4,62.5c0.2-0.2,0.6-0.1,0.8,0.2c0.2,0.3,0.3,0.7,0,0.9c-0.2,0.2-0.6,0.1-0.8-0.2
		C49.2,63.1,49.2,62.7,49.4,62.5"/>
	<path class="st0" d="M54.9,69.6c0.2-0.2,0.6-0.1,0.8,0.2c0.2,0.3,0.3,0.7,0,0.9c-0.2,0.2-0.6,0.1-0.8-0.2
		C54.7,70.1,54.7,69.7,54.9,69.6"/>
	<path class="st0" d="M58.9,60.6c0.2-0.2,0.6-0.1,0.8,0.2c0.2,0.3,0.3,0.7,0,0.9c-0.2,0.2-0.6,0.1-0.8-0.2
		C58.7,61.2,58.7,60.8,58.9,60.6"/>
	<path class="st0" d="M49.7,52.9c0.2-0.2,0.6-0.1,0.8,0.2c0.2,0.3,0.3,0.7,0,0.9c-0.2,0.2-0.6,0.1-0.8-0.2
		C49.5,53.4,49.5,53,49.7,52.9"/>
	<path class="st0" d="M37.9,40.9c0.2-0.2,0.6-0.1,0.8,0.2c0.2,0.3,0.3,0.7,0,0.9c-0.2,0.2-0.6,0.1-0.8-0.2
		C37.6,41.4,37.6,41,37.9,40.9"/>
	<path class="st0" d="M46.2,41.2c0.2-0.2,0.6-0.1,0.8,0.2c0.2,0.3,0.3,0.7,0,0.9c-0.2,0.2-0.6,0.1-0.8-0.2
		C45.9,41.7,45.9,41.3,46.2,41.2"/>
	<path class="st0" d="M41.7,31.3c0.2-0.2,0.6-0.1,0.8,0.2c0.2,0.3,0.3,0.7,0,0.9c-0.2,0.2-0.6,0.1-0.8-0.2
		C41.5,31.9,41.5,31.5,41.7,31.3"/>
	<path class="st0" d="M57.1,48.2c0.2-0.2,0.6-0.1,0.8,0.2c0.2,0.3,0.3,0.7,0,0.9c-0.2,0.2-0.6,0.1-0.8-0.2
		C56.9,48.8,56.9,48.4,57.1,48.2"/>
	<path class="st0" d="M69.2,63.4c0.2-0.2,0.6-0.1,0.8,0.2c0.2,0.3,0.3,0.7,0,0.9c-0.2,0.2-0.6,0.1-0.8-0.2C69,64,69,63.6,69.2,63.4"
		/>
	<path class="st0" d="M67.2,52.5c0.2-0.2,0.6-0.1,0.8,0.2c0.2,0.3,0.3,0.7,0,0.9c-0.2,0.2-0.6,0.1-0.8-0.2
		C67,53.1,67,52.7,67.2,52.5"/>
	<path class="st0" d="M62.1,40.6c0.2-0.2,0.6-0.1,0.8,0.2c0.2,0.3,0.3,0.7,0,0.9c-0.2,0.2-0.6,0.1-0.8-0.2
		C61.9,41.2,61.9,40.8,62.1,40.6"/>
	<path class="st0" d="M52.2,35.6c0.2-0.2,0.6-0.1,0.8,0.2c0.2,0.3,0.3,0.7,0,0.9c-0.2,0.2-0.6,0.1-0.8-0.2
		C52,36.1,52,35.7,52.2,35.6"/>
	<path class="st0" d="M53,26.9c0.2-0.2,0.6-0.1,0.8,0.2c0.2,0.3,0.3,0.7,0,0.9c-0.2,0.2-0.6,0.1-0.8-0.2
		C52.8,27.5,52.8,27.1,53,26.9"/>
	<path class="st0" d="M65.5,31c0.2-0.2,0.6-0.1,0.8,0.2c0.2,0.3,0.3,0.7,0,0.9c-0.2,0.2-0.6,0.1-0.8-0.2
		C65.3,31.6,65.3,31.2,65.5,31"/>
	
		<rect x="14.2" y="91.2" transform="matrix(0.1685 -0.9857 0.9857 0.1685 -91.0601 101.1439)" class="st0" width="0.4" height="26.8"/>
	
		<rect x="11.2" y="81.3" transform="matrix(-0.6206 -0.7841 0.7841 -0.6206 -55.4982 161.7034)" class="st0" width="0.4" height="25.9"/>
	
		<rect x="13.8" y="96.3" transform="matrix(-0.285 -0.9585 0.9585 -0.285 -60.9549 147.5757)" class="st0" width="21.4" height="0.4"/>
	
		<rect x="-8.5" y="90.4" transform="matrix(0.1841 -0.9829 0.9829 0.1841 -86.3024 77.3066)" class="st0" width="23.7" height="0.4"/>
	
		<rect x="13.4" y="73.9" transform="matrix(0.4163 -0.9092 0.9092 0.4163 -67.2005 60.5438)" class="st0" width="0.4" height="17.5"/>
	
		<rect x="19.5" y="93.6" transform="matrix(0.4331 -0.9013 0.9013 0.4331 -65.3809 83.6939)" class="st0" width="28.8" height="0.4"/>
	
		<rect x="30.6" y="73.9" transform="matrix(-0.2784 -0.9605 0.9605 -0.2784 -40.8837 136.3965)" class="st0" width="0.4" height="19.3"/>
	
		<rect x="1.7" y="71.4" transform="matrix(0.5624 -0.8269 0.8269 0.5624 -54.6083 40.1022)" class="st0" width="17.7" height="0.4"/>
	
		<rect x="7.2" y="75.1" transform="matrix(-0.2615 -0.9652 0.9652 -0.2615 -49.2766 112.8641)" class="st0" width="22.7" height="0.4"/>
	<rect x="27.6" y="57.8" transform="matrix(0.56 -0.8285 0.8285 0.56 -47.896 54.9899)" class="st0" width="0.4" height="29.6"/>
	
		<rect x="39" y="87.4" transform="matrix(-0.4726 -0.8813 0.8813 -0.4726 -30.9237 182.6667)" class="st0" width="0.4" height="26.3"/>
	
		<rect x="36.8" y="87.4" transform="matrix(-0.6206 -0.7841 0.7841 -0.6206 4.9163 177.6198)" class="st0" width="17.2" height="0.4"/>
	
		<rect x="44.8" y="83.7" transform="matrix(0.5149 -0.8572 0.8572 0.5149 -44.2375 89.623)" class="st0" width="24.5" height="0.4"/>
	
		<rect x="51.5" y="64.9" transform="matrix(-0.3039 -0.9527 0.9527 -0.3039 -6.0454 149.8644)" class="st0" width="0.4" height="24.5"/>
	<rect x="31.3" y="70" transform="matrix(0.1955 -0.9807 0.9807 0.1955 -34.8811 97.8567)" class="st0" width="21.8" height="0.4"/>
	
		<rect x="29.8" y="47.3" transform="matrix(-0.1636 -0.9865 0.9865 -0.1636 -26.2335 101.5918)" class="st0" width="0.4" height="29.2"/>
	
		<rect x="53.7" y="54.7" transform="matrix(0.5901 -0.8073 0.8073 0.5901 -31.5894 70.718)" class="st0" width="0.4" height="23.6"/>
	<rect x="4" y="50.5" transform="matrix(0.162 -0.9868 0.9868 0.162 -35.1187 60.0588)" class="st0" width="27.6" height="0.4"/>
	<rect x="32" y="31.8" transform="matrix(0.6771 -0.7359 0.7359 0.6771 -25.1571 39.2815)" class="st0" width="0.4" height="33.1"/>
	
		<rect x="50.1" y="59.9" transform="matrix(1.387369e-003 -1 1 1.387369e-003 3.2158 123.3921)" class="st0" width="26.7" height="0.4"/>
	<rect x="53.7" y="41.7" transform="matrix(-0.557 -0.8305 0.8305 -0.557 39.7521 127.472)" class="st0" width="0.4" height="23"/>
	
		<rect x="29.6" y="47.1" transform="matrix(-0.1898 -0.9818 0.9818 -0.1898 3.479 97.5184)" class="st0" width="24.8" height="0.4"/>
	
		<rect x="29.6" y="26.3" transform="matrix(-9.974910e-002 -0.995 0.995 -9.974910e-002 -3.1301 69.3933)" class="st0" width="0.4" height="19.7"/>
	<rect x="51.3" y="27.7" transform="matrix(0.439 -0.8985 0.8985 0.439 -7.885 69.2498)" class="st0" width="0.4" height="26.5"/>
	
		<rect x="74.9" y="63.1" transform="matrix(0.1253 -0.9921 0.9921 0.1253 -8.6097 140.0482)" class="st0" width="0.4" height="23.7"/>
	<rect x="59.3" y="63" transform="matrix(0.7342 -0.6789 0.6789 0.7342 -23.0761 67.3479)" class="st0" width="30.3" height="0.4"/>
	<rect x="74.3" y="38.3" transform="matrix(0.2659 -0.964 0.964 0.2659 6.6699 108.3834)" class="st0" width="0.4" height="23"/>
	
		<rect x="74.5" y="64.4" transform="matrix(-5.413174e-002 -0.9985 0.9985 -5.413174e-002 26.3593 154.2364)" class="st0" width="23.6" height="0.4"/>
	<rect x="58.9" y="37.4" transform="matrix(0.6157 -0.788 0.788 0.6157 -2.5216 70.0469)" class="st0" width="23.2" height="0.4"/>
	
		<rect x="68.8" y="40.5" transform="matrix(-0.3079 -0.9514 0.9514 -0.3079 68.0868 130.8698)" class="st0" width="25.7" height="0.4"/>
	
		<rect x="46" y="33.5" transform="matrix(-0.2817 -0.9595 0.9595 -0.2817 44.0188 100.374)" class="st0" width="27.2" height="0.4"/>
	
		<rect x="36.9" y="27.7" transform="matrix(0.7447 -0.6674 0.6674 0.7447 -6.4458 38.9506)" class="st0" width="21.7" height="0.4"/>
	
		<rect x="66.5" y="12.9" transform="matrix(0.3354 -0.9421 0.9421 0.3354 21.1997 79.1873)" class="st0" width="0.4" height="23.3"/>
	
		<rect x="25.4" y="24.8" transform="matrix(-0.3246 -0.9458 0.9458 -0.3246 24.2398 67.2788)" class="st0" width="21.4" height="0.4"/>
	
		<rect x="13.6" y="25.8" transform="matrix(0.4934 -0.8698 0.8698 0.4934 -9.2414 36.0722)" class="st0" width="25.6" height="0.4"/>
	<rect x="44" y="5.8" transform="matrix(0.2455 -0.9694 0.9694 0.2455 16.1371 56.2479)" class="st0" width="0.4" height="23.8"/>
	
		<rect x="48.1" y="10.7" transform="matrix(0.2451 -0.9695 0.9695 0.2451 33.3947 64.6692)" class="st0" width="20.2" height="0.4"/>
	<rect x="70.8" y="17" transform="matrix(0.4604 -0.8877 0.8877 0.4604 29.8451 83.4358)" class="st0" width="25.5" height="0.4"/>
	
		<rect x="53.1" y="14.6" transform="matrix(-0.5278 -0.8494 0.8494 -0.5278 93.1526 81.3666)" class="st0" width="32.2" height="0.4"/>
	
		<rect x="74.9" y="-11.1" transform="matrix(0.1632 -0.9866 0.9866 0.1632 59.3647 76.9694)" class="st0" width="0.4" height="29.1"/>
</g>
<g id="Layer_2">
	<rect x="48.8" y="95" transform="matrix(0.9929 0.1191 -0.1191 0.9929 11.6956 -5.638)" class="st0" width="8.5" height="0.2"/>
	
		<rect x="59.2" y="95.1" transform="matrix(0.9124 -0.4092 0.4092 0.9124 -35.8357 33.0627)" class="st0" width="0.2" height="10.3"/>
	
		<rect x="54.4" y="90.7" transform="matrix(0.4545 -0.8908 0.8908 0.4545 -48.3745 102.6876)" class="st0" width="10.6" height="0.2"/>
	
		<rect x="48.3" y="107.8" transform="matrix(0.3074 -0.9516 0.9516 0.3074 -66.7481 124.1091)" class="st0" width="7.1" height="0.2"/>
	
		<rect x="50.8" y="94.1" transform="matrix(0.9223 -0.3866 0.3866 0.9223 -34.5191 27.4124)" class="st0" width="0.2" height="10.8"/>
	
		<rect x="53" y="104.7" transform="matrix(0.9985 5.505769e-002 -5.505769e-002 0.9985 5.8541 -2.9908)" class="st0" width="8.5" height="0.2"/>
	<rect x="61.2" y="103.4" transform="matrix(0.9318 -0.3629 0.3629 0.9318 -33.1292 30.7137)" class="st0" width="8" height="0.2"/>
	
		<rect x="71.4" y="101.2" transform="matrix(0.7754 -0.6314 0.6314 0.7754 -50.375 68.7609)" class="st0" width="0.2" height="8.1"/>
	
		<rect x="69.5" y="93.9" transform="matrix(0.9852 0.1716 -0.1716 0.9852 17.8499 -10.4914)" class="st0" width="0.2" height="8.2"/>
	
		<rect x="62.4" y="116.7" transform="matrix(0.9521 -0.3057 0.3057 0.9521 -32.4804 26.1605)" class="st0" width="9.9" height="0.2"/>
	
		<rect x="75.9" y="113.1" transform="matrix(0.5315 -0.8471 0.8471 0.5315 -64.177 119.505)" class="st0" width="0.2" height="9.3"/>
	
		<rect x="69.4" y="111.7" transform="matrix(0.2837 -0.9589 0.9589 0.2837 -54.9088 150.1225)" class="st0" width="7.2" height="0.2"/>
	<rect x="86.2" y="104.6" transform="matrix(0.7659 -0.643 0.643 0.7659 -46.0069 82.9647)" class="st0" width="9.4" height="0.2"/>
	
		<rect x="93.5" y="90.3" transform="matrix(0.9861 -0.1662 0.1662 0.9861 -14.6559 16.8889)" class="st0" width="0.2" height="11.4"/>
	
		<rect x="97.7" y="99.4" transform="matrix(0.3638 -0.9315 0.9315 0.3638 -33.6442 156.6009)" class="st0" width="0.2" height="7.1"/>
	
		<rect x="70.4" y="103.8" transform="matrix(0.2005 -0.9797 0.9797 0.2005 -41.7921 156.4723)" class="st0" width="9.2" height="0.2"/>
	<rect x="73" y="92.8" transform="matrix(0.696 -0.7181 0.7181 0.696 -47.1828 81.885)" class="st0" width="0.2" height="7.7"/>
	
		<rect x="75.4" y="97.3" transform="matrix(0.8669 -0.4985 0.4985 0.8669 -38.0189 52.4645)" class="st0" width="7.7" height="0.2"/>
	<path class="st0" d="M72.1,114.7c0.3,0.1,0.6,0.4,0.5,0.7c-0.1,0.3-0.4,0.6-0.7,0.5c-0.3-0.1-0.6-0.4-0.5-0.7
		C71.4,114.8,71.8,114.6,72.1,114.7"/>
	<path class="st0" d="M69,101.4c0.3,0.1,0.6,0.4,0.5,0.7c-0.1,0.3-0.4,0.6-0.7,0.5c-0.3-0.1-0.6-0.4-0.5-0.7
		C68.4,101.6,68.7,101.4,69,101.4"/>
	<path class="st0" d="M53.1,103.9c0.3,0.1,0.6,0.4,0.5,0.7c-0.1,0.3-0.4,0.6-0.7,0.5c-0.3-0.1-0.6-0.4-0.5-0.7
		C52.4,104.1,52.8,103.8,53.1,103.9"/>
	<path class="st0" d="M57.4,94.9c0.3,0.1,0.6,0.4,0.5,0.7c-0.1,0.3-0.4,0.6-0.7,0.5c-0.3-0.1-0.6-0.4-0.5-0.7
		C56.7,95.1,57,94.9,57.4,94.9"/>
	<path class="st0" d="M75.9,98.7c0.3,0.1,0.6,0.4,0.5,0.7c-0.1,0.3-0.4,0.6-0.7,0.5c-0.3-0.1-0.6-0.4-0.5-0.7
		C75.3,98.9,75.6,98.6,75.9,98.7"/>
	<path class="st0" d="M94.4,101c0.3,0.1,0.6,0.4,0.5,0.7c-0.1,0.3-0.4,0.6-0.7,0.5c-0.3-0.1-0.6-0.4-0.5-0.7
		C93.8,101.2,94.1,100.9,94.4,101"/>
	
		<rect x="30.9" y="101.4" transform="matrix(0.8535 -0.5211 0.5211 0.8535 -52.2664 32.123)" class="st0" width="0.2" height="15.2"/>
	
		<rect x="34.2" y="96.5" transform="matrix(0.184 -0.9829 0.9829 0.184 -74.1311 118.4405)" class="st0" width="0.2" height="14.7"/>
	
		<rect x="32.1" y="110.3" transform="matrix(0.5365 -0.8439 0.8439 0.5365 -75.4261 83.4276)" class="st0" width="12.2" height="0.2"/>
	<rect x="26.1" y="99" transform="matrix(0.8626 -0.506 0.506 0.8626 -45.619 30.2469)" class="st0" width="13.5" height="0.2"/>
	<rect x="40" y="95.5" transform="matrix(0.9593 -0.2824 0.2824 0.9593 -26.7369 15.4146)" class="st0" width="0.2" height="10"/>
	
		<rect x="34.7" y="113.2" transform="matrix(0.9644 -0.2644 0.2644 0.9644 -28.4506 15.3692)" class="st0" width="16.4" height="0.2"/>
	<rect x="46" y="102.7" transform="matrix(0.5433 -0.8396 0.8396 0.5433 -69.7792 88.1576)" class="st0" width="0.2" height="11"/>
	<rect x="38.7" y="95" transform="matrix(0.993 -0.118 0.118 0.993 -10.9143 5.8217)" class="st0" width="10.1" height="0.2"/>
	
		<rect x="38.6" y="99.7" transform="matrix(0.5569 -0.8306 0.8306 0.5569 -62.9486 81.7148)" class="st0" width="12.9" height="0.2"/>
	
		<rect x="49.6" y="94.4" transform="matrix(0.9926 -0.1213 0.1213 0.9926 -12.1041 6.7908)" class="st0" width="0.2" height="16.8"/>
	<rect x="41.8" y="110.7" transform="matrix(0.3551 -0.9348 0.9348 0.3551 -83.426 115.442)" class="st0" width="0.2" height="15"/>
	
		<rect x="44.9" y="115.9" transform="matrix(0.1847 -0.9828 0.9828 0.1847 -73.3753 143.5911)" class="st0" width="9.8" height="0.2"/>
	
		<rect x="48.8" y="119.5" transform="matrix(0.9848 -0.1738 0.1738 0.9848 -19.9383 11.516)" class="st0" width="13.9" height="0.2"/>
	
		<rect x="56.6" y="107.8" transform="matrix(0.5211 -0.8535 0.8535 0.5211 -70.8311 103.384)" class="st0" width="0.2" height="13.9"/>
	
		<rect x="49.9" y="108" transform="matrix(0.8684 -0.4958 0.4958 0.8684 -46.2212 42.0595)" class="st0" width="12.4" height="0.2"/>
	<rect x="55" y="91.5" transform="matrix(0.6367 -0.7711 0.7711 0.6367 -56.9071 78.7521)" class="st0" width="0.2" height="16.6"/>
	
		<rect x="62" y="105" transform="matrix(0.9964 -8.527829e-002 8.527829e-002 0.9964 -9.3026 5.7019)" class="st0" width="0.2" height="13.4"/>
	<rect x="47.5" y="90.2" transform="matrix(0.851 -0.5251 0.5251 0.851 -39.196 42.5516)" class="st0" width="15.7" height="0.2"/>
	
		<rect x="61.7" y="86.2" transform="matrix(0.9995 3.137353e-002 -3.137353e-002 0.9995 3.031 -1.8918)" class="st0" width="0.2" height="18.8"/>
	
		<rect x="60.8" y="113.3" transform="matrix(0.7556 -0.655 0.655 0.7556 -57.5968 72.5242)" class="st0" width="15.2" height="0.2"/>
	
		<rect x="67.7" y="100.2" transform="matrix(0.2647 -0.9643 0.9643 0.2647 -53.0812 143.9162)" class="st0" width="0.2" height="13.1"/>
	
		<rect x="58.8" y="99.4" transform="matrix(0.6165 -0.7873 0.7873 0.6165 -53.0624 90.0188)" class="st0" width="14.1" height="0.2"/>
	<rect x="66" y="84.5" transform="matrix(0.6866 -0.727 0.727 0.6866 -44.7512 76.3245)" class="st0" width="0.2" height="11.2"/>
	
		<rect x="72.1" y="93.7" transform="matrix(0.9666 -0.2563 0.2563 0.9666 -23.5229 21.879)" class="st0" width="0.2" height="15.1"/>
	
		<rect x="66.3" y="117.3" transform="matrix(0.8307 -0.5568 0.5568 0.8307 -57.8094 57.9751)" class="st0" width="0.2" height="13.5"/>
	
		<rect x="62.6" y="119.3" transform="matrix(0.9941 0.1087 -0.1087 0.9941 13.403 -7.0376)" class="st0" width="17.2" height="0.2"/>
	
		<rect x="76.8" y="107.8" transform="matrix(0.9024 -0.431 0.431 0.9024 -41.7841 44.3366)" class="st0" width="0.2" height="13.1"/>
	
		<rect x="68.3" y="124.9" transform="matrix(0.7181 -0.6959 0.6959 0.7181 -65.8334 87.4061)" class="st0" width="13.4" height="0.2"/>
	
		<rect x="74.1" y="108" transform="matrix(0.9986 -5.230471e-002 5.230471e-002 0.9986 -5.5453 4.3706)" class="st0" width="13.2" height="0.2"/>
	
		<rect x="76.3" y="113.9" transform="matrix(0.516 -0.8566 0.8566 0.516 -57.2465 126.7634)" class="st0" width="14.6" height="0.2"/>
	
		<rect x="70.6" y="101.9" transform="matrix(0.5394 -0.8421 0.8421 0.5394 -49.7878 112.9085)" class="st0" width="15.5" height="0.2"/>
	
		<rect x="70.2" y="94.6" transform="matrix(0.9923 0.1241 -0.1241 0.9923 12.3436 -8.7467)" class="st0" width="12.3" height="0.2"/>
	<rect x="84.8" y="95" transform="matrix(0.9312 -0.3644 0.3644 0.9312 -31.1913 37.9259)" class="st0" width="0.2" height="13.3"/>
	
		<rect x="67.2" y="88.5" transform="matrix(0.5008 -0.8655 0.8655 0.5008 -40.1233 107.6862)" class="st0" width="12.2" height="0.2"/>
	
		<rect x="61.9" y="84.7" transform="matrix(0.9802 -0.1982 0.1982 0.9802 -15.4348 15.4047)" class="st0" width="14.6" height="0.2"/>
	
		<rect x="79.3" y="82.6" transform="matrix(0.8917 -0.4526 0.4526 0.8917 -31.8591 45.6227)" class="st0" width="0.2" height="13.6"/>
	<rect x="81.9" y="92.7" transform="matrix(0.8925 -0.4511 0.4511 0.8925 -32.4653 49.5)" class="st0" width="11.5" height="0.2"/>
	<rect x="87.1" y="106" transform="matrix(0.972 -0.2349 0.2349 0.972 -22.2758 25.1318)" class="st0" width="14.5" height="0.2"/>
	
		<rect x="80.9" y="98.9" transform="matrix(0.2948 -0.9556 0.9556 0.2948 -31.1355 155.8609)" class="st0" width="18.3" height="0.2"/>
	<rect x="97" y="89" transform="matrix(0.8515 -0.5243 0.5243 0.8515 -36.6158 65.3516)" class="st0" width="0.2" height="16.6"/>
	<path class="st0" d="M27.4,101.8c0.4,0.1,0.7,0.5,0.6,0.9c-0.1,0.4-0.5,0.7-0.9,0.6c-0.4-0.1-0.7-0.5-0.6-0.9
		C26.6,102,27,101.7,27.4,101.8"/>
	<path class="st0" d="M35.1,114.8c0.4,0.1,0.7,0.5,0.6,0.9c-0.1,0.4-0.5,0.7-0.9,0.6c-0.4-0.1-0.7-0.5-0.6-0.9
		C34.3,115,34.7,114.7,35.1,114.8"/>
	<path class="st0" d="M41.7,104.5c0.4,0.1,0.7,0.5,0.6,0.9c-0.1,0.4-0.5,0.7-0.9,0.6c-0.4-0.1-0.7-0.5-0.6-0.9
		C40.8,104.7,41.2,104.4,41.7,104.5"/>
	<path class="st0" d="M38.8,94.9c0.4,0.1,0.7,0.5,0.6,0.9c-0.1,0.4-0.5,0.7-0.9,0.6c-0.4-0.1-0.7-0.5-0.6-0.9
		C38,95.1,38.4,94.8,38.8,94.9"/>
	<path class="st0" d="M48.9,93.7c0.4,0.1,0.7,0.5,0.6,0.9c-0.1,0.4-0.5,0.7-0.9,0.6c-0.4-0.1-0.7-0.5-0.6-0.9
		C48,93.9,48.4,93.6,48.9,93.7"/>
	<path class="st0" d="M50.9,110.4c0.4,0.1,0.7,0.5,0.6,0.9c-0.1,0.4-0.5,0.7-0.9,0.6c-0.4-0.1-0.7-0.5-0.6-0.9
		C50.1,110.6,50.5,110.4,50.9,110.4"/>
	<path class="st0" d="M49.1,120.1c0.4,0.1,0.7,0.5,0.6,0.9c-0.1,0.4-0.5,0.7-0.9,0.6c-0.4-0.1-0.7-0.5-0.6-0.9
		C48.3,120.3,48.7,120,49.1,120.1"/>
	<path class="st0" d="M62.7,117.5c0.4,0.1,0.7,0.5,0.6,0.9c-0.1,0.4-0.5,0.7-0.9,0.6c-0.4-0.1-0.7-0.5-0.6-0.9
		C61.9,117.7,62.3,117.5,62.7,117.5"/>
	<path class="st0" d="M61.6,104.2c0.4,0.1,0.7,0.5,0.6,0.9c-0.1,0.4-0.5,0.7-0.9,0.6c-0.4-0.1-0.7-0.5-0.6-0.9
		C60.8,104.4,61.2,104.1,61.6,104.2"/>
	<path class="st0" d="M62.3,85.6c0.4,0.1,0.7,0.5,0.6,0.9c-0.1,0.4-0.5,0.7-0.9,0.6c-0.4-0.1-0.7-0.5-0.6-0.9
		C61.5,85.8,61.9,85.5,62.3,85.6"/>
	<path class="st0" d="M70.5,93.1c0.4,0.1,0.7,0.5,0.6,0.9c-0.1,0.4-0.5,0.7-0.9,0.6c-0.4-0.1-0.7-0.5-0.6-0.9
		C69.7,93.3,70.1,93,70.5,93.1"/>
	<path class="st0" d="M76.4,82.5c0.4,0.1,0.7,0.5,0.6,0.9c-0.1,0.4-0.5,0.7-0.9,0.6c-0.4-0.1-0.7-0.5-0.6-0.9
		C75.6,82.7,76,82.4,76.4,82.5"/>
	<path class="st0" d="M74.2,107.6c0.4,0.1,0.7,0.5,0.6,0.9c-0.1,0.4-0.5,0.7-0.9,0.6c-0.4-0.1-0.7-0.5-0.6-0.9
		C73.4,107.8,73.8,107.5,74.2,107.6"/>
	<path class="st0" d="M70.3,128.6c0.4,0.1,0.7,0.5,0.6,0.9c-0.1,0.4-0.5,0.7-0.9,0.6c-0.4-0.1-0.7-0.5-0.6-0.9
		C69.4,128.8,69.8,128.5,70.3,128.6"/>
	<path class="st0" d="M79.9,119.4c0.4,0.1,0.7,0.5,0.6,0.9c-0.1,0.4-0.5,0.7-0.9,0.6c-0.4-0.1-0.7-0.5-0.6-0.9
		C79.1,119.6,79.5,119.3,79.9,119.4"/>
	<path class="st0" d="M87.5,106.9c0.4,0.1,0.7,0.5,0.6,0.9c-0.1,0.4-0.5,0.7-0.9,0.6c-0.4-0.1-0.7-0.5-0.6-0.9
		C86.6,107.1,87,106.8,87.5,106.9"/>
	<path class="st0" d="M82.7,94.7c0.4,0.1,0.7,0.5,0.6,0.9c-0.1,0.4-0.5,0.7-0.9,0.6c-0.4-0.1-0.7-0.5-0.6-0.9
		C81.9,94.9,82.3,94.7,82.7,94.7"/>
	<path class="st0" d="M92.8,89.6c0.4,0.1,0.7,0.5,0.6,0.9c-0.1,0.4-0.5,0.7-0.9,0.6c-0.4-0.1-0.7-0.5-0.6-0.9
		C92,89.8,92.4,89.5,92.8,89.6"/>
	<path class="st0" d="M101.3,103.5c0.4,0.1,0.7,0.5,0.6,0.9c-0.1,0.4-0.5,0.7-0.9,0.6c-0.4-0.1-0.7-0.5-0.6-0.9
		C100.4,103.7,100.8,103.4,101.3,103.5"/>
	
		<rect x="39" y="111.5" transform="matrix(0.3074 -0.9516 0.9516 0.3074 -74.8348 120.4967)" class="st0" width="12.7" height="0.3"/>
	
		<rect x="39.8" y="88.5" transform="matrix(0.9929 0.1191 -0.1191 0.9929 10.8979 -5.0117)" class="st0" width="15.2" height="0.3"/>
	
		<rect x="58.5" y="88.8" transform="matrix(0.9139 -0.4058 0.4058 0.9139 -34.7323 32.2428)" class="st0" width="0.3" height="18.4"/>
	<rect x="49.8" y="81" transform="matrix(0.4545 -0.8908 0.8908 0.4545 -40.0152 97.0387)" class="st0" width="18.9" height="0.3"/>
	
		<rect x="43.4" y="87.1" transform="matrix(0.9222 -0.3868 0.3868 0.9222 -34.0118 24.3879)" class="st0" width="0.3" height="19.3"/>
	
		<rect x="47.3" y="105.9" transform="matrix(0.9985 5.500791e-002 -5.500791e-002 0.9985 5.9149 -2.857)" class="st0" width="15.1" height="0.3"/>
	
		<rect x="61.9" y="103.7" transform="matrix(0.9318 -0.3629 0.3629 0.9318 -32.9721 32.1474)" class="st0" width="14.3" height="0.3"/>
	
		<rect x="80.2" y="99.6" transform="matrix(0.7748 -0.6322 0.6322 0.7748 -49.4456 74.853)" class="st0" width="0.3" height="14.5"/>
	
		<rect x="76.9" y="86.7" transform="matrix(0.9848 0.1734 -0.1734 0.9848 17.4723 -11.9322)" class="st0" width="0.3" height="14.6"/>
	<rect x="64" y="127.4" transform="matrix(0.9522 -0.3056 0.3056 0.9522 -35.485 28.368)" class="st0" width="17.6" height="0.3"/>
	
		<rect x="88.1" y="120.9" transform="matrix(0.5317 -0.8469 0.8469 0.5317 -68.1196 135.3165)" class="st0" width="0.3" height="16.6"/>
	
		<rect x="76.6" y="118.5" transform="matrix(0.2837 -0.9589 0.9589 0.2837 -54.2317 164.6507)" class="st0" width="12.9" height="0.3"/>
	
		<rect x="106.6" y="105.7" transform="matrix(0.7659 -0.643 0.643 0.7659 -41.1299 98.7365)" class="st0" width="16.8" height="0.3"/>
	
		<rect x="119.6" y="80.2" transform="matrix(0.9865 -0.1639 0.1639 0.9865 -13.1998 20.8535)" class="st0" width="0.3" height="20.4"/>
	<rect x="127.2" y="96.4" transform="matrix(0.365 -0.931 0.931 0.365 -14.8198 183.8092)" class="st0" width="0.3" height="12.7"/>
	
		<rect x="78.4" y="104.2" transform="matrix(0.2005 -0.9797 0.9797 0.2005 -33.0695 168.2722)" class="st0" width="16.4" height="0.3"/>
	
		<rect x="83.1" y="84.7" transform="matrix(0.6946 -0.7194 0.7194 0.6946 -40.464 87.8551)" class="st0" width="0.3" height="13.8"/>
	
		<rect x="87.3" y="92.8" transform="matrix(0.8669 -0.4984 0.4984 0.8669 -33.7946 59.3035)" class="st0" width="13.7" height="0.3"/>
	<path class="st0" d="M81.5,123.7c0.6,0.1,1,0.7,0.9,1.3c-0.1,0.6-0.7,1-1.3,0.9c-0.6-0.1-1-0.7-0.9-1.3
		C80.3,124,80.9,123.6,81.5,123.7"/>
	<path class="st0" d="M76,100.1c0.6,0.1,1,0.7,0.9,1.3c-0.1,0.6-0.7,1-1.3,0.9c-0.6-0.1-1-0.7-0.9-1.3C74.8,100.4,75.4,100,76,100.1
		"/>
	<path class="st0" d="M47.5,104.5c0.6,0.1,1,0.7,0.9,1.3c-0.1,0.6-0.7,1-1.3,0.9c-0.6-0.1-1-0.7-0.9-1.3
		C46.3,104.8,46.9,104.4,47.5,104.5"/>
	<path class="st0" d="M55.1,88.5c0.6,0.1,1,0.7,0.9,1.3c-0.1,0.6-0.7,1-1.3,0.9c-0.6-0.1-1-0.7-0.9-1.3
		C53.9,88.8,54.5,88.4,55.1,88.5"/>
	<path class="st0" d="M88.3,95.2c0.6,0.1,1,0.7,0.9,1.3c-0.1,0.6-0.7,1-1.3,0.9c-0.6-0.1-1-0.7-0.9-1.3
		C87.1,95.5,87.7,95.1,88.3,95.2"/>
	<path class="st0" d="M121.3,99.3c0.6,0.1,1,0.7,0.9,1.3c-0.1,0.6-0.7,1-1.3,0.9c-0.6-0.1-1-0.7-0.9-1.3
		C120.1,99.6,120.7,99.2,121.3,99.3"/>
	<path class="st0" d="M1.6,100.7c0.8,0.1,1.3,0.9,1.1,1.6c-0.1,0.8-0.9,1.3-1.6,1.1c-0.8-0.1-1.3-0.9-1.1-1.6
		C0.2,101.1,0.9,100.6,1.6,100.7"/>
	<path class="st0" d="M15.4,123.9c0.8,0.1,1.3,0.9,1.1,1.6c-0.1,0.8-0.9,1.3-1.6,1.1c-0.8-0.1-1.3-0.9-1.1-1.6
		C13.9,124.2,14.7,123.7,15.4,123.9"/>
	<path class="st0" d="M27.1,105.5c0.8,0.1,1.3,0.9,1.1,1.6c-0.1,0.8-0.9,1.3-1.6,1.1c-0.8-0.1-1.3-0.9-1.1-1.6
		C25.6,105.9,26.3,105.4,27.1,105.5"/>
	<path class="st0" d="M22.1,88.4c0.8,0.1,1.3,0.9,1.1,1.6c-0.1,0.8-0.9,1.3-1.6,1.1c-0.8-0.1-1.3-0.9-1.1-1.6
		C20.6,88.8,21.3,88.3,22.1,88.4"/>
	<path class="st0" d="M40,86.3c0.8,0.1,1.3,0.9,1.1,1.6c-0.1,0.8-0.9,1.3-1.6,1.1c-0.8-0.1-1.3-0.9-1.1-1.6
		C38.5,86.7,39.2,86.2,40,86.3"/>
	<path class="st0" d="M43.7,116.2c0.8,0.1,1.3,0.9,1.1,1.6c-0.1,0.8-0.9,1.3-1.6,1.1c-0.8-0.1-1.3-0.9-1.1-1.6
		C42.2,116.5,42.9,116,43.7,116.2"/>
	<path class="st0" d="M40.4,133.4c0.8,0.1,1.3,0.9,1.1,1.6c-0.1,0.8-0.9,1.3-1.6,1.1c-0.8-0.1-1.3-0.9-1.1-1.6
		C38.9,133.7,39.6,133.2,40.4,133.4"/>
	<path class="st0" d="M64.7,128.8c0.8,0.1,1.3,0.9,1.1,1.6c-0.1,0.8-0.9,1.3-1.6,1.1c-0.8-0.1-1.3-0.9-1.1-1.6
		C63.2,129.2,64,128.7,64.7,128.8"/>
	<path class="st0" d="M62.7,105c0.8,0.1,1.3,0.9,1.1,1.6c-0.1,0.8-0.9,1.3-1.6,1.1c-0.8-0.1-1.3-0.9-1.1-1.6
		C61.2,105.4,62,104.9,62.7,105"/>
	<path class="st0" d="M63.9,71.8c0.8,0.1,1.3,0.9,1.1,1.6c-0.1,0.8-0.9,1.3-1.6,1.1c-0.8-0.1-1.3-0.9-1.1-1.6
		C62.4,72.1,63.2,71.6,63.9,71.8"/>
	<path class="st0" d="M78.6,85.3c0.8,0.1,1.3,0.9,1.1,1.6c-0.1,0.8-0.9,1.3-1.6,1.1c-0.8-0.1-1.3-0.9-1.1-1.6
		C77.1,85.6,77.8,85.1,78.6,85.3"/>
	<path class="st0" d="M89.2,66.4c0.8,0.1,1.3,0.9,1.1,1.6c-0.1,0.8-0.9,1.3-1.6,1.1c-0.8-0.1-1.3-0.9-1.1-1.6
		C87.7,66.7,88.4,66.2,89.2,66.4"/>
	<path class="st0" d="M85.2,111.1c0.8,0.1,1.3,0.9,1.1,1.6c-0.1,0.8-0.9,1.3-1.6,1.1c-0.8-0.1-1.3-0.9-1.1-1.6
		C83.7,111.4,84.4,110.9,85.2,111.1"/>
	<path class="st0" d="M78.2,148.5c0.8,0.1,1.3,0.9,1.1,1.6c-0.1,0.8-0.9,1.3-1.6,1.1c-0.8-0.1-1.3-0.9-1.1-1.6
		C76.7,148.9,77.4,148.4,78.2,148.5"/>
	<path class="st0" d="M95.4,132.2c0.8,0.1,1.3,0.9,1.1,1.6c-0.1,0.8-0.9,1.3-1.6,1.1c-0.8-0.1-1.3-0.9-1.1-1.6
		C94,132.6,94.7,132.1,95.4,132.2"/>
	<path class="st0" d="M108.9,109.9c0.8,0.1,1.3,0.9,1.1,1.6c-0.1,0.8-0.9,1.3-1.6,1.1c-0.8-0.1-1.3-0.9-1.1-1.6
		C107.4,110.2,108.1,109.7,108.9,109.9"/>
	<path class="st0" d="M100.4,88.1c0.8,0.1,1.3,0.9,1.1,1.6c-0.1,0.8-0.9,1.3-1.6,1.1c-0.8-0.1-1.3-0.9-1.1-1.6
		C98.9,88.5,99.6,88,100.4,88.1"/>
	<path class="st0" d="M118.4,79c0.8,0.1,1.3,0.9,1.1,1.6c-0.1,0.8-0.9,1.3-1.6,1.1c-0.8-0.1-1.3-0.9-1.1-1.6
		C116.9,79.4,117.6,78.9,118.4,79"/>
	<path class="st0" d="M133.5,103.7c0.8,0.1,1.3,0.9,1.1,1.6c-0.1,0.8-0.9,1.3-1.6,1.1s-1.3-0.9-1.1-1.6
		C132,104.1,132.7,103.6,133.5,103.7"/>
	
		<rect x="90" y="42.8" transform="matrix(0.1777 0.9841 -0.9841 0.1777 121.4815 -59.5083)" class="st0" width="12.7" height="0.3"/>
	
		<rect x="97.8" y="64" transform="matrix(-0.9317 0.3632 -0.3632 -0.9317 226.8542 85.6223)" class="st0" width="15.2" height="0.3"/>
	
		<rect x="90.9" y="52" transform="matrix(-0.6152 0.7884 -0.7884 -0.6152 195.3358 27.1277)" class="st0" width="0.3" height="18.4"/>
	
		<rect x="89" y="76.2" transform="matrix(1.926314e-002 0.9998 -0.9998 1.926314e-002 172.9188 -23.6081)" class="st0" width="18.9" height="0.3"/>
	
		<rect x="104.8" y="45.6" transform="matrix(-0.6307 0.776 -0.776 -0.6307 214.0662 8.7067)" class="st0" width="0.3" height="19.3"/>
	
		<rect x="83.1" y="52.2" transform="matrix(-0.9064 0.4223 -0.4223 -0.9064 194.9074 61.5936)" class="st0" width="15.1" height="0.3"/>
	
		<rect x="72" y="60.9" transform="matrix(-0.6506 0.7594 -0.7594 -0.6506 176.9369 40.6303)" class="st0" width="14.3" height="0.3"/>
	
		<rect x="67.6" y="56.5" transform="matrix(-0.3842 0.9233 -0.9233 -0.3842 152.6149 25.578)" class="st0" width="0.3" height="14.5"/>
	
		<rect x="76.6" y="66.1" transform="matrix(-0.9499 0.3125 -0.3125 -0.9499 172.5997 119.1755)" class="st0" width="0.3" height="14.6"/>
	
		<rect x="55.8" y="41.8" transform="matrix(-0.6955 0.7185 -0.7185 -0.6955 139.6724 24.6427)" class="st0" width="17.6" height="0.3"/>
	
		<rect x="50" y="39.3" transform="matrix(-7.124369e-002 0.9975 -0.9975 -7.124369e-002 101.3026 1.0033)" class="st0" width="0.3" height="16.6"/>
	<rect x="53.3" y="54.4" transform="matrix(0.202 0.9794 -0.9794 0.202 101.1676 -15)" class="st0" width="12.9" height="0.3"/>
	
		<rect x="29.3" y="80.7" transform="matrix(-0.3722 0.9282 -0.9282 -0.3722 126.7596 76.0703)" class="st0" width="16.8" height="0.3"/>
	
		<rect x="40.6" y="86.6" transform="matrix(-0.7925 0.6099 -0.6099 -0.7925 132.0374 148.583)" class="st0" width="0.3" height="20.4"/>
	
		<rect x="28.1" y="83.1" transform="matrix(0.1176 0.9931 -0.9931 0.1176 113.7339 50.865)" class="st0" width="0.3" height="12.7"/>
	
		<rect x="55.2" y="68.6" transform="matrix(0.2852 0.9585 -0.9585 0.2852 111.2547 -11.64)" class="st0" width="16.4" height="0.3"/>
	
		<rect x="72.2" y="71.6" transform="matrix(-0.2723 0.9622 -0.9622 -0.2723 167.6495 30.2018)" class="st0" width="0.3" height="13.8"/>
	
		<rect x="55.3" y="82.3" transform="matrix(-0.5295 0.8483 -0.8483 -0.5295 164.9686 73.405)" class="st0" width="13.7" height="0.3"/>
	<path class="st0" d="M58.8,49.3c-0.6,0.2-1.2-0.1-1.4-0.7c-0.2-0.6,0.1-1.2,0.7-1.4c0.6-0.2,1.2,0.1,1.4,0.7
		C59.7,48.5,59.4,49.1,58.8,49.3"/>
	<path class="st0" d="M74.8,67.5c-0.6,0.2-1.2-0.1-1.4-0.7c-0.2-0.6,0.1-1.2,0.7-1.4c0.6-0.2,1.2,0.1,1.4,0.7
		C75.7,66.7,75.4,67.4,74.8,67.5"/>
	<path class="st0" d="M97.8,50.3c-0.6,0.2-1.2-0.1-1.4-0.7c-0.2-0.6,0.1-1.2,0.7-1.4c0.6-0.2,1.2,0.1,1.4,0.7
		C98.7,49.5,98.4,50.1,97.8,50.3"/>
	<path class="st0" d="M98.7,68c-0.6,0.2-1.2-0.1-1.4-0.7C97,66.6,97.4,66,98,65.8c0.6-0.2,1.2,0.1,1.4,0.7
		C99.6,67.1,99.2,67.8,98.7,68"/>
	<path class="st0" d="M66.2,77.7c-0.6,0.2-1.2-0.1-1.4-0.7c-0.2-0.6,0.1-1.2,0.7-1.4c0.6-0.2,1.2,0.1,1.4,0.7
		C67.2,76.8,66.8,77.5,66.2,77.7"/>
	<path class="st0" d="M35.2,89.6c-0.6,0.2-1.2-0.1-1.4-0.7s0.1-1.2,0.7-1.4c0.6-0.2,1.2,0.1,1.4,0.7C36.1,88.8,35.8,89.5,35.2,89.6"
		/>
	<path class="st0" d="M140,32c-0.7,0.2-1.5-0.2-1.7-0.9c-0.2-0.7,0.2-1.5,0.9-1.7c0.7-0.2,1.5,0.2,1.7,0.9S140.8,31.7,140,32"/>
	<path class="st0" d="M117,18c-0.7,0.2-1.5-0.2-1.7-0.9c-0.2-0.7,0.2-1.5,0.9-1.7c0.7-0.2,1.5,0.2,1.7,0.9
		C118.1,17,117.7,17.8,117,18"/>
	<path class="st0" d="M115.4,39.7c-0.7,0.2-1.5-0.2-1.7-0.9c-0.2-0.7,0.2-1.5,0.9-1.7c0.7-0.2,1.5,0.2,1.7,0.9
		S116.1,39.5,115.4,39.7"/>
	<path class="st0" d="M127.8,52.4c-0.7,0.2-1.5-0.2-1.7-0.9c-0.2-0.7,0.2-1.5,0.9-1.7c0.7-0.2,1.5,0.2,1.7,0.9
		S128.6,52.2,127.8,52.4"/>
	<path class="st0" d="M113.1,62.7c-0.7,0.2-1.5-0.2-1.7-0.9c-0.2-0.7,0.2-1.5,0.9-1.7c0.7-0.2,1.5,0.2,1.7,0.9
		S113.8,62.5,113.1,62.7"/>
	<path class="st0" d="M95.7,38.2C95,38.4,94.2,38,94,37.3c-0.2-0.7,0.2-1.5,0.9-1.7c0.7-0.2,1.5,0.2,1.7,0.9S96.5,37.9,95.7,38.2"/>
	<path class="st0" d="M90.5,21.4c-0.7,0.2-1.5-0.2-1.7-0.9c-0.2-0.7,0.2-1.5,0.9-1.7c0.7-0.2,1.5,0.2,1.7,0.9S91.2,21.2,90.5,21.4"
		/>
	<path class="st0" d="M71.2,36.9c-0.7,0.2-1.5-0.2-1.7-0.9c-0.2-0.7,0.2-1.5,0.9-1.7c0.7-0.2,1.5,0.2,1.7,0.9S71.9,36.7,71.2,36.9"
		/>
	<path class="st0" d="M84.2,57c-0.7,0.2-1.5-0.2-1.7-0.9c-0.2-0.7,0.2-1.5,0.9-1.7c0.7-0.2,1.5,0.2,1.7,0.9S84.9,56.7,84.2,57"/>
	<path class="st0" d="M98.8,86.9c-0.7,0.2-1.5-0.2-1.7-0.9c-0.2-0.7,0.2-1.5,0.9-1.7c0.7-0.2,1.5,0.2,1.7,0.9S99.5,86.6,98.8,86.9"
		/>
	<path class="st0" d="M79.5,81.9c-0.7,0.2-1.5-0.2-1.7-0.9c-0.2-0.7,0.2-1.5,0.9-1.7c0.7-0.2,1.5,0.2,1.7,0.9S80.2,81.6,79.5,81.9"
		/>
	<path class="st0" d="M79.1,103.5c-0.7,0.2-1.5-0.2-1.7-0.9c-0.2-0.7,0.2-1.5,0.9-1.7c0.7-0.2,1.5,0.2,1.7,0.9
		S79.8,103.3,79.1,103.5"/>
	<path class="st0" d="M61.5,62.2c-0.7,0.2-1.5-0.2-1.7-0.9c-0.2-0.7,0.2-1.5,0.9-1.7c0.7-0.2,1.5,0.2,1.7,0.9S62.2,62,61.5,62.2"/>
	<path class="st0" d="M50,25.9c-0.7,0.2-1.5-0.2-1.7-0.9s0.2-1.5,0.9-1.7c0.7-0.2,1.5,0.2,1.7,0.9S50.8,25.7,50,25.9"/>
	<path class="st0" d="M42.5,48.4c-0.7,0.2-1.5-0.2-1.7-0.9s0.2-1.5,0.9-1.7c0.7-0.2,1.5,0.2,1.7,0.9C43.6,47.4,43.2,48.2,42.5,48.4"
		/>
	<path class="st0" d="M41.2,74.5c-0.7,0.2-1.5-0.2-1.7-0.9s0.2-1.5,0.9-1.7c0.7-0.2,1.5,0.2,1.7,0.9C42.3,73.4,41.9,74.2,41.2,74.5"
		/>
	<path class="st0" d="M58.9,89.6c-0.7,0.2-1.5-0.2-1.7-0.9c-0.2-0.7,0.2-1.5,0.9-1.7c0.7-0.2,1.5,0.2,1.7,0.9
		C60,88.6,59.6,89.4,58.9,89.6"/>
	<path class="st0" d="M47.4,106.1c-0.7,0.2-1.5-0.2-1.7-0.9c-0.2-0.7,0.2-1.5,0.9-1.7c0.7-0.2,1.5,0.2,1.7,0.9
		C48.5,105.1,48.1,105.9,47.4,106.1"/>
	<path class="st0" d="M22.4,91.5c-0.7,0.2-1.5-0.2-1.7-0.9c-0.2-0.7,0.2-1.5,0.9-1.7c0.7-0.2,1.5,0.2,1.7,0.9
		C23.5,90.5,23.1,91.3,22.4,91.5"/>
	
		<rect x="25.5" y="59.1" transform="matrix(0.7413 -0.6712 0.6712 0.7413 -32.0454 35.2006)" class="st0" width="8.4" height="0.2"/>
	
		<rect x="37.5" y="52.8" transform="matrix(0.2925 -0.9563 0.9563 0.2925 -28.7251 76.8731)" class="st0" width="0.2" height="10.2"/>
	
		<rect x="25.6" y="51.4" transform="matrix(-0.3741 -0.9274 0.9274 -0.3741 -5.484 99.3596)" class="st0" width="10.4" height="0.2"/>
	
		<rect x="34.9" y="68.2" transform="matrix(-0.5165 -0.8563 0.8563 -0.5165 -0.1858 136.5289)" class="st0" width="7" height="0.2"/>
	
		<rect x="31.5" y="58.3" transform="matrix(0.3145 -0.9492 0.9492 0.3145 -38.7608 73.6101)" class="st0" width="0.2" height="10.6"/>
	
		<rect x="35.4" y="62.2" transform="matrix(0.6966 -0.7175 0.7175 0.6966 -32.7192 47.2805)" class="st0" width="8.3" height="0.2"/>
	
		<rect x="39.8" y="55.5" transform="matrix(0.3375 -0.9413 0.9413 0.3375 -23.3529 78.0548)" class="st0" width="7.9" height="0.2"/>
	
		<rect x="49" y="48" transform="matrix(2.810599e-002 -0.9996 0.9996 2.810599e-002 -4.2789 99.6295)" class="st0" width="0.2" height="8"/>
	<rect x="42.5" y="44.7" transform="matrix(0.7764 -0.6302 0.6302 0.7764 -21.2155 37.724)" class="st0" width="0.2" height="8.1"/>
	<rect x="50.1" y="62.5" transform="matrix(0.394 -0.9191 0.9191 0.394 -24.2156 88.4945)" class="st0" width="9.7" height="0.2"/>
	
		<rect x="61.2" y="52.2" transform="matrix(-0.2925 -0.9563 0.9563 -0.2925 24.9033 132.0567)" class="st0" width="0.2" height="9.2"/>
	<rect x="51.4" y="55" transform="matrix(-0.5376 -0.8432 0.8432 -0.5376 38.07 131.1532)" class="st0" width="7.1" height="0.2"/>
	
		<rect x="56.6" y="37.1" transform="matrix(1.720197e-002 -0.9999 0.9999 1.720197e-002 22.9555 97.8134)" class="st0" width="9.2" height="0.2"/>
	<rect x="56.4" y="24.1" transform="matrix(0.5219 -0.853 0.853 0.5219 1.715 62.4057)" class="st0" width="0.2" height="11.2"/>
	<rect x="64.3" y="27.5" transform="matrix(-0.465 -0.8853 0.8853 -0.465 66.917 102.4217)" class="st0" width="0.2" height="7"/>
	<rect x="45.8" y="48.5" transform="matrix(-0.6078 -0.7941 0.7941 -0.6078 42.3823 118.023)" class="st0" width="9" height="0.2"/>
	
		<rect x="43.7" y="41.5" transform="matrix(-9.002095e-002 -0.9959 0.9959 -9.002095e-002 2.6362 92.9971)" class="st0" width="0.2" height="7.6"/>
	<rect x="44.5" y="41.1" transform="matrix(0.1926 -0.9813 0.9813 0.1926 -1.4522 80.7133)" class="st0" width="7.6" height="0.2"/>
	<path class="st0" d="M56.5,57.7c0.3-0.2,0.7-0.2,0.9,0.1c0.2,0.3,0.2,0.7-0.1,0.9c-0.3,0.2-0.7,0.2-0.9-0.1
		C56.2,58.3,56.3,57.9,56.5,57.7"/>
	<path class="st0" d="M44.7,51.4c0.3-0.2,0.7-0.2,0.9,0.1c0.2,0.3,0.2,0.7-0.1,0.9s-0.7,0.2-0.9-0.1C44.4,52,44.5,51.6,44.7,51.4"/>
	<path class="st0" d="M36.3,64.8c0.3-0.2,0.7-0.2,0.9,0.1c0.2,0.3,0.2,0.7-0.1,0.9s-0.7,0.2-0.9-0.1C35.9,65.4,36,65,36.3,64.8"/>
	<path class="st0" d="M32.3,55.9c0.3-0.2,0.7-0.2,0.9,0.1c0.2,0.3,0.2,0.7-0.1,0.9s-0.7,0.2-0.9-0.1C32,56.5,32.1,56.1,32.3,55.9"/>
	<path class="st0" d="M47.1,44.5c0.3-0.2,0.7-0.2,0.9,0.1c0.2,0.3,0.2,0.7-0.1,0.9s-0.7,0.2-0.9-0.1C46.8,45.1,46.9,44.7,47.1,44.5"
		/>
	<path class="st0" d="M60.8,32.2c0.3-0.2,0.7-0.2,0.9,0.1c0.2,0.3,0.2,0.7-0.1,0.9c-0.3,0.2-0.7,0.2-0.9-0.1
		C60.5,32.8,60.5,32.5,60.8,32.2"/>
	<rect x="25.7" y="77" transform="matrix(0.1688 -0.9856 0.9856 0.1688 -61.895 95.6901)" class="st0" width="0.2" height="15"/>
	
		<rect x="24" y="71.5" transform="matrix(-0.6202 -0.7844 0.7844 -0.6202 -22.7904 146.5472)" class="st0" width="0.2" height="14.5"/>
	
		<rect x="25.5" y="79.9" transform="matrix(-0.2849 -0.9585 0.9585 -0.2849 -36.2896 133.0255)" class="st0" width="12" height="0.2"/>
	<rect x="13" y="76.6" transform="matrix(0.1841 -0.9829 0.9829 0.1841 -59.429 81.9113)" class="st0" width="13.3" height="0.2"/>
	
		<rect x="25.2" y="67.4" transform="matrix(0.4159 -0.9094 0.9094 0.4159 -50.9288 65.2175)" class="st0" width="0.2" height="9.8"/>
	
		<rect x="28.6" y="78.4" transform="matrix(0.4331 -0.9013 0.9013 0.4331 -49.9989 77.5753)" class="st0" width="16.1" height="0.2"/>
	
		<rect x="34.9" y="67.4" transform="matrix(-0.2777 -0.9607 0.9607 -0.2777 -25.2474 126.5848)" class="st0" width="0.2" height="10.8"/>
	<rect x="18.7" y="66" transform="matrix(0.5624 -0.8269 0.8269 0.5624 -44.3181 48.4744)" class="st0" width="9.9" height="0.2"/>
	
		<rect x="21.7" y="68" transform="matrix(-0.2615 -0.9652 0.9652 -0.2615 -30.3331 113.0888)" class="st0" width="12.7" height="0.2"/>
	
		<rect x="33.2" y="58.4" transform="matrix(0.5568 -0.8306 0.8306 0.5568 -40.5949 57.1938)" class="st0" width="0.2" height="16.6"/>
	
		<rect x="39.6" y="75" transform="matrix(-0.4744 -0.8803 0.8803 -0.4744 -13.9831 156.3021)" class="st0" width="0.2" height="14.7"/>
	
		<rect x="38.3" y="75" transform="matrix(-0.6205 -0.7842 0.7842 -0.6205 11.0861 155.4865)" class="st0" width="9.7" height="0.2"/>
	<rect x="42.8" y="72.9" transform="matrix(0.515 -0.8572 0.8572 0.515 -38.4566 77.987)" class="st0" width="13.7" height="0.2"/>
	
		<rect x="46.6" y="62.3" transform="matrix(-0.3052 -0.9523 0.9523 -0.3052 -4.9452 134.7706)" class="st0" width="0.2" height="13.7"/>
	
		<rect x="35.3" y="65.2" transform="matrix(0.1955 -0.9807 0.9807 0.1955 -30.7637 93.0868)" class="st0" width="12.2" height="0.2"/>
	
		<rect x="34.4" y="52.5" transform="matrix(-0.1644 -0.9864 0.9864 -0.1644 -19.6742 104.6531)" class="st0" width="0.2" height="16.3"/>
	<rect x="47.8" y="56.6" transform="matrix(0.589 -0.8081 0.8081 0.589 -31.403 64.6753)" class="st0" width="0.2" height="13.2"/>
	<rect x="20" y="54.3" transform="matrix(0.162 -0.9868 0.9868 0.162 -30.4612 72.888)" class="st0" width="15.5" height="0.2"/>
	
		<rect x="35.6" y="43.8" transform="matrix(0.6792 -0.7339 0.7339 0.6792 -27.4589 43.2443)" class="st0" width="0.2" height="18.5"/>
	
		<rect x="45.8" y="59.5" transform="matrix(1.405588e-003 -1 1 1.405588e-003 -6.483 112.7754)" class="st0" width="14.9" height="0.2"/>
	
		<rect x="47.8" y="49.3" transform="matrix(-0.5568 -0.8307 0.8307 -0.5568 28.2574 126.5568)" class="st0" width="0.2" height="12.9"/>
	
		<rect x="34.3" y="52.4" transform="matrix(-0.1897 -0.9818 0.9818 -0.1897 -2.4782 102.9217)" class="st0" width="13.9" height="0.2"/>
	
		<rect x="34.3" y="40.7" transform="matrix(-0.1004 -0.9949 0.9949 -0.1004 -8.0914 85.0884)" class="st0" width="0.2" height="11"/>
	
		<rect x="46.5" y="41.5" transform="matrix(0.4381 -0.8989 0.8989 0.4381 -17.7937 69.3487)" class="st0" width="0.2" height="14.8"/>
	
		<rect x="59.7" y="61.3" transform="matrix(0.128 -0.9918 0.9918 0.128 -15.2353 118.5471)" class="st0" width="0.2" height="13.3"/>
	<rect x="51" y="61.2" transform="matrix(0.7342 -0.6789 0.6789 0.7342 -25.8526 56.6597)" class="st0" width="17" height="0.2"/>
	
		<rect x="59.3" y="47.4" transform="matrix(0.2651 -0.9642 0.9642 0.2651 -8.2582 96.9205)" class="st0" width="0.2" height="12.9"/>
	
		<rect x="59.4" y="62.1" transform="matrix(-5.410571e-002 -0.9985 0.9985 -5.410571e-002 7.504 131.4722)" class="st0" width="13.2" height="0.2"/>
	<rect x="50.7" y="46.9" transform="matrix(0.6157 -0.788 0.788 0.6157 -15.07 63.1812)" class="st0" width="13" height="0.2"/>
	
		<rect x="56.3" y="48.6" transform="matrix(-0.3079 -0.9514 0.9514 -0.3079 36.6051 124.1384)" class="st0" width="14.4" height="0.2"/>
	
		<rect x="43.5" y="44.7" transform="matrix(-0.2817 -0.9595 0.9595 -0.2817 22.444 106.5142)" class="st0" width="15.2" height="0.2"/>
	
		<rect x="38.4" y="41.5" transform="matrix(0.7447 -0.6674 0.6674 0.7447 -16.4223 40.2752)" class="st0" width="12.1" height="0.2"/>
	<rect x="55" y="33.2" transform="matrix(0.3326 -0.9431 0.9431 0.3326 -0.7033 78.4751)" class="st0" width="0.2" height="13"/>
	<rect x="31.9" y="39.9" transform="matrix(-0.3246 -0.9458 0.9458 -0.3246 12.4769 88.845)" class="st0" width="12" height="0.2"/>
	
		<rect x="25.3" y="40.4" transform="matrix(0.4934 -0.8698 0.8698 0.4934 -18.7944 48.7706)" class="st0" width="14.3" height="0.2"/>
	
		<rect x="42.4" y="29.2" transform="matrix(0.2468 -0.9691 0.9691 0.2468 -2.8145 68.2145)" class="st0" width="0.2" height="13.3"/>
	<rect x="44.7" y="32" transform="matrix(0.2451 -0.9695 0.9695 0.2451 6.9004 73.0047)" class="st0" width="11.3" height="0.2"/>
	<rect x="57.4" y="35.5" transform="matrix(0.4604 -0.8877 0.8877 0.4604 3.2244 76.4809)" class="st0" width="14.3" height="0.2"/>
	
		<rect x="47.5" y="34.1" transform="matrix(-0.5278 -0.8494 0.8494 -0.5278 57.1916 100.3054)" class="st0" width="18" height="0.2"/>
	
		<rect x="59.7" y="19.8" transform="matrix(0.1644 -0.9864 0.9864 0.1644 22.3911 82.2813)" class="st0" width="0.2" height="16.3"/>
	<path class="st0" d="M18.1,82.5c0.3-0.3,0.8-0.2,1.1,0.1c0.3,0.3,0.2,0.8-0.1,1.1C18.7,84,18.2,84,18,83.6
		C17.7,83.3,17.8,82.8,18.1,82.5"/>
	<path class="st0" d="M32.7,85.2c0.3-0.3,0.8-0.2,1.1,0.1c0.3,0.3,0.2,0.8-0.1,1.1c-0.3,0.3-0.8,0.2-1.1-0.1
		C32.3,85.9,32.4,85.5,32.7,85.2"/>
	<path class="st0" d="M29.3,73.7c0.3-0.3,0.8-0.2,1.1,0.1c0.3,0.3,0.2,0.8-0.1,1.1c-0.3,0.3-0.8,0.2-1.1-0.1
		C28.9,74.4,29,74,29.3,73.7"/>
	<path class="st0" d="M20.4,69.6c0.3-0.3,0.8-0.2,1.1,0.1c0.3,0.3,0.2,0.8-0.1,1.1c-0.3,0.3-0.8,0.2-1.1-0.1
		C20,70.4,20,69.9,20.4,69.6"/>
	<path class="st0" d="M26,61.4c0.3-0.3,0.8-0.2,1.1,0.1c0.3,0.3,0.2,0.8-0.1,1.1c-0.3,0.3-0.8,0.2-1.1-0.1S25.6,61.7,26,61.4"/>
	<path class="st0" d="M39.7,70.7c0.3-0.3,0.8-0.2,1.1,0.1c0.3,0.3,0.2,0.8-0.1,1.1c-0.3,0.3-0.8,0.2-1.1-0.1S39.4,70.9,39.7,70.7"/>
	<path class="st0" d="M45.7,78.2c0.3-0.3,0.8-0.2,1.1,0.1c0.3,0.3,0.2,0.8-0.1,1.1c-0.3,0.3-0.8,0.2-1.1-0.1
		C45.3,79,45.4,78.5,45.7,78.2"/>
	<path class="st0" d="M52.6,66.5c0.3-0.3,0.8-0.2,1.1,0.1c0.3,0.3,0.2,0.8-0.1,1.1c-0.3,0.3-0.8,0.2-1.1-0.1
		C52.2,67.2,52.3,66.7,52.6,66.5"/>
	<path class="st0" d="M42,58.7c0.3-0.3,0.8-0.2,1.1,0.1c0.3,0.3,0.2,0.8-0.1,1.1c-0.3,0.3-0.8,0.2-1.1-0.1
		C41.6,59.4,41.6,59,42,58.7"/>
	<path class="st0" d="M28.6,46.2c0.3-0.3,0.8-0.2,1.1,0.1c0.3,0.3,0.2,0.8-0.1,1.1c-0.3,0.3-0.8,0.2-1.1-0.1S28.2,46.4,28.6,46.2"/>
	<path class="st0" d="M39.5,44.9c0.3-0.3,0.8-0.2,1.1,0.1c0.3,0.3,0.2,0.8-0.1,1.1c-0.3,0.3-0.8,0.2-1.1-0.1S39.1,45.2,39.5,44.9"/>
	<path class="st0" d="M35.4,33.7c0.3-0.3,0.8-0.2,1.1,0.1c0.3,0.3,0.2,0.8-0.1,1.1c-0.3,0.3-0.8,0.2-1.1-0.1
		C35.1,34.5,35.1,34,35.4,33.7"/>
	<path class="st0" d="M52.6,51.5c0.3-0.3,0.8-0.2,1.1,0.1c0.3,0.3,0.2,0.8-0.1,1.1c-0.3,0.3-0.8,0.2-1.1-0.1
		C52.2,52.3,52.3,51.8,52.6,51.5"/>
	<path class="st0" d="M65.7,68c0.3-0.3,0.8-0.2,1.1,0.1c0.3,0.3,0.2,0.8-0.1,1.1c-0.3,0.3-0.8,0.2-1.1-0.1S65.3,68.3,65.7,68"/>
	<path class="st0" d="M65.1,54.9c0.3-0.3,0.8-0.2,1.1,0.1c0.3,0.3,0.2,0.8-0.1,1.1c-0.3,0.3-0.8,0.2-1.1-0.1S64.8,55.2,65.1,54.9"/>
	<path class="st0" d="M60.7,41.2c0.3-0.3,0.8-0.2,1.1,0.1c0.3,0.3,0.2,0.8-0.1,1.1c-0.3,0.3-0.8,0.2-1.1-0.1S60.3,41.5,60.7,41.2"/>
	<path class="st0" d="M48.6,36.9c0.3-0.3,0.8-0.2,1.1,0.1c0.3,0.3,0.2,0.8-0.1,1.1c-0.3,0.3-0.8,0.2-1.1-0.1S48.2,37.2,48.6,36.9"/>
	<path class="st0" d="M51.3,26.1c0.3-0.3,0.8-0.2,1.1,0.1c0.3,0.3,0.2,0.8-0.1,1.1c-0.3,0.3-0.8,0.2-1.1-0.1S50.9,26.4,51.3,26.1"/>
	<path class="st0" d="M67,28.8c0.3-0.3,0.8-0.2,1.1,0.1c0.3,0.3,0.2,0.8-0.1,1.1c-0.3,0.3-0.8,0.2-1.1-0.1
		C66.6,29.5,66.7,29,67,28.8"/>
	
		<rect x="30.8" y="75.4" transform="matrix(-0.5165 -0.8563 0.8563 -0.5165 -8.5775 146.3237)" class="st0" width="12.5" height="0.3"/>
	
		<rect x="13.8" y="59.1" transform="matrix(0.7412 -0.6712 0.6712 0.7412 -34.2649 29.621)" class="st0" width="14.9" height="0.3"/>
	
		<rect x="35.3" y="47.8" transform="matrix(0.2925 -0.9563 0.9563 0.2925 -29.3098 74.1833)" class="st0" width="0.3" height="18.1"/>
	
		<rect x="14" y="45.5" transform="matrix(-0.3741 -0.9274 0.9274 -0.3741 -10.2362 84.3368)" class="st0" width="18.6" height="0.3"/>
	<rect x="24.6" y="57.7" transform="matrix(0.3143 -0.9493 0.9493 0.3143 -46.8492 69.6211)" class="st0" width="0.3" height="19"/>
	
		<rect x="31.5" y="64.7" transform="matrix(0.6966 -0.7175 0.7175 0.6966 -34.7336 47.6431)" class="st0" width="14.9" height="0.3"/>
	
		<rect x="39.5" y="52.8" transform="matrix(0.3374 -0.9414 0.9414 0.3374 -18.9892 78.8576)" class="st0" width="14.1" height="0.3"/>
	
		<rect x="55.9" y="39.4" transform="matrix(3.143763e-002 -0.9995 0.9995 3.143763e-002 7.7917 101.0164)" class="st0" width="0.3" height="14.2"/>
	
		<rect x="44.2" y="33.5" transform="matrix(0.7772 -0.6293 0.6293 0.7772 -15.7189 36.9799)" class="st0" width="0.3" height="14.4"/>
	
		<rect x="57.9" y="65.2" transform="matrix(0.394 -0.9191 0.9191 0.394 -19.7769 100.8019)" class="st0" width="17.4" height="0.3"/>
	
		<rect x="77.7" y="46.9" transform="matrix(-0.2896 -0.9571 0.9571 -0.2896 47.6511 145.4758)" class="st0" width="0.3" height="16.4"/>
	
		<rect x="60.2" y="51.9" transform="matrix(-0.5376 -0.8432 0.8432 -0.5376 58.4367 136.1672)" class="st0" width="12.7" height="0.3"/>
	
		<rect x="69.4" y="19.9" transform="matrix(1.721504e-002 -0.9999 0.9999 1.721504e-002 56.2484 97.4226)" class="st0" width="16.5" height="0.3"/>
	<rect x="69.1" y="-3.4" transform="matrix(0.5223 -0.8527 0.8527 0.5223 27.4592 62.2413)" class="st0" width="0.3" height="20"/>
	
		<rect x="83.2" y="2.7" transform="matrix(-0.4647 -0.8855 0.8855 -0.4647 114.1333 86.9302)" class="st0" width="0.3" height="12.5"/>
	
		<rect x="50.2" y="40.1" transform="matrix(-0.6078 -0.7941 0.7941 -0.6078 61.6334 111.0282)" class="st0" width="16.1" height="0.3"/>
	
		<rect x="46.4" y="27.7" transform="matrix(-8.798477e-002 -0.9961 0.9961 -8.798477e-002 16.3119 83.919)" class="st0" width="0.3" height="13.6"/>
	<rect x="47.9" y="27.1" transform="matrix(0.1926 -0.9813 0.9813 0.1926 17.368 75.6172)" class="st0" width="13.5" height="0.3"/>
	<path class="st0" d="M69.3,56.6c0.5-0.4,1.2-0.3,1.6,0.2c0.4,0.5,0.3,1.2-0.2,1.6c-0.5,0.4-1.2,0.3-1.6-0.2
		C68.7,57.6,68.8,56.9,69.3,56.6"/>
	<path class="st0" d="M48.2,45.4c0.5-0.4,1.2-0.3,1.6,0.2c0.4,0.5,0.3,1.2-0.2,1.6c-0.5,0.4-1.2,0.3-1.6-0.2S47.7,45.8,48.2,45.4"/>
	<path class="st0" d="M33.1,69.3c0.5-0.4,1.2-0.3,1.6,0.2c0.4,0.5,0.3,1.2-0.2,1.6c-0.5,0.4-1.2,0.3-1.6-0.2S32.6,69.7,33.1,69.3"/>
	<path class="st0" d="M26.1,53.4c0.5-0.4,1.2-0.3,1.6,0.2c0.4,0.5,0.3,1.2-0.2,1.6c-0.5,0.4-1.2,0.3-1.6-0.2
		C25.6,54.5,25.6,53.8,26.1,53.4"/>
	<path class="st0" d="M52.5,33.1c0.5-0.4,1.2-0.3,1.6,0.2c0.4,0.5,0.3,1.2-0.2,1.6c-0.5,0.4-1.2,0.3-1.6-0.2
		C52,34.2,52.1,33.5,52.5,33.1"/>
	<path class="st0" d="M76.9,11.2c0.5-0.4,1.2-0.3,1.6,0.2c0.4,0.5,0.3,1.2-0.2,1.6c-0.5,0.4-1.2,0.3-1.6-0.2
		C76.3,12.3,76.4,11.6,76.9,11.2"/>
	<path class="st0" d="M0.7,101c0.6-0.5,1.5-0.4,1.9,0.2c0.5,0.6,0.4,1.5-0.2,1.9c-0.6,0.5-1.5,0.4-1.9-0.2
		C0,102.3,0.1,101.5,0.7,101"/>
	<path class="st0" d="M26.8,105.7c0.6-0.5,1.5-0.4,1.9,0.2c0.5,0.6,0.4,1.5-0.2,1.9c-0.6,0.5-1.5,0.4-1.9-0.2
		C26.1,107,26.2,106.2,26.8,105.7"/>
	<path class="st0" d="M20.7,85.2c0.6-0.5,1.5-0.4,1.9,0.2c0.5,0.6,0.4,1.5-0.2,1.9c-0.6,0.5-1.5,0.4-1.9-0.2
		C20,86.5,20.1,85.6,20.7,85.2"/>
	<path class="st0" d="M4.7,77.9c0.6-0.5,1.5-0.4,1.9,0.2C7.1,78.7,7,79.6,6.4,80c-0.6,0.5-1.5,0.4-1.9-0.2S4.2,78.4,4.7,77.9"/>
	<path class="st0" d="M14.7,63.2c0.6-0.5,1.5-0.4,1.9,0.2c0.5,0.6,0.4,1.5-0.2,1.9c-0.6,0.5-1.5,0.4-1.9-0.2S14.1,63.7,14.7,63.2"/>
	<path class="st0" d="M39.3,79.8c0.6-0.5,1.5-0.4,1.9,0.2c0.5,0.6,0.4,1.5-0.2,1.9c-0.6,0.5-1.5,0.4-1.9-0.2
		C38.6,81.1,38.7,80.2,39.3,79.8"/>
	<path class="st0" d="M49.9,93.3c0.6-0.5,1.5-0.4,1.9,0.2c0.5,0.6,0.4,1.5-0.2,1.9c-0.6,0.5-1.5,0.4-1.9-0.2
		C49.2,94.6,49.3,93.8,49.9,93.3"/>
	<path class="st0" d="M62.3,72.3c0.6-0.5,1.5-0.4,1.9,0.2c0.5,0.6,0.4,1.5-0.2,1.9c-0.6,0.5-1.5,0.4-1.9-0.2
		C61.6,73.6,61.7,72.8,62.3,72.3"/>
	<path class="st0" d="M43.3,58.4c0.6-0.5,1.5-0.4,1.9,0.2c0.5,0.6,0.4,1.5-0.2,1.9c-0.6,0.5-1.5,0.4-1.9-0.2
		C42.6,59.7,42.7,58.9,43.3,58.4"/>
	<path class="st0" d="M19.4,36.1c0.6-0.5,1.5-0.4,1.9,0.2c0.5,0.6,0.4,1.5-0.2,1.9c-0.6,0.5-1.5,0.4-1.9-0.2
		C18.7,37.4,18.8,36.5,19.4,36.1"/>
	<path class="st0" d="M38.9,33.9c0.6-0.5,1.5-0.4,1.9,0.2c0.5,0.6,0.4,1.5-0.2,1.9c-0.6,0.5-1.5,0.4-1.9-0.2
		C38.2,35.2,38.3,34.3,38.9,33.9"/>
	<path class="st0" d="M31.6,13.8c0.6-0.5,1.5-0.4,1.9,0.2c0.5,0.6,0.4,1.5-0.2,1.9c-0.6,0.5-1.5,0.4-1.9-0.2
		C31,15.1,31.1,14.3,31.6,13.8"/>
	<path class="st0" d="M62.3,45.6c0.6-0.5,1.5-0.4,1.9,0.2c0.5,0.6,0.4,1.5-0.2,1.9c-0.6,0.5-1.5,0.4-1.9-0.2
		C61.6,47,61.7,46.1,62.3,45.6"/>
	<path class="st0" d="M85.6,75c0.6-0.5,1.5-0.4,1.9,0.2c0.5,0.6,0.4,1.5-0.2,1.9c-0.6,0.5-1.5,0.4-1.9-0.2
		C84.9,76.3,85,75.5,85.6,75"/>
	<path class="st0" d="M84.6,51.7c0.6-0.5,1.5-0.4,1.9,0.2c0.5,0.6,0.4,1.5-0.2,1.9c-0.6,0.5-1.5,0.4-1.9-0.2
		C83.9,53,84,52.1,84.6,51.7"/>
	<path class="st0" d="M76.7,27.3c0.6-0.5,1.5-0.4,1.9,0.2c0.5,0.6,0.4,1.5-0.2,1.9s-1.5,0.4-1.9-0.2C76,28.6,76.1,27.7,76.7,27.3"/>
	<path class="st0" d="M55.1,19.5c0.6-0.5,1.5-0.4,1.9,0.2c0.5,0.6,0.4,1.5-0.2,1.9c-0.6,0.5-1.5,0.4-1.9-0.2
		C54.4,20.9,54.5,20,55.1,19.5"/>
	<path class="st0" d="M59.9,0.3c0.6-0.5,1.5-0.4,1.9,0.2c0.5,0.6,0.4,1.5-0.2,1.9c-0.6,0.5-1.5,0.4-1.9-0.2
		C59.2,1.6,59.3,0.8,59.9,0.3"/>
	<path class="st0" d="M88,5c0.6-0.5,1.5-0.4,1.9,0.2c0.5,0.6,0.4,1.5-0.2,1.9c-0.6,0.5-1.5,0.4-1.9-0.2C87.3,6.3,87.4,5.5,88,5"/>
</g>
</svg>
