<?xml version="1.0" encoding="utf-8"?>
<!-- Generator: Adobe Illustrator 19.0.0, SVG Export Plug-In . SVG Version: 6.00 Build 0)  -->
<svg version="1.1" id="Layer_1" xmlns="http://www.w3.org/2000/svg" xmlns:xlink="http://www.w3.org/1999/xlink" x="0px" y="0px"
	 viewBox="0 0 26.9 27.8" style="enable-background:new 0 0 26.9 27.8;" xml:space="preserve">
<g>
	<path d="M21.9,26.9h-5.8c-0.2,0-0.4-0.2-0.4-0.4v-8.1h-5.5v8.1c0,0.2-0.2,0.4-0.4,0.4H4.1c-0.2,0-0.4-0.2-0.4-0.4V13.2H0.4
		c-0.2,0-0.3-0.1-0.4-0.3c-0.1-0.2,0-0.3,0.1-0.4L12.7,0.6c0.2-0.1,0.4-0.1,0.6,0l12.6,11.9c0.1,0.1,0.2,0.3,0.1,0.4
		c-0.1,0.2-0.2,0.3-0.4,0.3h-3.3v13.3C22.3,26.7,22.2,26.9,21.9,26.9L21.9,26.9z M16.6,26.1h5V12.8c0-0.2,0.2-0.4,0.4-0.4h2.7
		L13,1.4l-11.6,11h2.7c0.2,0,0.4,0.2,0.4,0.4v13.3h5v-8.1c0-0.2,0.2-0.4,0.4-0.4h6.3c0.2,0,0.4,0.2,0.4,0.4V26.1z M16.6,26.1"/>
</g>
</svg>
