<?xml version="1.0" encoding="utf-8"?>
<!-- Generator: Adobe Illustrator 19.0.0, SVG Export Plug-In . SVG Version: 6.00 Build 0)  -->
<svg version="1.1" id="Layer_1" xmlns="http://www.w3.org/2000/svg" xmlns:xlink="http://www.w3.org/1999/xlink" x="0px" y="0px"
	 viewBox="0 0 21 16" style="enable-background:new 0 0 21 16;" xml:space="preserve">
<style type="text/css">
	.st0{fill:#DF5326;}
</style>
<g>
	<path class="st0" d="M0.2,8.8C0.1,8.6,0,8.4,0,8.2c0-0.2,0.1-0.4,0.2-0.6l1.1-1.1c0.3-0.3,0.8-0.3,1.1,0l0.1,0.1L7,11.4
		c0.2,0.2,0.4,0.2,0.6,0L18.2,0.2h0.1c0.3-0.3,0.8-0.3,1.1,0l1.1,1.1c0.3,0.3,0.3,0.8,0,1.1L7.8,15.8C7.6,15.9,7.4,16,7.2,16
		c-0.2,0-0.4-0.1-0.6-0.2L0.4,9L0.2,8.8z M0.2,8.8"/>
</g>
</svg>
