<?xml version="1.0" encoding="utf-8"?>
<!-- Generator: Adobe Illustrator 19.0.0, SVG Export Plug-In . SVG Version: 6.00 Build 0)  -->
<svg version="1.1" id="Layer_1" xmlns="http://www.w3.org/2000/svg" xmlns:xlink="http://www.w3.org/1999/xlink" x="0px" y="0px"
	 viewBox="0 0 409.6 404.7" style="enable-background:new 0 0 409.6 404.7;" xml:space="preserve">
<style type="text/css">
	.st0{fill:#FFFFFF;}
</style>
<path class="st0" d="M80.9,144.5c26,5.8,52.8,8.8,79.4,8.8c26.7,0,53.4-2.9,79.3-8.7c2.8-0.6,4.8-3.2,4.5-6.1
	c-3.7-35.8-29.2-65.2-61.6-74.6v-5.9c0-3.1-2.5-5.6-5.6-5.6c-3.1,0-5.6,2.5-5.6,5.6v3.5c-3.6-0.5-7.3-0.9-11-0.9
	c-3.7,0-7.4,0.4-11,0.9v-3.5c0-3.1-2.5-5.6-5.6-5.6c-3.1,0-5.6,2.5-5.6,5.6v5.9c-32.4,9.4-57.9,38.8-61.6,74.6
	C76.2,141.3,78.1,143.9,80.9,144.5L80.9,144.5z M138.1,75.6v15.6c0,3.1,2.5,5.6,5.6,5.6c3.1,0,5.6-2.5,5.6-5.6V72.8
	c3.6-0.6,7.3-1,11-1c3.7,0,7.4,0.4,11,1v18.4c0,3.1,2.5,5.6,5.6,5.6c3.1,0,5.6-2.5,5.6-5.6V75.6c25.2,8.6,45,31.2,49.7,59
	c-47.2,9.8-96.5,9.9-143.9,0C93.1,106.8,112.9,84.2,138.1,75.6L138.1,75.6z M192.7,129.7c-10.6,2.4-21.5,3.6-32.4,3.6
	c-10.9,0-21.8-1.2-32.4-3.6l2.4-11c19.6,4.4,40.2,4.4,59.8,0c3-0.7,6,1.2,6.7,4.3C197.6,126,195.7,129,192.7,129.7L192.7,129.7z
	 M73,167.7c0.1-3.4,0.4-13.9,8.1-16.8c7.5-2.9,15.2,4.7,16.6,6.3c2.1,2.3,2,5.8-0.3,7.9c-2.3,2.1-5.8,2-7.9-0.3
	c-1.3-1.3-3.1-2.7-4.3-3.2c-0.3,0.8-0.9,2.7-1,6.4c-0.5,17.5,12.8,22.4,13.4,22.6c1.7,0.6,3.1,2,3.6,3.8l0.2,0.8
	c0.1,0.3,0.2,0.7,0.2,1c4,47.2,41.3,62.5,58.7,62.5c17.4,0,54.7-15.3,58.7-62.5c0-0.4,0.1-0.7,0.2-1l0.2-0.8
	c0.5-1.8,1.9-3.2,3.6-3.8c0.5-0.2,13.9-5.1,13.3-22.6c-0.1-3.7-0.6-5.6-1-6.4c-1.2,0.5-3.2,2-4.3,3.2c-2.1,2.3-5.7,2.4-7.9,0.3
	c-2.3-2.1-2.4-5.7-0.3-7.9c1.4-1.6,9.1-9.1,16.6-6.3c7.6,2.9,8,13.4,8.1,16.8c0.5,18-10,28.1-17.7,32.2
	c-5.3,48.4-43.6,70.2-69.6,70.2S96,248.2,90.7,199.8C83,195.8,72.5,185.7,73,167.7L73,167.7z M100.6,261.2c0.9,3-0.7,6.1-3.6,7.1
	c-3.5,1.1-85.7,28.7-85.7,130.8c0,3.1-2.5,5.6-5.6,5.6c-3.1,0-5.6-2.5-5.6-5.6c0-110.5,92.6-141.2,93.5-141.5
	C96.5,256.7,99.6,258.3,100.6,261.2L100.6,261.2z M77.1,378v21.1c0,3.1-2.5,5.6-5.6,5.6c-3.1,0-5.6-2.5-5.6-5.6V378
	c0-3.1,2.5-5.6,5.6-5.6C74.6,372.4,77.1,374.9,77.1,378L77.1,378z M238.6,365.4v33.8c0,3.1-2.5,5.6-5.6,5.6c-3.1,0-5.6-2.5-5.6-5.6
	v-33.8c0-3.1,2.5-5.6,5.6-5.6C236,359.7,238.6,362.2,238.6,365.4L238.6,365.4z M371,159.6c0.3,3.6,7.4,89.5-37.5,138.6
	c-19.9,21.7-46.8,32.7-80.1,32.7c-3.1,0-5.6-2.5-5.6-5.6c0-3.1,2.5-5.6,5.6-5.6c30,0,54.2-9.8,71.8-29.1
	c41.6-45.5,34.7-129.2,34.6-130.1c-0.3-3.1,2-5.8,5.1-6.1C368,154.2,370.7,156.5,371,159.6L371,159.6z M302.6,248.3
	c-20,16.4-44.2,19.7-60.7,19.7c-10.7,0-18.1-1.4-18.8-1.6c-3-0.6-5-3.6-4.4-6.6c0.6-3,3.6-5,6.6-4.4c0.4,0.1,41.4,7.8,70.3-15.9
	c19.5-16,29.3-42.7,29.3-79.5c0-3.1,2.5-5.6,5.6-5.6c3.1,0,5.6,2.5,5.6,5.6C336.1,200.4,324.8,230.1,302.6,248.3L302.6,248.3z
	 M383.4,102.8c0-25.9-26.5-25.9-36.4-25.9c-10,0-36.4,0-36.4,25.9v12.6c0,20.1,16.4,36.4,36.4,36.4c20.1,0,36.4-16.3,36.4-36.4
	V102.8z M372.1,115.4c0,13.9-11.3,25.2-25.2,25.2c-13.9,0-25.2-11.3-25.2-25.2v-12.6c0-9.1,4.2-14.7,25.2-14.7
	c21,0,25.2,5.6,25.2,14.7V115.4z M236.9,7c-0.5-2.1,0.2-4.3,1.8-5.6c1.6-1.4,3.9-1.7,5.9-0.9l77.9,33.9c1.8,0.8,3,2.4,3.3,4.3
	c0.3,1.9-0.4,3.8-1.8,5.1l-18.8,16.9l12.2,12.2c2.2,2.2,2.2,5.8,0,7.9c-2.2,2.2-5.8,2.2-7.9,0l-16.4-16.4c-1.1-1.1-1.7-2.6-1.6-4.1
	c0-1.5,0.7-3,1.9-4l16.7-15l-33-14.4c1.4,3.5,1.2,7.6-3.4,11.2c-3.2,2.5-9.9,8.1-13.8,15l6.2,25.1l7.5-6.3c2.4-2,5.9-1.7,7.9,0.7
	c2,2.4,1.7,5.9-0.7,7.9l-14.4,12.2c-1,0.9-2.3,1.3-3.6,1.3c-0.6,0-1.2-0.1-1.7-0.3c-1.8-0.6-3.2-2.1-3.7-4L236.9,7z M407.8,171.3
	c-1.1,1-2.5,1.5-3.9,1.5c-1.5,0-3-0.6-4.1-1.8l-20.8-22c-2.1-2.3-2-5.8,0.2-7.9c2.2-2.1,5.8-2,7.9,0.2l20.8,22
	C410.2,165.7,410.1,169.2,407.8,171.3L407.8,171.3z M106.9,157.8c-3.1,0-5.6,2.5-5.6,5.6c0,13.8,2.9,24.2,8.8,30.9
	c5.1,5.9,12.2,8.9,21,8.9h0c11.8,0,23.9-5.6,29.3-8.5c5.4,2.8,17.4,8.3,29.2,8.3c11.2,0,29.9-5.2,29.9-39.6c0-3.1-2.5-5.6-5.6-5.6
	L106.9,157.8L106.9,157.8z M189.5,191.8c-12.4,0-26.2-8.3-26.3-8.3c-1.8-1.1-4.1-1.1-5.9,0c-3.8,2.4-16.1,8.5-26.4,8.5
	c-5.5,0-9.6-1.6-12.5-5c-3.3-3.8-5.2-9.8-5.8-17.9H208C206.5,189.3,196.9,191.8,189.5,191.8L189.5,191.8z M212.1,278.4
	c2.2,2.2,2.1,5.8-0.1,7.9c-15,14.5-34.2,21.8-53.5,21.8c-19.2,0-38.5-7.3-53.5-21.8c-2.2-2.2-2.3-5.7-0.1-7.9
	c2.2-2.2,5.7-2.3,7.9-0.1c25.6,24.8,65.7,24.8,91.3,0C206.4,276.1,210,276.2,212.1,278.4L212.1,278.4z M212.1,278.4"/>
</svg>
