<?xml version="1.0" encoding="utf-8"?>
<!-- Generator: Adobe Illustrator 19.0.0, SVG Export Plug-In . SVG Version: 6.00 Build 0)  -->
<svg version="1.1" id="Layer_1" xmlns="http://www.w3.org/2000/svg" xmlns:xlink="http://www.w3.org/1999/xlink" x="0px" y="0px"
	 viewBox="-222 313.2 166.8 166.8" style="enable-background:new -222 313.2 166.8 166.8;" xml:space="preserve">
<style type="text/css">
	.st0{fill:#DC4626;}
</style>
<g>
	<g>
		<g>
			<path class="st0" d="M-58.5,383.3l-32.3-20.8c-0.3-0.2-0.5-0.2-0.8-0.3v-7.2c0-1.9-1.6-3.5-3.5-3.5h-12.9l-26.9-16.8
				c-1.1-0.7-2.6-0.7-3.7,0l-26.9,16.8H-182c-1.9,0-3.5,1.6-3.5,3.5v7.2c-0.3,0.1-0.6,0.2-0.8,0.3l-32.4,20.8
				c-1,0.6-1.6,1.7-1.6,2.9v90.3c0,1.9,1.6,3.5,3.5,3.5h156.4c1.9,0,3.5-1.6,3.5-3.5v-90.3C-57,385-57.6,383.9-58.5,383.3z
				 M-136.9,341.6l15.7,9.8h-31.4L-136.9,341.6z M-178.6,358.4h79.9v78.2c0,0,0,0,0,0l-11.8,7.1l-28.3-15.4c-1.1-0.6-2.3-0.6-3.4,0
				l-25.8,14.7l-10.7-6.5c0,0,0,0,0,0L-178.6,358.4z M-213.3,388.1l27.8-17.9v62.2l-27.8-16.9V388.1z M-213.3,423.6l38.5,23.4
				l-38.5,22V423.6z M-206.3,473.1l66-37.7l69.1,37.7H-206.3z M-63.9,469.1l-39.4-21.5l39.4-23.9V469.1z M-63.9,415.5l-27.8,16.9
				v-62.2l27.8,17.9V415.5z"/>
			<path class="st0" d="M-164.7,393.1h41.7c1.9,0,3.5-1.6,3.5-3.5v-20.8c0-1.9-1.6-3.5-3.5-3.5h-41.7c-1.9,0-3.5,1.6-3.5,3.5v20.8
				C-168.1,391.6-166.6,393.1-164.7,393.1z M-161.2,372.3h34.7v13.9h-34.7V372.3z"/>
			<rect x="-168.1" y="400.1" class="st0" width="55.6" height="6.9"/>
			<rect x="-168.1" y="414" class="st0" width="55.6" height="6.9"/>
			<path class="st0" d="M-74.3,354.9c0.9,0,1.8-0.3,2.5-1l12.3-12.3c1.4-1.4,1.4-3.6,0-4.9c-1.4-1.4-3.6-1.4-4.9,0L-76.8,349
				c-1.4,1.4-1.4,3.6,0,4.9C-76.1,354.6-75.2,354.9-74.3,354.9z"/>
			<path class="st0" d="M-205.3,353.9c0.7,0.7,1.6,1,2.5,1c0.9,0,1.8-0.3,2.5-1c1.4-1.4,1.4-3.6,0-4.9l-12.3-12.3
				c-1.4-1.4-3.6-1.4-4.9,0s-1.4,3.6,0,4.9L-205.3,353.9z"/>
			<path class="st0" d="M-103.4,337.3c0.4,0.2,0.9,0.2,1.3,0.2c1.4,0,2.7-0.8,3.2-2.2L-92,318c0.7-1.8-0.2-3.8-1.9-4.5
				c-1.8-0.7-3.8,0.1-4.5,1.9l-6.9,17.4C-106.1,334.6-105.2,336.6-103.4,337.3z"/>
			<path class="st0" d="M-174.8,335.4c0.5,1.4,1.8,2.2,3.2,2.2c0.4,0,0.9-0.1,1.3-0.2c1.8-0.7,2.6-2.7,1.9-4.5l-6.9-17.4
				c-0.7-1.8-2.7-2.6-4.5-1.9c-1.8,0.7-2.7,2.7-1.9,4.5L-174.8,335.4z"/>
		</g>
	</g>
</g>
</svg>
