<?xml version="1.0" encoding="utf-8"?>
<!-- Generator: Adobe Illustrator 19.0.0, SVG Export Plug-In . SVG Version: 6.00 Build 0)  -->
<svg version="1.1" id="Layer_1" xmlns="http://www.w3.org/2000/svg" xmlns:xlink="http://www.w3.org/1999/xlink" x="0px" y="0px"
	 viewBox="0 0 389 409.6" style="enable-background:new 0 0 389 409.6;" xml:space="preserve">
<style type="text/css">
	.st0{fill:#FFFFFF;}
</style>
<g>
	<path class="st0" d="M75.8,117.1c0.1-4.4,0.5-18,9.8-21.5c9.2-3.5,18.9,6.2,20.8,8.2c2.1,2.3,2,5.9-0.3,8c-2.3,2.1-5.9,2-8-0.3
		c-3.1-3.2-7.3-5.7-8.5-5.3c0,0-2.2,1.6-2.5,11.2c-0.8,26.2,19.7,34.4,20.5,34.7c2,0.8,3.5,2.7,3.6,4.8
		c5.6,67.1,58.8,88.8,83.7,88.8c24.9,0,78-21.7,83.7-88.8c0.2-2.2,1.6-4.1,3.7-4.9c0.8-0.3,21.3-8.5,20.5-34.7
		c-0.3-9.5-2.5-11.2-2.5-11.2c-1.2-0.3-5.5,2.2-8.4,5.3c-2.1,2.3-5.7,2.4-8,0.3c-2.3-2.1-2.4-5.7-0.3-8c1.9-2,11.6-11.7,20.8-8.2
		c9.3,3.5,9.7,17,9.8,21.5c0.7,24.7-14.2,38.8-24.5,44.2c-7.2,66.1-59.3,95.9-94.7,95.9c-35.4,0-87.5-29.8-94.7-95.9
		C90.1,155.9,75.1,141.8,75.8,117.1L75.8,117.1z M221.5,269.8c0,10.2-5.2,17.4-11.2,22c0.7,2.7,2.6,12.5,4.9,25.3l-36.8-18.5
		c0.7-3.3,1.2-5.7,1.5-6.8c-6.1-4.7-11.2-11.8-11.2-22c0-3.1,2.5-5.7,5.7-5.7h41.5C219,264.1,221.5,266.7,221.5,269.8L221.5,269.8z
		 M181,275.5c2.9,7.4,11,10.6,14,11.5c3.1-1,11.2-4.1,14-11.5H181z M160.3,267.4c-1.3-2.8-4.7-4.1-7.6-2.7L126,277.2l-2.3-41.2
		c-0.2-3.1-2.9-5.6-6-5.4c-3.1,0.2-5.5,2.9-5.4,6l0.6,10.6C93.5,254,0,292.8,0,403.9c0,3.1,2.5,5.7,5.7,5.7c3.1,0,5.7-2.6,5.7-5.7
		c0-100.2,79.3-136.5,102.2-144.9l1.5,27.3c0.1,1.9,1.1,3.6,2.8,4.6c0.9,0.5,1.9,0.8,2.9,0.8c0.8,0,1.7-0.2,2.4-0.5l34.3-16.1
		C160.4,273.6,161.6,270.3,160.3,267.4L160.3,267.4z M81.5,378.5c-3.1,0-5.7,2.5-5.7,5.7v19.7c0,3.1,2.5,5.7,5.7,5.7
		c3.1,0,5.7-2.6,5.7-5.7v-19.7C87.2,381.1,84.7,378.5,81.5,378.5L81.5,378.5z M276.1,247.2l0.6-10.6c0.2-3.1-2.2-5.8-5.4-6
		c-3.1-0.2-5.8,2.2-6,5.4l-2.3,41.2l-26.7-12.5c-2.8-1.3-6.2-0.1-7.6,2.7c-1.3,2.8-0.1,6.2,2.7,7.6l34.3,16.1
		c0.8,0.4,1.6,0.5,2.4,0.5c1,0,2-0.3,2.9-0.8c1.6-1,2.7-2.7,2.8-4.6l1.5-27.2c22.7,8.6,102.2,45.8,102.2,144.9
		c0,3.1,2.6,5.7,5.7,5.7c3.1,0,5.7-2.6,5.7-5.7C389,292.8,295.5,254,276.1,247.2L276.1,247.2z M307.5,378.5c-3.1,0-5.7,2.5-5.7,5.7
		v19.7c0,3.1,2.6,5.7,5.7,5.7c3.1,0,5.7-2.6,5.7-5.7v-19.7C313.2,381.1,310.7,378.5,307.5,378.5L307.5,378.5z M263.2,117.2
		c1.5,0,3,0.6,4.1,1.7c1.1,1.1,1.7,2.6,1.6,4.1c-0.1,4.7-1,28.5-10.7,36.4c-6.1,4.9-15.6,8-24.9,8c-8.7,0-16.1-2.7-20.6-7.7
		c-5.2-5.7-8.7-18.3-10.6-27.1H188c-1.9,8.8-5.3,21.4-10.6,27.1c-4.5,5-11.8,7.7-20.6,7.7c-9.3,0-18.8-3.1-24.9-8
		c-9.7-7.9-10.6-31.7-10.7-36.4c0-1.5,0.6-3,1.6-4.1c1.1-1.1,2.5-1.7,4.1-1.7H184c1.7,0,3.2,0.7,4.3,2c0.5,0.6,0.9,1.3,1.1,2h11.3
		c0.2-0.7,0.6-1.4,1.1-2c1.1-1.3,2.7-2,4.3-2H263.2z M177.2,128.6h-44.3c0.8,9.6,3.1,19.5,6.2,22c4,3.3,11.2,5.5,17.7,5.5
		c5.4,0,9.9-1.4,12.2-4C172.2,148.6,175.3,137.8,177.2,128.6L177.2,128.6z M257.2,128.6h-44.3c1.9,9.2,5,20,8.2,23.5
		c2.3,2.5,6.8,4,12.2,4c6.6,0,13.7-2.2,17.7-5.5C254.2,148.1,256.4,138.2,257.2,128.6L257.2,128.6z M107.6,92.7L107.6,92.7
		c3.2,0,5.7-2.5,5.7-5.7c0.1-14.8,4.7-28.4,13-38.3c2-2.4,1.7-6-0.7-8c-2.4-2-6-1.7-8,0.7c-10,11.9-15.6,28.1-15.6,45.6
		C101.9,90.2,104.5,92.7,107.6,92.7L107.6,92.7z M142.1,33.6h83.5c1.8,0,45.4,1.2,45.4,52.5c0,3.1,2.5,5.7,5.7,5.7
		c3.1,0,5.7-2.6,5.7-5.7c0-62.4-56-63.9-56.7-63.9h-83.6c-3.1,0-5.7,2.5-5.7,5.7C136.4,31,138.9,33.6,142.1,33.6L142.1,33.6z
		 M151.6,11.4h78.9c2.1-0.1,53.4-0.2,59.5,52.2c0.3,2.9,2.8,5,5.6,5c0.2,0,0.4,0,0.7,0c3.1-0.4,5.4-3.2,5-6.3
		C294-0.2,230.9,0,230.4,0h-78.8c-3.1,0-5.7,2.6-5.7,5.7C145.9,8.8,148.4,11.4,151.6,11.4L151.6,11.4z M223.1,361.8l-51.5-25.9
		c-0.8,4.6-1.6,9.4-2.5,14.1l56.9,28.8C225.1,373.4,224.1,367.7,223.1,361.8L223.1,361.8z M173.7,324.1l47,23.7
		c-1-5.6-2-11.3-2.9-16.7l-41.5-20.8C175.4,314.5,174.6,319.2,173.7,324.1L173.7,324.1z M159.7,403.9h36.8l-33.8-17.1
		C161.4,394.1,160.4,400.1,159.7,403.9L159.7,403.9z M167.1,361.7c-0.8,4.6-1.6,9.1-2.3,13.4l57.1,28.8h8.6c-0.5-2.7-1.2-6.6-2-11.2
		L167.1,361.7z M167.1,361.7"/>
</g>
</svg>
