<?xml version="1.0" encoding="utf-8"?>
<!-- Generator: Adobe Illustrator 19.0.0, SVG Export Plug-In . SVG Version: 6.00 Build 0)  -->
<svg version="1.1" id="Layer_1" xmlns="http://www.w3.org/2000/svg" xmlns:xlink="http://www.w3.org/1999/xlink" x="0px" y="0px"
	 viewBox="-100 204.7 409.6 384.3" style="enable-background:new -100 204.7 409.6 384.3;" xml:space="preserve">
<style type="text/css">
	.st0{fill:#FFFFFF;}
</style>
<path class="st0" d="M34.2,259.2c0.1-2.8,0.3-11.4,6.9-13.9c6.5-2.4,12.7,3.8,13.9,5.1c2,2.2,1.9,5.6-0.3,7.6s-5.6,1.9-7.6-0.2
	c-0.5-0.5-1.2-1.1-1.8-1.6c-0.1,0.7-0.3,1.8-0.3,3.3c-0.4,13,9.7,16.9,9.8,17c1.9,0.7,3.3,2.5,3.5,4.6c3,35.4,30.9,46.9,43.9,46.9
	c13,0,40.9-11.5,43.9-46.9c0.2-2.1,1.5-3.9,3.5-4.6c1-0.4,10.2-4.4,9.8-17c0-1.5-0.2-2.6-0.3-3.3c-0.6,0.4-1.3,1-1.8,1.6
	c-2.1,2.2-5.5,2.2-7.6,0.2c-2.2-2-2.3-5.4-0.2-7.6c1.2-1.3,7.5-7.5,13.9-5.1c6.5,2.5,6.8,11.1,6.9,13.9c0.4,15.3-8.7,22.8-13.7,25.8
	c-4.6,37-34.1,53.8-54.3,53.8S52.6,322.1,48,285C42.8,282,33.7,274.5,34.2,259.2L34.2,259.2z M102.1,359.3c0,0,11.4-2.5,11.4-12.7
	H90.6C90.7,356.8,102.1,359.3,102.1,359.3L102.1,359.3z M101.8,459.8l22.4-18.2c-2.3-11.7-13-81.2-13.8-82.3c-4.4,3-8.3,3.4-8.3,3.4
	s-3.8-0.4-8.3-3.4C93,360.4,82.3,430,80,441.6L101.8,459.8z M139.7,258.4c1.1,0,2.1,0.4,2.9,1.2c0.8,0.8,1.2,1.8,1.2,2.9
	c-0.1,3.7-0.7,16.3-6.2,20.8c-3.5,2.9-9,4.6-14.3,4.6c-5.1,0-9.3-1.6-12-4.5c-2.9-3.2-4.8-9.8-5.9-14.7H99c-1.1,4.9-3,11.5-5.9,14.7
	c-2.7,2.9-6.9,4.5-12,4.5c-5.3,0-10.8-1.8-14.3-4.6c-5.5-4.5-6.1-17-6.2-20.8c0-1.1,0.4-2.1,1.2-2.9c0.8-0.8,1.8-1.2,2.9-1.2H96
	c1.2,0,2.3,0.5,3.1,1.4c0.2,0.2,0.3,0.5,0.4,0.8h5.2c0.1-0.3,0.2-0.6,0.4-0.8c0.8-0.9,1.9-1.4,3.1-1.4
	C108.2,258.4,139.7,258.4,139.7,258.4z M91.1,266.5H68.8c0.5,4.7,1.6,9.4,3,10.5c3.7,3,12.8,3.6,15.3,0.9
	C88.6,276.3,90.1,271.1,91.1,266.5L91.1,266.5z M135.4,266.5h-22.3c1,4.7,2.6,9.8,4.1,11.4c2.5,2.7,11.5,2.1,15.3-0.9
	C133.8,275.9,134.9,271.2,135.4,266.5L135.4,266.5z M145.3,239.5c-0.2,3,2,5.5,5,5.8c0.1,0,0.3,0,0.4,0c2.8,0,5.2-2.2,5.4-5
	c1.3-17.3-10.2-25-10.7-25.3c-2.5-1.6-5.7-0.9-7.4,1.5c-1.6,2.4-1,5.8,1.4,7.4C139.7,224.2,146.1,228.8,145.3,239.5L145.3,239.5z
	 M57.2,247.6c3,0,5.4-2.4,5.4-5.4c0-25.4,20.5-26.6,22.7-26.7h46.1c3,0,5.4-2.4,5.4-5.4s-2.4-5.4-5.4-5.4H85.2
	c-11.6,0.2-33.4,8.2-33.4,37.5C51.8,245.1,54.2,247.6,57.2,247.6L57.2,247.6z M-44.5,448c4.6,37,34.1,53.8,54.3,53.8
	s49.7-16.7,54.3-53.8c5-3,14.1-10.5,13.7-25.8c-0.1-2.8-0.3-11.4-6.9-13.9c-6.4-2.4-12.7,3.8-13.9,5.1c-2,2.2-1.9,5.6,0.2,7.6
	c2.1,2,5.6,1.9,7.6-0.2c0.5-0.5,1.2-1.1,1.8-1.6c0.1,0.7,0.3,1.8,0.3,3.3c0.4,12.5-8.8,16.6-9.8,17c-1.9,0.7-3.3,2.5-3.5,4.6
	c-3,35.4-30.9,46.9-43.9,46.9s-40.9-11.5-43.9-46.9c-0.2-2.1-1.5-3.9-3.5-4.6c-0.1,0-10.2-4-9.8-17c0-1.5,0.2-2.6,0.3-3.3
	c0.6,0.4,1.3,1,1.8,1.5c2,2.2,5.5,2.3,7.6,0.3c2.2-2,2.3-5.4,0.3-7.6c-1.2-1.3-7.4-7.5-13.9-5.1c-6.5,2.5-6.8,11.1-6.9,13.9
	C-58.6,437.6-49.5,445.1-44.5,448L-44.5,448z M-1.8,509.7c0,10.2,11.3,12.7,11.3,12.7s11.3-2.5,11.3-12.7H-1.8z M-7.4,507.4
	c-1.3-2.7-4.5-3.9-7.2-2.6l-11.7,5.5l-1.1-19.4c-0.2-3-2.7-5.2-5.7-5.1c-3,0.2-5.2,2.7-5.1,5.7l0.2,4.2c-13.6,5.2-62,27.8-62,87.9
	c0,3,2.4,5.4,5.4,5.4s5.4-2.4,5.4-5.4c0-50.2,37.1-70.5,52-76.7l0.7,11.9c0.1,1.8,1.1,3.4,2.6,4.3c0.8,0.5,1.8,0.8,2.8,0.8
	c0.8,0,1.6-0.2,2.3-0.5l18.9-8.9C-7.3,513.3-6.1,510.1-7.4,507.4L-7.4,507.4z M21.2,352c1.4,0,2.9-0.6,4-1.7
	c9.4-10.2,21.1-17.8,33.7-22.1c2.8-0.9,4.3-4,3.4-6.8c-0.9-2.8-4-4.3-6.8-3.4c-14.3,4.8-27.5,13.4-38.1,24.9c-2,2.2-1.9,5.6,0.3,7.6
	C18.5,351.5,19.8,352,21.2,352L21.2,352z M-52.8,567.3c-3,0-5.4,2.4-5.4,5.4v10.9c0,3,2.4,5.4,5.4,5.4s5.4-2.4,5.4-5.4v-10.9
	C-47.4,569.7-49.8,567.3-52.8,567.3L-52.8,567.3z M72.4,567.3c-3,0-5.4,2.4-5.4,5.4v10.9c0,3,2.4,5.4,5.4,5.4s5.4-2.4,5.4-5.4v-10.9
	C77.8,569.7,75.4,567.3,72.4,567.3L72.4,567.3z M56.8,495.6l0.2-4.2c0.2-3-2.1-5.5-5.1-5.7c-3-0.1-5.5,2.1-5.7,5.1l-1.1,19.4
	l-11.7-5.5c-2.7-1.3-5.9-0.1-7.2,2.6c-1.3,2.7-0.1,5.9,2.6,7.2l18.9,8.9c0.7,0.3,1.5,0.5,2.3,0.5c1,0,1.9-0.3,2.8-0.8
	c1.5-0.9,2.5-2.5,2.6-4.3l0.7-11.9c14.9,6.1,52,26.5,52,76.7c0,3,2.4,5.4,5.4,5.4s5.4-2.4,5.4-5.4C119,523.5,70.6,500.9,56.8,495.6
	L56.8,495.6z M-38.7,404.9c0.3,0,0.5,0.1,0.8,0.1c2.6,0,4.9-1.9,5.3-4.6c0.8-5.4,3-10.3,6.2-14.3c1.9-2.3,1.6-5.7-0.7-7.6
	c-2.3-1.9-5.7-1.6-7.6,0.7c-4.5,5.4-7.5,12.2-8.6,19.5C-43.7,401.7-41.7,404.4-38.7,404.9L-38.7,404.9z M-18.5,381.2h44.1
	c2.2,0.1,21.6,1.2,21.6,25.4c0,3,2.4,5.4,5.4,5.4s5.4-2.4,5.4-5.4c0-28.2-21.1-36-32.3-36.1h-44.2c-3,0-5.4,2.4-5.4,5.4
	C-23.8,378.8-21.4,381.2-18.5,381.2L-18.5,381.2z M-14.2,366.3h43.5c1.1,0,27.4,0.1,30.6,26.8c0.3,2.7,2.6,4.8,5.3,4.8
	c0.2,0,0.4,0,0.6,0c3-0.3,5.1-3,4.7-6c-3.4-29.2-28.6-36.5-41.3-36.3h-43.4c-3,0-5.4,2.4-5.4,5.4C-19.6,363.9-17.2,366.3-14.2,366.3
	L-14.2,366.3z M132.6,520.4c-3,0-5.4,2.4-5.4,5.4v57.5c0,3,2.4,5.4,5.4,5.4s5.4-2.4,5.4-5.4v-57.5
	C138,522.8,135.6,520.4,132.6,520.4L132.6,520.4z M267.7,520.4c-3,0-5.4,2.4-5.4,5.4v57.5c0,3,2.4,5.4,5.4,5.4s5.4-2.4,5.4-5.4
	v-57.5C273,522.8,270.6,520.4,267.7,520.4L267.7,520.4z M200.4,297.6L200.4,297.6c28.4,0,53.1,21.6,58.4,50.1c0.9,0,1.8,0.2,2.7,0.5
	c6.5,2.5,6.8,11.1,6.9,13.9c0.4,15.3-8.7,22.8-13.7,25.8c-4.6,37-34.1,53.8-54.3,53.8s-49.7-16.7-54.3-53.8
	c-5-3-14.1-10.5-13.7-25.8c0.1-2.8,0.3-11.4,6.9-13.9c0.9-0.4,1.8-0.5,2.7-0.5C147.3,319.2,172.1,297.6,200.4,297.6L200.4,297.6z
	 M152.2,352.3c0.4,0.4,0.8,0.8,1,1c2,2.2,1.9,5.6-0.3,7.6s-5.6,1.9-7.6-0.3c-0.5-0.5-1.2-1.1-1.8-1.5c-0.1,0.7-0.3,1.8-0.3,3.3
	c-0.4,13,9.7,16.9,9.8,17c1.9,0.7,3.3,2.5,3.5,4.6c3,35.4,30.8,46.9,43.9,46.9s40.9-11.5,43.9-46.9c0.2-2.1,1.5-3.9,3.5-4.6
	c1-0.4,10.2-4.4,9.8-17c0-1.5-0.2-2.6-0.3-3.3c-0.6,0.4-1.3,1-1.8,1.6c-2.1,2.2-5.5,2.2-7.6,0.2c-2.2-2-2.3-5.4-0.2-7.6
	c0.2-0.2,0.5-0.6,1-1c-3.2-24.7-24.1-43.9-48.2-43.9l0,0C176.3,308.3,155.4,327.5,152.2,352.3L152.2,352.3z M165,385
	c-6.9-7.6-5.8-19.7-5.7-20.3c0.2-2.1,1.9-3.6,4-3.6h74.3c2.1,0,3.8,1.6,4,3.6c0.1,0.5,1.2,12.6-5.7,20.3c-3.5,3.9-8.4,5.9-14.5,5.9
	c-6.2,0-11.1-2-14.7-6c-1.3-1.5-2.3-3.2-3.1-4.9h-6.4c-0.8,1.7-1.7,3.4-3.1,4.9c-3.6,4-8.5,6-14.7,6
	C173.4,390.9,168.6,388.9,165,385L165,385z M201.4,371.9c-0.1-1-0.2-1.9-0.2-2.8h-1.4c0,0.9-0.1,1.8-0.2,2.8H201.4z M209.2,369.1
	c0.2,3.1,0.9,7.4,3.5,10.4c2,2.2,4.8,3.3,8.6,3.3c3.7,0,6.5-1.1,8.5-3.2c2.7-2.9,3.5-7.3,3.7-10.4h-24.3V369.1z M167.3,369.1
	c0.2,3.1,1,7.5,3.7,10.4c2,2.2,4.8,3.2,8.5,3.2c3.8,0,6.7-1.1,8.6-3.3c2.6-2.9,3.4-7.3,3.5-10.3L167.3,369.1L167.3,369.1z
	 M309.6,523.3v60.2c0,3-2.4,5.4-5.4,5.4s-5.4-2.4-5.4-5.4v-60.2c0-32.3-14.8-52.2-28.9-64.1c-24.3,25.4-47.7,38.3-69.5,38.3
	c-21.9,0-45.5-13.1-70-38.8c-15.1,12.4-25.2,30.1-27.9,50.1c-0.4,2.9-3.1,5-6.1,4.6c-2.9-0.4-5-3.1-4.6-6.1
	c4.6-34.1,27.9-62.1,60.9-73.2c2.1-0.7,4.4-0.1,5.8,1.6c0.2,0.3,21.7,25.3,41.9,25.3c20.1,0,41-25,41.2-25.2
	c1.4-1.7,3.6-2.4,5.7-1.7C247.9,434.3,309.6,453.7,309.6,523.3L309.6,523.3z M261.1,452.8c-5.7-3.6-10.7-6-13.7-7.2
	c-6.8,7.4-26.3,26.2-46.9,26.2c-20.7,0-40.6-18.9-47.5-26.3c-4.8,1.8-9.3,4.1-13.6,6.8c22,22.8,42.6,34.4,61.1,34.4
	C218.8,486.8,239.3,475.3,261.1,452.8L261.1,452.8z M-5,556.4l31.5,15c-0.9-5.4-2-11.8-3.1-18.1l-25.5-13.1
	C-3,545.2-4,550.8-5,556.4L-5,556.4z M1.3,522.4c-0.2,0.2-0.7,2.8-1.4,6.7L21,539.9c-1.7-9.6-3.1-17.1-3.4-17.5
	c-4.4,3-8.1,3.4-8.1,3.4S5.7,525.4,1.3,522.4L1.3,522.4z M-9.7,583.6h36.8l-34-16.2C-8.1,574.4-9.2,580.4-9.7,583.6L-9.7,583.6z
	 M10.4,424.2v25.4H3.8c-3,0-5.4,2.4-5.4,5.4s2.4,5.4,5.4,5.4h12c3,0,5.4-2.4,5.4-5.4v-30.8c0-3-2.4-5.4-5.4-5.4
	C12.8,418.9,10.4,421.3,10.4,424.2L10.4,424.2z"/>
</svg>
